<svg width="122" height="122" viewBox="0 0 122 122" fill="none" xmlns="http://www.w3.org/2000/svg">
<path d="M122 61C122 94.7 94.7 122 61 122C27.3 122 0 94.7 0 61C0 27.3 27.3 0 61 0C94.7 0 122 27.3 122 61Z" fill="#BABABA"/>
<path d="M66.4201 14C67.4201 14.8 68.4201 15.6 69.4201 16.5C70.3201 17.2 70.3201 17.9 69.6201 18.9C67.4201 21.6 64.8201 23.8 62.0201 25.8C59.0201 28 55.9201 30.1 52.6201 32.1C52.8201 31.8 52.9201 31.4 53.1201 31.1C56.5201 25 60.3201 19.3 65.3201 14.4C65.4201 14.4 65.5201 14.2 65.5201 14C65.8201 14 66.1201 14 66.4201 14Z" fill="black"/>
<path d="M90.9201 64.5C91.3201 65 91.6201 65.4 92.0201 65.9C96.0201 71 99.6201 76.4 102.12 82.4C102.62 83.5 102.42 84.2 101.42 84.7C100.42 85.2 99.5201 85.7 98.5201 86.1C97.7201 86.5 97.2201 86.3 96.7201 85.4C94.8201 82.1 93.7201 78.5 92.9201 74.8C92.2201 71.6 91.4201 68.4 90.7201 65.2C90.7201 65 90.7201 64.8 90.7201 64.7C90.7201 64.7 90.9201 64.7 90.9201 64.6V64.5Z" fill="black"/>
<path d="M46.2202 87.6C44.1202 88.1 42.0202 88.7 39.9202 89.2C35.0202 90.4 30.1202 91 25.1202 91.1C24.1202 91.1 23.7202 90.7 23.6202 89.9C23.5202 88.6 23.4202 87.4 23.3202 86.1C23.3202 85.4 23.6202 85.1 24.4202 85C28.0202 84.5 31.6202 84.8 35.1202 85.4C38.6202 86 42.2202 86.6 45.7202 87.2C45.8202 87.2 46.0202 87.3 46.1202 87.4C46.1202 87.4 46.1202 87.6 46.1202 87.7L46.2202 87.6Z" fill="black"/>
<path d="M79.7201 84.7999C79.3201 87.4999 78.9201 90.0999 78.5201 92.7999C77.7201 97.1999 76.5201 101.4 74.9201 105.5C74.5201 106.4 74.1201 106.8 73.1201 106.5C71.9201 106.2 70.7201 105.8 69.6201 105.4C68.8201 105.1 68.7201 104.6 68.9201 103.8C69.8201 100.3 71.5201 97.1 73.4201 94.1C75.3201 91.1 77.2201 88.1 79.1201 85.1C79.1201 85 79.1201 84.8 79.2201 84.7C79.4201 84.7 79.5201 84.8999 79.7201 84.8999V84.7999Z" fill="black"/>
<path d="M32.1201 69.4C31.8201 69.4 31.7201 69.4 31.6201 69.2C25.4201 65.8 19.5201 61.9 14.5201 56.9C13.9201 56.3 13.8201 55.7 14.3201 55C15.1201 54 15.9201 53.1 16.7201 52.2C17.3201 51.6 17.8201 51.6 18.6201 52.2C21.3201 54.3 23.4201 56.8 25.4201 59.5C27.6201 62.6 29.8201 65.7 32.0201 68.8C32.0201 68.9 32.1201 69.1 32.3201 69.4H32.1201Z" fill="black"/>
<path d="M89.7201 52.8C90.0201 52.9 90.2201 53.0001 90.3201 53.1001C96.4201 56.4001 102.12 60.2001 107.12 65.1001C108.02 65.9001 108.12 66.6001 107.42 67.5001C106.72 68.4001 105.92 69.3001 105.12 70.1001C104.62 70.7001 104.12 70.6001 103.42 70.1001C100.82 68.1001 98.7201 65.7001 96.8201 63.1001C94.5201 59.9001 92.2201 56.7 90.0201 53.5C90.0201 53.4 89.9201 53.2 89.8201 52.8H89.7201Z" fill="black"/>
<path d="M64.2201 31.2999C64.4201 31.0999 64.5201 30.8999 64.6201 30.7999C70.1201 26.3999 75.9201 22.4999 82.4201 19.6999C83.2201 19.3999 83.7201 19.3999 84.1201 20.0999C84.7201 21.1999 85.4201 22.3999 85.9201 23.5999C86.2201 24.2999 85.9201 24.7999 85.2201 25.1999C81.9201 27.0999 78.3201 28.1999 74.7201 28.9999C71.4201 29.7999 68.1201 30.4999 64.7201 31.2999C64.6201 31.2999 64.4201 31.2999 64.1201 31.2999H64.2201Z" fill="black"/>
<path d="M69.2201 89.9C69.1201 90.2 69.0201 90.5 68.9201 90.6C65.6201 96.7 61.8201 102.4 56.9201 107.4C56.1201 108.2 55.5201 108.3 54.7201 107.7C53.8201 107 53.0201 106.3 52.1201 105.5C51.4201 104.9 51.4201 104.2 52.1201 103.5C54.1201 101 56.5201 98.9 59.0201 97C62.2201 94.7 65.4201 92.4 68.6201 90.2C68.7201 90.2 68.8201 90.2 69.1201 90L69.2201 89.9Z" fill="black"/>
<path d="M37.2202 80.1C33.3202 79.4 29.4202 78.8 25.5202 77.9C22.4202 77.2 19.5202 76 16.5202 75.1C15.6202 74.8 15.3202 74.3 15.5202 73.4C15.8202 72.2 16.2202 71 16.6202 69.9C16.9202 69.2 17.4202 68.8 18.2202 69.2C20.8202 70.3 23.5202 71.2 25.9202 72.5C29.7202 74.6 33.3202 77.1 37.0202 79.4C37.1202 79.4 37.3202 79.4 37.4202 79.5C37.4202 79.7 37.2202 79.9 37.1202 80.1H37.2202Z" fill="black"/>
<path d="M84.5202 42.2C87.8202 42.7 91.1202 43.1 94.3202 43.9C98.0202 44.8 101.62 46.1 105.32 47.2C106.22 47.5 106.52 47.9999 106.22 48.7999C105.82 50.0999 105.52 51.3 105.02 52.5C104.82 53.1 104.32 53.4 103.62 53.1C100.82 51.9 97.9202 50.9 95.3202 49.5C91.6202 47.5 88.2202 45.1 84.6202 42.9C84.6202 42.9 84.5202 42.7 84.4202 42.7C84.4202 42.6 84.4202 42.5 84.4202 42.4L84.5202 42.2Z" fill="black"/>
<path d="M87.3201 75.8C87.8201 77.6 88.3201 79.4 88.7201 81.3C89.9201 86.4 90.8201 91.6 90.7201 96.9C90.7201 97.8 90.4201 98.3 89.5201 98.4C88.3201 98.5 87.2201 98.6 86.0201 98.7001C85.0201 98.7001 84.6201 98.2001 84.5201 97.2001C84.0201 93 84.5201 89 85.3201 84.9C85.8201 81.9 86.4201 78.9 86.9201 75.9C87.0201 75.9 87.1201 75.9 87.2201 75.9L87.3201 75.8Z" fill="black"/>
<path d="M75.5201 34.7C76.8201 34.3 78.2201 34 79.6201 33.6C85.2201 32.2 90.8201 31.3 96.6201 31.2C97.6201 31.2 98.1201 31.5 98.2201 32.5C98.3201 33.7 98.4201 35 98.5201 36.2C98.5201 36.9 98.2201 37.3 97.4201 37.4C93.5201 37.9 89.6201 37.4 85.7201 36.9C82.6201 36.4 79.5201 35.7999 76.4201 35.2999C76.2201 35.2999 75.9201 35.2 75.7201 35.1V34.9L75.5201 34.7Z" fill="black"/>
<path d="M57.4202 91.2001C56.7202 91.7001 56.0202 92.3 55.3202 92.8C50.3202 96.6 45.1202 100 39.4202 102.4C38.5202 102.8 37.9202 102.6 37.4202 101.8C36.8202 100.8 36.3202 99.7001 35.8202 98.6001C35.5202 97.8001 35.8202 97.3 36.5202 96.9C39.6202 95.1 43.0202 94.0001 46.5202 93.2001C50.0202 92.4001 53.4202 91.6 56.9202 90.8C57.0202 90.8 57.2202 90.8 57.3202 90.8C57.3202 90.8 57.3202 91.0001 57.4202 91.1001V91.2001Z" fill="black"/>
</svg>
