<svg width="122" height="122" viewBox="0 0 122 122" fill="none" xmlns="http://www.w3.org/2000/svg">
<path d="M61.0001 122C94.6895 122 122 94.6894 122 61C122 27.3106 94.6895 0 61.0001 0C27.3108 0 0.00012207 27.3106 0.00012207 61C0.00012207 94.6894 27.3108 122 61.0001 122Z" fill="#BABABA"/>
<g clip-path="url(#clip0_4377_2975)">
<path d="M100.425 64.3856C100.124 64.1851 99.723 63.9845 99.3219 63.8842C98.1186 63.784 97.1159 64.1851 96.3137 64.9872C95.7121 65.5889 95.4112 66.2908 95.6118 67.1933C95.8123 67.8952 96.0129 68.5971 96.2134 69.299C96.3137 69.8004 96.1132 70.0009 95.6118 69.8004C95.5115 69.8004 95.4112 69.7001 95.311 69.7001C94.5088 69.299 93.7066 68.6974 93.2052 67.9954C92.8041 67.2935 92.5033 66.5916 92.9044 65.7894C93.105 65.3883 93.4058 64.9872 93.7066 64.6864C94.7093 63.6837 95.2107 62.5807 95.2107 61.1768C95.2107 59.9736 94.8096 58.8706 94.3082 57.8678C93.2052 55.6618 91.5006 53.8569 89.6957 52.2525C87.1888 49.9462 84.3812 48.041 81.373 46.4366C77.362 44.2306 73.2508 42.3254 68.939 40.7211C64.7276 39.217 60.4158 38.0137 56.0038 37.1112C52.5945 36.4093 49.0849 35.8077 45.6756 35.206C42.6674 34.7046 39.7595 34.4038 36.7513 34.103C33.9436 33.8022 31.2362 33.6016 28.4286 33.4011C26.9245 33.3008 25.4204 33.2005 24.0165 33.2005C22.2116 33.1003 20.3064 33.1003 18.5015 33C18.3009 33 18.2007 33 18.0001 33.1003V33.2005C18.2007 33.3008 18.4012 33.3008 18.6018 33.4011C20.8078 33.8022 23.1141 34.2033 25.3201 34.7046C30.3338 35.8077 35.3474 37.2115 40.1606 38.9161C46.6783 41.2224 52.8953 44.0301 58.7112 47.8405C63.0229 50.7484 67.0339 54.0574 70.3429 58.1686C71.2453 59.2717 72.2481 60.4749 72.95 61.7785C74.3538 64.3856 74.5544 67.1933 74.1533 70.0009C73.8524 71.9061 73.0503 73.5105 71.5462 74.7138C69.3401 76.5187 66.733 77.3209 63.9254 77.4212C60.7166 77.5214 57.4076 77.2206 54.1988 76.619C53.7978 76.5187 53.7978 76.3181 53.7978 76.0173C53.6975 73.4102 53.5972 70.9034 53.3967 68.2963C53.3967 67.8952 53.4969 67.7949 53.898 67.8952C56.104 68.196 58.3101 68.4968 60.5161 68.6974C60.9172 68.7976 61.0174 68.6974 61.0174 68.2963C60.9172 67.1933 60.9172 66.1905 60.8169 65.0875C60.8169 64.7867 60.6163 64.4859 60.4158 64.2853C58.6109 62.4804 56.7057 60.6755 54.9008 58.8706C54.7002 58.67 54.3994 58.5697 54.1988 58.5697C52.1934 58.2689 50.1879 58.0684 48.2827 57.7675C44.2718 57.2662 40.2608 56.7648 36.2499 56.1632C35.8488 56.1632 35.7485 56.1632 35.7485 56.5643V56.9654C35.8488 59.5725 35.9491 62.1796 36.1496 64.7867C36.1496 65.2546 36.3836 65.522 36.8515 65.5889C38.9573 65.8897 41.063 66.1905 43.1688 66.3911C43.4696 66.3911 43.5699 66.4913 43.6701 66.7922C43.7704 68.8979 43.8707 71.0036 43.971 73.1094C43.971 73.4102 43.8707 73.5105 43.5699 73.4102C42.9682 73.2097 42.4669 72.9088 41.8652 72.7083C37.754 71.0036 33.7431 68.8979 29.8324 66.5916C27.6264 65.1878 25.4204 63.784 23.2143 62.4804C22.713 62.1796 22.2116 61.8788 21.7102 61.5779L21.61 61.6782C21.7102 61.8788 21.7102 61.979 21.8105 62.0793C23.5152 63.784 25.2198 65.5889 26.9245 67.1933C31.9381 71.8058 37.5535 75.516 43.6701 78.5242C43.971 78.6244 44.0712 78.9253 44.1715 79.2261C44.2718 81.1313 44.372 83.1367 44.372 85.0419C44.372 85.443 44.5726 85.6436 44.8734 85.7438C45.8761 85.9444 46.7786 86.2452 47.7813 86.4458C49.7868 86.9471 51.692 87.4485 53.6975 87.9499C54.0986 88.0167 54.2991 87.8496 54.2991 87.4485C54.1988 86.0447 54.1988 84.6408 54.0986 83.237C54.0986 82.9028 54.2657 82.7691 54.5999 82.8359C55.001 82.9362 55.4021 83.1367 55.8032 83.237C59.8142 84.4403 63.9254 85.3428 68.1369 85.8441C72.1478 86.3455 76.1587 86.546 80.27 86.1449C84.4814 85.7439 88.4924 84.8414 92.403 83.237C94.8096 82.2343 96.9154 80.8304 98.5197 78.825C100.325 76.7192 101.127 74.4129 99.9236 71.7056C99.723 71.3045 99.723 70.9034 99.6227 70.5023C99.5225 69.8004 99.9236 69.299 100.224 68.6974C101.027 67.2935 102.029 66.3911 103.533 65.7894C103.634 65.7894 103.634 65.6892 103.834 65.5889C103.634 65.4886 103.533 65.4886 103.433 65.3883C102.33 65.3883 101.327 64.9872 100.425 64.3856Z" fill="black"/>
</g>
<defs>
<clipPath id="clip0_4377_2975">
<rect width="85.8341" height="55" fill="white" transform="translate(18.0001 33)"/>
</clipPath>
</defs>
</svg>
