<svg width="122" height="122" viewBox="0 0 122 122" fill="none" xmlns="http://www.w3.org/2000/svg">
<path d="M122 61C122 94.7 94.7 122 61 122C27.3 122 0 94.7 0 61C0 27.3 27.3 0 61 0C94.7 0 122 27.3 122 61Z" fill="#BABABA"/>
<path d="M115 65.6V72.2C114.67 76.05 114.34 79.89 113.95 84.44C110.06 84.94 105.96 85.92 101.86 85.87C98.54 85.83 95.15 84.81 91.93 83.78C85.58 81.75 79.25 81.27 72.77 83C70.26 83.67 67.68 84.02 65.14 84.57C59.62 85.78 54.23 85.5 48.97 83.31C47.85 82.84 46.62 82.64 45.05 82.2C46.72 88.05 45.52 92.66 41.95 96.92C40.9 98.17 41.02 100.41 40.61 102.2H22C22.8 99.55 23.68 96.92 24.39 94.24C25.02 91.85 25.7 89.43 25.92 86.99C26.3 82.69 25.17 80.95 20.92 81.13C16.26 81.33 11.64 82.72 7.01001 83.59C7.01001 77.19 7.01001 70.79 7.01001 64.39C12.45 62.7 17.94 61.8 24.17 64.07C23.44 61.67 22.76 60.11 22.5 58.49C21.99 55.28 21.08 51.95 21.5 48.82C22.22 43.43 23.62 38.1 25.12 32.86C26.37 28.48 26.66 24.27 25.02 19.99H43.62C43.81 20.95 43.9 21.95 44.2 22.88C45.44 26.73 45.35 30.5 44.11 34.36C42.65 38.91 41.15 43.49 40.19 48.16C39.65 50.8 39.85 53.72 40.29 56.41C40.75 59.23 41.89 61.94 42.61 64.28C47.77 65.32 52.7 66.52 57.7 67.24C60.1 67.58 62.79 67.51 65.06 66.75C75.99 63.12 87 62.63 98.04 65.75C103.81 67.38 109.38 67.92 115.03 65.59L115 65.6Z" fill="black"/>
</svg>
