<svg width="122" height="122" viewBox="0 0 122 122" fill="none" xmlns="http://www.w3.org/2000/svg">
<path d="M122 61C122 94.7 94.7 122 61 122C27.3 122 0 94.7 0 61C0 27.3 27.3 0 61 0C94.7 0 122 27.3 122 61Z" fill="#BABABA"/>
<path d="M58.49 44.73H48.64V107.58H28.84V44.73H19L38.75 14.67L58.49 44.73Z" fill="black"/>
<path d="M74.3599 43.7H64.5099V81.26L44.7099 106.55V43.7H34.8699L54.6199 13.64L74.3599 43.7Z" fill="black"/>
<path d="M43.81 109.16V44.6H33.2L54.6199 12L76.0299 44.6H65.4199V81.56L43.82 109.15L43.81 109.16ZM36.54 42.8H45.61V103.94L63.61 80.95V42.8H72.6899L54.6199 15.28L36.54 42.8Z" fill="#BABABA"/>
<path d="M70.4398 95.53V84.61C67.1698 84.78 61.8398 85.76 57.5998 89.85C53.6298 93.68 50.2998 101.77 48.7298 108.32H28.5398C29.3798 104.75 33.4298 85.67 42.9398 76.5C52.0398 67.72 62.8898 64.56 70.4398 64.45V56.04L100.5 75.79L70.4398 95.53Z" fill="black"/>
<path d="M49.4499 109.22H27.4099L27.7999 107.57C31.2699 92.47 36.1599 81.8 42.3299 75.86C53.1499 65.43 65.0099 63.8 69.5499 63.58V54.38L102.15 75.8L69.5499 97.21V85.59C66.6099 85.87 61.9499 86.92 58.2399 90.51C54.3799 94.23 51.1299 102.25 49.6199 108.54L49.4499 109.23V109.22ZM29.6799 107.41H48.0399C49.5699 101.4 52.7399 93.28 56.9899 89.19C61.5499 84.79 67.3499 83.86 70.3999 83.7L71.3499 83.65V93.85L98.8699 75.78L71.3499 57.7V65.33H70.4599C66.9699 65.39 54.7199 66.39 43.5699 77.14C39.5499 81.02 33.8899 89.41 29.6799 107.41Z" fill="#BABABA"/>
</svg>
