<svg width="122" height="122" viewBox="0 0 122 122" fill="none" xmlns="http://www.w3.org/2000/svg">
<g clip-path="url(#clip0_5072_6006)">
<path d="M122 61C122 94.7 94.7 122 61 122C27.3 122 0 94.7 0 61C0 27.3 27.3 0 61 0C94.7 0 122 27.3 122 61Z" fill="#BABABA"/>
<path d="M15.1371 42.0479L15.2405 42.358L15.4472 42.1513L61.6551 15.8945L107.553 42.1513L107.76 42.358L107.863 42.0479L108.897 40.3939L109 40.1872L108.793 40.0838L61.8618 13.1034L61.6551 13L61.5517 13.1034L14.2067 40.0838L14 40.1872L14.1034 40.3939L15.1371 42.0479Z" fill="black"/>
<path d="M61.8618 18.8923L61.6551 18.7889L61.5517 18.8923L14.2067 45.8727L14 45.976L14.1034 46.1828L15.1371 47.9401L15.2405 48.1469L15.4472 48.0435L61.6551 21.6833L107.553 48.0435L107.76 48.1469L107.863 47.9401L108.897 46.1828L109 45.976L108.793 45.8727L61.8618 18.8923Z" fill="black"/>
<path d="M61.8618 24.5778L61.6551 24.4744L61.5517 24.5778L14.2067 51.5582L14 51.6616L14.1034 51.8683L15.1371 53.5223L15.2405 53.8324L15.4472 53.6256L61.6551 27.2655L107.553 53.6256L107.76 53.8324L107.863 53.5223L108.897 51.8683L109 51.6616L108.793 51.5582L61.8618 24.5778Z" fill="black"/>
<path d="M92.2535 69.6486V73.1633C90.4961 74.4037 88.1186 73.4734 87.0848 72.7498C86.4646 72.3363 85.9477 71.1992 85.8444 69.8553C85.6376 68.2013 86.0511 66.5474 86.8781 65.2035C88.5321 62.6192 93.7007 64.2732 93.7007 64.2732L93.9075 64.3765L94.6311 61.999L94.4243 61.8956C94.1142 61.7922 87.395 59.7247 84.7073 63.8597C82.6398 67.1676 82.6398 72.8531 85.6376 74.8172C86.9815 75.7476 88.6354 76.2645 90.186 76.2645C91.7366 76.2645 93.1839 75.7476 94.321 74.7139L94.7345 74.3004V69.6486H92.2535Z" fill="black"/>
<path d="M27.1283 61.7922H26.9216V62.1023V67.271H20.9259V62.1023V61.7922H20.7192H18.7551H18.5483V62.1023V75.7476V76.0577H18.7551H20.7192H20.9259V75.7476V69.7519H26.9216V75.7476V76.0577H27.1283H29.0924H29.4025V75.7476V62.1023V61.7922H29.0924H27.1283Z" fill="black"/>
<path d="M44.495 76.0577H44.7018V75.851V70.2688H46.5625L50.1805 76.1611L50.2839 76.3678L50.4907 76.2645L52.1446 75.2307L52.3514 75.1273L52.248 74.8172L48.9401 69.3385C49.767 68.6148 50.6974 67.4777 50.6974 65.7204C50.6974 62.5158 49.1468 61.7922 46.6659 61.7922C46.0456 61.7922 45.4254 61.7922 45.0119 61.7922C44.0815 61.7922 43.668 61.7922 43.668 61.7922H43.4613H42.3242H42.1174V61.999V75.6442V76.0577H42.3242H44.495ZM44.7018 64.2732C44.8051 64.2732 44.9085 64.2732 45.1153 64.2732C45.5287 64.2732 46.0456 64.2732 46.6659 64.2732C48.2165 64.3765 48.3198 64.3765 48.3198 65.7204C48.3198 66.7541 47.4928 67.3744 46.976 67.6845H44.7018V64.2732Z" fill="black"/>
<path d="M40.5668 76.0577V75.7476V73.7835V73.5767H40.3601H34.5712V69.7519H39.0162H39.223V69.4418V67.4777V67.271H39.0162H34.5712V64.0664H40.0499H40.2567V63.8597V61.8956V61.5854H40.0499H32.4003H32.0902V61.8956V63.8597V64.0664V67.271V67.4777V69.4418V69.7519V73.5767V73.7835V75.7476V76.0577H32.4003H40.3601H40.5668Z" fill="black"/>
<path d="M105.795 73.5767H100.006V69.7519H104.452H104.762V69.4418V67.4777V67.271H104.452H100.006V64.0664H105.485H105.692V63.8597V61.8956V61.5854H105.485H97.8356H97.5255V61.8956V63.8597V64.0664V67.271V67.4777V69.4418V69.7519V73.5767V73.7835V75.7476V76.0577H97.8356H105.795H106.002V75.7476V73.7835V73.5767H105.795Z" fill="black"/>
<path d="M63.7224 91.0468C64.5494 90.3232 65.4798 89.1861 65.4798 87.4288C65.4798 84.2242 63.9292 83.5006 61.4482 83.5006C60.828 83.5006 60.2077 83.5006 59.7942 83.5006C58.8639 83.5006 58.5538 83.5006 58.4504 83.5006H58.2436H57.1065H56.8998V83.7073V97.3526V97.7661H57.1065H59.0706H59.2774V97.5593V91.9772H61.1381L64.7561 97.8695L64.8595 98.0762L65.0663 97.9728L66.7202 96.9391L66.927 96.8357L66.8236 96.629L63.7224 91.0468ZM59.5875 85.9815C59.6909 85.9815 59.7942 85.9815 60.001 85.9815C60.4145 85.9815 60.9313 85.9815 61.5516 85.9815C63.1022 86.0849 63.2055 86.0849 63.2055 87.4288C63.2055 88.4625 62.3786 89.0827 61.8617 89.3929H59.5875V85.9815Z" fill="black"/>
<path d="M38.396 83.5006C37.6724 83.5006 37.1555 83.5006 36.742 83.5006C36.0184 83.5006 35.6049 83.5006 35.5015 83.5006H35.2948H34.2611H34.0543V83.7073V97.3526V97.7661H34.2611H36.2252H36.4319V97.5593V91.9772H39.1196L39.3264 91.8738C39.4297 91.8738 42.3242 90.6333 42.3242 87.5321C42.4276 84.3276 40.7736 83.604 38.396 83.5006ZM36.4319 85.9815C36.5353 85.9815 36.6387 85.9815 36.8454 85.9815C37.2589 85.9815 37.7758 85.9815 38.396 85.9815C39.9466 86.0849 40.05 86.0849 40.05 87.4288C40.05 88.4625 39.223 89.0827 38.7061 89.3929H36.4319V85.9815Z" fill="black"/>
<path d="M54.3155 61.7922H54.1088V62.1023V75.7476V76.0577H54.3155H56.2796H56.5897V75.7476V62.1023V61.7922H56.2796H54.3155Z" fill="black"/>
<path d="M62.792 64.0664V75.7476V76.0577H62.9988H64.9629H65.1696V75.7476V64.0664H69.6147H69.8214V63.8597V61.8956V61.5854H69.6147H58.347H58.0369V61.8956V63.8597V64.0664H58.347H62.792Z" fill="black"/>
<path d="M67.4439 83.6039H67.2372V83.9141V85.8782V86.0849H67.4439H71.889V97.7661V98.0762H72.1991H74.1632H74.3699V97.7661V86.0849H78.815H79.0217V85.8782V83.9141V83.6039H78.815H67.4439Z" fill="black"/>
<path d="M69.5114 75.2307L69.7181 75.3341L71.4754 76.0577L71.6822 76.1611L71.7856 75.9543L73.3362 72.3363H78.7116L80.1588 75.851L80.2622 76.0577L80.4689 75.9543L82.3296 75.2307L82.5364 75.1273V75.024L77.4711 62.1023L77.3677 61.8956H77.161H75.4036H75.1969L75.0935 62.1023L69.6147 75.024L69.5114 75.2307ZM74.4733 69.8553L76.2306 65.7204L77.8846 69.8553H74.4733Z" fill="black"/>
<path d="M50.3874 83.7073L50.284 83.5006H50.0772H48.3199H48.1131L48.0098 83.7073L42.531 96.629L42.4276 96.8357L42.6344 96.9391L44.3917 97.6627L44.5985 97.7661L44.7018 97.5593L46.2524 93.9413H51.6278L53.0751 97.456L53.2818 97.7661L53.4885 97.6627L55.3493 96.9391L55.556 96.8357L55.4526 96.629L50.3874 83.7073ZM50.8008 91.5637H47.3895L49.1469 87.4288L50.8008 91.5637Z" fill="black"/>
<path d="M88.6354 83.3972L88.4287 83.1905L88.2219 83.3972L84.8106 88.6693L81.8128 83.5006L81.7094 83.2939L81.3993 83.3972L79.7453 84.431L79.5386 84.5343L79.6419 84.7411L83.5701 91.2536V97.456V97.7661H83.7769H85.741H86.0511V97.456V91.357L90.2894 84.7411L90.4961 84.5343L90.2894 84.431L88.6354 83.3972Z" fill="black"/>
<path d="M60.4145 39.3602L62.3786 44.1153L64.2393 39.5669V39.4635C64.3427 39.1534 64.4461 38.9467 64.4461 38.6365C64.4461 37.4994 63.5157 36.5691 62.3786 36.5691C61.2415 36.5691 60.3112 37.4994 60.3112 38.6365C60.3112 38.9467 60.3112 39.1534 60.4145 39.3602Z" fill="black"/>
<path d="M67.3405 42.358C67.6507 42.2546 67.9608 42.0479 68.0641 41.8411C68.8911 41.0142 68.8911 39.6703 68.0641 38.9467C67.6507 38.5332 67.1338 38.3264 66.6169 38.3264C66.1001 38.3264 65.5832 38.5332 65.1697 38.9467C64.963 39.1534 64.8596 39.3602 64.7562 39.5669L62.7921 44.3221L67.3405 42.358Z" fill="black"/>
<path d="M68.5811 42.8748C68.3743 42.8748 68.0642 42.8748 67.8575 42.9782L63.1023 44.8389L67.6507 46.6996H67.7541C67.9608 46.803 68.271 46.9064 68.5811 46.9064C69.7182 46.9064 70.6485 45.976 70.6485 44.8389C70.6485 43.8052 69.7182 42.8748 68.5811 42.8748Z" fill="black"/>
<path d="M64.2393 50.4211L62.3786 45.6659L60.5179 50.2143V50.3177C60.4145 50.6278 60.3112 50.8346 60.3112 51.1447C60.3112 52.2818 61.2415 53.2122 62.3786 53.2122C63.5157 53.2122 64.4461 52.2818 64.4461 51.1447C64.4461 50.8346 64.3427 50.6278 64.2393 50.4211Z" fill="black"/>
<path d="M67.5473 47.4233L62.8955 45.3558L64.7562 49.9042V50.0076C64.8596 50.3177 64.963 50.5245 65.1697 50.7312C65.5832 51.1447 66.1001 51.3515 66.6169 51.3515C67.1338 51.3515 67.6507 51.1447 68.0642 50.7312C68.8912 49.9042 68.8912 48.6637 68.0642 47.8368C67.9608 47.63 67.754 47.5266 67.5473 47.4233Z" fill="black"/>
<path d="M57.1066 42.358L61.7584 44.4254L59.8977 39.877V39.7736C59.7943 39.4635 59.6909 39.2568 59.4842 39.05C59.0707 38.6365 58.5538 38.4298 58.0369 38.4298C57.5201 38.4298 57.0032 38.6365 56.5897 39.05C55.7627 39.877 55.7627 41.1175 56.5897 41.9445C56.6931 42.0479 56.8998 42.2546 57.1066 42.358Z" fill="black"/>
<path d="M56.1762 47.0098C56.383 47.0098 56.6931 46.9064 56.8998 46.9064L61.655 44.9423L57.1066 43.0816H57.0032C56.6931 42.9782 56.4863 42.8748 56.1762 42.8748C55.0391 42.8748 54.1088 43.8052 54.1088 44.9423C54.1088 46.0794 55.0391 47.0098 56.1762 47.0098Z" fill="black"/>
<path d="M57.3133 47.3199C57.0032 47.4233 56.6931 47.63 56.5897 47.8368C55.7627 48.6637 55.7627 50.0076 56.5897 50.7312C57.0032 51.1447 57.5201 51.3515 58.0369 51.3515C58.5538 51.3515 59.0707 51.1447 59.4842 50.7312C59.6909 50.5245 59.7943 50.3177 59.8977 50.111L61.8618 45.3558L57.3133 47.3199Z" fill="black"/>
</g>
<defs>
<clipPath id="clip0_5072_6006">
<rect width="122" height="122" fill="white"/>
</clipPath>
</defs>
</svg>
