<svg width="122" height="122" viewBox="0 0 122 122" fill="none" xmlns="http://www.w3.org/2000/svg">
<path d="M61 122C94.6894 122 122 94.6894 122 61C122 27.3106 94.6894 0 61 0C27.3106 0 0 27.3106 0 61C0 94.6894 27.3106 122 61 122Z" fill="#BABABA"/>
<path d="M63.8252 50.1105C65.5872 52.4937 67.6995 54.5592 69.8819 56.5652C69.9119 56.595 69.952 56.6049 69.992 56.6148C68.7907 54.7678 67.7195 52.881 67.1989 50.7262C67.239 50.7361 67.239 50.7659 67.259 50.7957C68.2201 51.9575 69.1611 53.1491 70.1622 54.2812C71.2334 55.5026 72.4047 56.6347 73.6961 57.6277C73.7662 57.6873 73.8663 57.7171 73.9464 57.7568C73.5059 57.1312 73.0454 56.5155 72.6349 55.8601C71.5137 54.1025 70.7829 52.1958 70.5526 50.1105C70.3524 48.2436 70.5026 46.3866 70.903 44.5495C71.2334 43.06 71.6038 41.5704 71.9041 40.071C72.1945 38.5715 72.3046 37.0522 72.1844 35.5229C72.1644 35.2548 72.1444 34.9867 72.1144 34.7086C72.1844 34.7484 72.2245 34.798 72.2545 34.8477C72.725 35.7215 73.1956 36.5954 73.6761 37.4593C74.4469 38.8496 75.1377 40.2795 75.5582 41.8187C75.9286 43.199 76.0788 44.5893 75.8785 46.0093C75.7284 47.0718 75.408 48.0748 75.0376 49.0777C74.2668 51.1134 74.0565 53.2187 74.3068 55.3735C74.4369 56.4559 74.6672 57.5185 75.1277 58.5115C75.1577 58.5711 75.1878 58.6207 75.2478 58.73C75.2478 57.3497 75.428 56.0488 75.7083 54.7678C76.1989 52.5533 76.9998 50.4382 77.9108 48.3628C78.6216 46.7243 79.3023 45.0758 79.7328 43.338C79.8529 42.8415 79.943 42.3351 80.0431 41.8088C80.0732 41.8882 80.0932 41.9379 80.1032 41.9875C80.3835 42.9408 80.5037 43.9041 80.4536 44.8971C80.3835 46.2873 80.1232 47.6378 79.6027 48.9288C79.1021 50.1403 78.8318 51.3915 78.7717 52.6924C78.7017 54.2216 78.8919 55.7112 79.2623 57.1908C79.3924 57.6972 79.5526 58.2037 79.7028 58.7101C79.7228 58.7101 79.7428 58.7002 79.7628 58.7002C79.7328 56.6744 80.1432 54.7281 80.804 52.8314C81.1243 54.6784 81.755 56.4063 82.7261 58.0646C82.7461 57.6674 82.7662 57.3298 82.7862 56.9822C82.8863 55.5523 83.1466 54.1521 83.7873 52.8512C84.2578 51.8979 84.8685 51.034 85.5192 50.1999C86.5403 48.8891 87.6015 47.5981 88.5726 46.2575C89.7539 44.629 90.3445 42.7819 90.3345 40.7562C90.3245 39.1475 89.9341 37.6182 89.3334 36.1386C88.4024 33.8149 87.141 31.67 85.7695 29.5747C85.4091 29.0285 85.0287 28.5121 84.6582 27.9759C84.6482 27.956 84.6482 27.9362 84.6382 27.9163C84.6282 27.9263 84.6182 27.9362 84.6182 27.9362C84.6282 27.956 84.6382 27.966 84.6482 27.9858C84.6783 28.0752 84.6983 28.1646 84.7383 28.254C85.1688 29.2966 85.5392 30.3592 85.7995 31.4614C86.1699 33.09 86.28 34.7186 86.0197 36.3769C85.8195 37.6083 85.4291 38.79 84.9786 39.9518C84.9386 40.061 84.8885 40.1802 84.8585 40.2497C84.7984 39.3063 84.7584 38.3431 84.6582 37.3799C84.4981 35.8407 84.1377 34.3511 83.4769 32.941C82.5559 30.9947 81.3546 29.2172 80.0431 27.5092C78.8919 26.0097 77.7306 24.5301 76.6494 22.9909C75.4581 21.2829 74.5771 19.4259 74.1767 17.3604C74.0966 16.9334 74.0365 16.4965 73.9564 16C72.9553 18.3634 72.4147 20.7566 72.3747 23.2789C71.6038 22.2064 70.9531 21.0744 70.4425 19.8629C69.932 18.6415 69.6116 17.3803 69.4414 16.0695C67.7796 20.1111 67.4392 24.2024 68.9008 28.3731C68.8808 28.383 68.8708 28.4029 68.8508 28.4128C68.7607 28.3036 68.6605 28.1944 68.5704 28.0851C68.5805 28.1944 68.5704 28.3036 68.6005 28.4029C68.8408 29.5648 68.9809 30.7365 68.8508 31.9282C68.7807 32.5538 68.6505 33.1694 68.5504 33.795C68.5304 33.795 68.5004 33.795 68.4804 33.795C67.8497 31.2529 66.6383 29.0186 64.8263 27.0723C64.8964 27.4099 64.9765 27.6879 65.0165 27.9759C65.0666 28.2639 65.0966 28.5618 65.1066 28.8498C65.2067 31.3423 64.7763 33.7355 63.685 36.0095C63.0543 37.3302 62.4637 38.6807 61.9331 40.0412C61.2724 41.7393 61.0922 43.4969 61.5026 45.2943C61.9131 47.0718 62.754 48.6507 63.8252 50.1105ZM90.6649 61.8381C90.5047 62.4935 90.1443 63.0695 89.7439 63.5958C88.4725 65.2641 87.0609 66.8132 85.5592 68.2829C83.6772 70.12 81.6449 71.7783 79.4425 73.2083C78.8718 73.5757 78.2912 73.9233 77.7106 74.2708C77.5504 74.3701 77.3702 74.4297 77.2 74.5092C77.18 74.4893 77.16 74.4595 77.1399 74.4396C77.3301 74.251 77.5304 74.0722 77.7206 73.8835C79.6527 72.0067 81.5348 70.0803 83.2167 67.975C83.517 67.5977 83.7673 67.1806 84.0175 66.7635C84.0776 66.6642 84.0376 66.5153 84.0376 66.3862C83.9174 66.3862 83.7873 66.3564 83.6872 66.3961C81.9152 67.0714 80.0932 67.5182 78.2111 67.7169C76.8496 67.8658 75.4881 67.985 74.1266 68.0247C72.0143 68.0843 69.962 67.6473 67.9498 67.0317C67.1389 66.7834 66.338 66.5252 65.5271 66.277C65.417 66.2472 65.3068 66.2075 65.1967 66.2075C64.9064 66.1876 64.7262 66.416 64.8363 66.6841C64.9865 67.0515 65.1567 67.409 65.2868 67.7864C65.3869 68.0743 65.467 68.3822 65.477 68.6801C65.487 69.1468 65.2067 69.4745 64.8563 69.7625C64.6761 69.9114 64.4859 70.0703 64.3157 70.2292C63.8352 70.686 63.7451 71.2123 64.0054 71.8181C64.3258 72.5728 64.7763 73.2381 65.2668 73.8935C65.427 74.1119 65.6072 74.3205 65.7673 74.529C66.8385 75.8795 66.9386 77.3194 66.1277 78.8189C65.477 80.0105 64.6361 81.0731 63.7151 82.0661C61.7129 84.221 59.5405 86.1971 57.328 88.1434C54.0644 91.0133 50.6506 93.7044 47.1768 96.316C42.9021 99.5235 38.3971 102.374 33.792 105.075C33.2914 105.372 32.7809 105.66 32.2803 105.948C32.1802 105.978 32.1001 106.008 32 105.998C32.6107 105.452 33.2314 104.906 33.842 104.36C36.0044 102.443 38.1868 100.536 40.3392 98.6099C42.9821 96.2465 45.6251 93.8831 48.248 91.4999C49.7897 90.0997 51.3114 88.6598 52.833 87.2298C53.8442 86.2765 54.8453 85.3232 55.8163 84.3302C57.8386 82.2548 59.8608 80.1694 61.6328 77.8755C62.0032 77.3889 62.3235 76.8726 62.1834 76.237C62.1033 75.8795 61.9732 75.5121 61.7729 75.2142C61.2423 74.4595 60.6617 73.7445 60.1011 73.0097C59.6706 72.4437 59.2001 71.9074 58.8497 71.3017C58.2791 70.3384 58.4593 69.5341 59.3302 68.8191C59.7107 68.5013 60.1111 68.2134 60.4815 67.8857C61.2023 67.2303 61.3925 66.4259 61.0621 65.5223C60.7618 64.708 60.4014 63.9136 60.071 63.0993C59.7407 62.2751 59.5405 61.4211 59.6506 60.5273C59.7307 59.8719 60.051 59.5641 60.7218 59.5542C61.3925 59.5542 62.0332 59.723 62.6439 59.9911C64.4259 60.7756 66.2078 61.57 67.9798 62.3545C69.8218 63.1688 71.7139 63.7944 73.7061 64.1221C75.438 64.4101 77.19 64.4697 78.9419 64.3207C81.7751 64.0724 84.438 63.2184 87.0309 62.0864C87.7517 61.7686 88.4825 61.4608 89.2233 61.1927C89.4936 61.0934 89.8039 61.0636 90.0943 61.0636C90.5448 61.0636 90.785 61.3813 90.6649 61.8381Z" fill="black"/>
</svg>
