<svg width="122" height="122" viewBox="0 0 122 122" fill="none" xmlns="http://www.w3.org/2000/svg">
<path d="M61.0001 122C94.6895 122 122 94.6894 122 61C122 27.3106 94.6895 0 61.0001 0C27.3108 0 0.00012207 27.3106 0.00012207 61C0.00012207 94.6894 27.3108 122 61.0001 122Z" fill="#D6B429"/>
<path d="M96.0697 94.07C96.0697 94.07 95.9798 94.05 95.9398 94.04C95.8598 94.02 95.7698 94 95.6898 93.97C95.6698 93.97 95.6598 93.97 95.6398 93.96C95.4298 93.9 95.2299 93.84 95.0299 93.77C94.9299 93.74 94.8399 93.7 94.7499 93.67C94.7399 93.67 94.7198 93.66 94.7098 93.65C94.6298 93.62 94.5499 93.59 94.4698 93.55C94.4499 93.55 94.4298 93.53 94.4098 93.52C94.3398 93.49 94.2698 93.46 94.1998 93.42C94.1798 93.41 94.1598 93.4 94.1298 93.39C94.0698 93.36 93.9998 93.32 93.9398 93.29C93.9198 93.28 93.8897 93.26 93.8698 93.25C93.8098 93.22 93.7498 93.18 93.6998 93.15C93.6798 93.13 93.6498 93.12 93.6298 93.1C93.5798 93.06 93.5299 93.03 93.4799 92.99C93.4599 92.97 93.4298 92.95 93.4098 92.94C93.3598 92.9 93.3199 92.87 93.2699 92.83C93.2499 92.81 93.2198 92.79 93.1998 92.77C93.1598 92.73 93.1197 92.69 93.0797 92.65C93.0597 92.63 93.0399 92.61 93.0199 92.58C92.9799 92.54 92.9498 92.49 92.9098 92.45C92.8898 92.43 92.8697 92.4 92.8497 92.38C92.8097 92.33 92.7799 92.28 92.7499 92.23C92.7399 92.21 92.7198 92.19 92.7098 92.17C92.6698 92.1 92.6297 92.02 92.5997 91.95C92.0997 90.81 91.4598 89.3 90.6898 87.5C90.6198 87.34 90.5499 87.17 90.4799 87C89.6899 85.14 88.7899 83 87.7899 80.64C87.6999 80.43 87.6099 80.21 87.5199 79.99C87.3399 79.55 87.1498 79.11 86.9598 78.66C86.8698 78.44 86.7698 78.21 86.6698 77.98C85.8998 76.16 85.0999 74.23 84.2599 72.23C83.9499 71.48 83.6297 70.72 83.3097 69.95C83.0997 69.44 82.8798 68.92 82.6598 68.4C81.8998 66.58 81.1197 64.72 80.3297 62.83C80.0997 62.29 79.8798 61.75 79.6498 61.21C79.5398 60.94 79.4197 60.67 79.3097 60.39C79.0797 59.85 78.8498 59.3 78.6298 58.75C77.9498 57.11 77.2597 55.46 76.5697 53.81C76.3397 53.26 76.1098 52.71 75.8798 52.16C75.1998 50.52 74.5097 48.88 73.8397 47.26C73.3897 46.18 72.9499 45.11 72.4999 44.05C66.1099 28.7 60.7599 15.79 60.7599 15.79C60.7599 15.79 34.6898 78.64 28.9198 91.93C27.8298 94.45 21.7599 94.51 21.7599 94.51V98.16H36.4799C41.4699 87.25 50.4799 79.97 60.7599 79.97C61.0799 79.97 61.3998 79.97 61.7198 79.99C62.3598 80.02 62.9897 80.07 63.6198 80.16C63.9298 80.2 64.2397 80.25 64.5497 80.31C65.4797 80.48 66.3997 80.7 67.2997 80.98C67.5997 81.07 67.8998 81.17 68.1898 81.28C68.7798 81.49 69.3698 81.73 69.9398 81.99C70.5098 82.25 71.0798 82.54 71.6398 82.85C72.4798 83.31 73.2997 83.83 74.0897 84.39C74.3597 84.58 74.6198 84.77 74.8798 84.97C75.3998 85.37 75.9098 85.79 76.4098 86.23C76.6598 86.45 76.9098 86.67 77.1498 86.9C77.6398 87.36 78.1097 87.84 78.5797 88.34C78.8097 88.59 79.0399 88.84 79.2699 89.1C81.5299 91.69 83.4799 94.74 85.0399 98.15H99.7599V94.5C99.7599 94.5 97.9197 94.48 96.0797 94.04L96.0697 94.07ZM47.3698 74.19L60.7599 41.78L74.1498 74.19C69.9898 72.26 65.4699 71.2 60.7599 71.2C56.0499 71.2 51.5398 72.25 47.3698 74.19Z" fill="black"/>
</svg>
