<svg width="122" height="122" viewBox="0 0 122 122" fill="none" xmlns="http://www.w3.org/2000/svg">
<path d="M61.0002 122C94.6896 122 122 94.6894 122 61C122 27.3106 94.6896 0 61.0002 0C27.3109 0 0.000244141 27.3106 0.000244141 61C0.000244141 94.6894 27.3109 122 61.0002 122Z" fill="#EDAE8E"/>
<path d="M81.5905 62.9794C82.2605 63.7094 82.6504 64.5895 83.0004 65.4995C83.0904 65.7295 83.1105 65.9694 83.1705 66.2294C82.6405 66.3994 82.2804 66.1094 81.9104 65.9494C81.5804 65.8094 81.2905 65.5794 80.9605 65.4494C80.3805 65.2094 80.0205 64.7594 79.6705 64.2694C79.3405 63.8194 79.3404 63.3195 79.3904 62.8195C78.9704 62.4795 78.5105 62.5794 78.0805 62.6194C77.2005 62.7094 76.3205 62.8495 75.4405 62.9695C74.6305 63.0895 73.9204 63.4894 73.2604 63.9294C72.6104 64.3594 71.9004 64.7194 71.3904 65.3394C70.9904 65.8294 70.4705 66.2194 70.1205 66.7394C69.3905 67.8194 68.7304 68.9595 68.0405 70.0695C67.6205 70.7495 67.1604 71.4095 66.7604 72.0995C66.5904 72.3795 66.5204 72.7194 66.4004 73.0294C66.3704 73.0494 66.3304 73.0594 66.3804 73.0394C66.3604 73.0894 66.3804 73.0494 66.3804 73.0094C67.5104 72.4194 68.6205 71.7994 69.9205 71.5794C70.7205 71.4494 71.5005 71.1094 72.3005 70.9794C73.3505 70.8194 74.4205 70.7295 75.4805 70.7195C76.9705 70.7095 78.4705 70.7494 79.9605 70.8694C81.2305 70.9594 82.4904 71.1895 83.7604 71.3495C83.9704 71.3795 84.1904 71.3394 84.4004 71.3694C84.7504 71.4194 85.1005 71.4994 85.4505 71.5594C85.5505 71.5794 85.6604 71.5994 85.7604 71.6094C87.1004 71.7094 88.4404 71.7894 89.7704 71.8994C90.0604 71.9194 90.3506 71.9795 90.6506 72.0294C90.7506 71.6994 90.8306 71.4295 90.9106 71.1295C90.4406 70.6495 89.9205 70.1694 89.8105 69.3294C90.0105 68.5494 90.4404 67.7994 91.0004 67.1194C91.0904 67.0094 91.1504 66.8694 91.2304 66.7495C91.3371 66.5695 91.5804 66.5061 91.9604 66.5594C92.2904 67.5894 92.6304 68.6694 92.9804 69.7594C93.8804 70.1794 94.8705 70.5394 95.0805 71.7394C95.0305 71.7794 94.9806 71.8195 94.9306 71.8495C94.9106 71.8795 94.8906 71.9094 94.9106 71.8694C94.9106 71.9094 94.9106 71.8694 94.9106 71.8294C94.9606 71.7894 95.0105 71.7495 95.0605 71.7195C95.1305 71.4395 95.2004 71.1594 95.2604 70.9194C92.8304 69.1494 93.2905 68.1894 93.8105 66.5094C94.1105 66.3494 94.3504 66.5095 94.5304 66.7195C94.9004 67.1495 95.2505 67.5994 95.5805 68.0594C95.7705 68.3294 95.8905 68.6495 96.0705 68.9395C96.3005 69.3195 96.2504 69.6494 96.0104 70.0094C95.8504 70.2594 95.7806 70.5794 95.6706 70.8694C95.7306 70.8894 95.7805 70.9095 95.8405 70.9395C96.0705 70.3795 96.2904 69.8094 96.5204 69.2394C96.8304 69.1194 97.0704 69.1394 97.1904 69.5194C97.3404 69.2794 97.4805 69.0495 97.6005 68.8495C97.5305 68.6395 97.4605 68.4495 97.3705 68.1895H99.0304C99.2104 67.5195 99.4005 66.7894 99.5905 66.0394C99.4605 65.9294 99.3304 65.8195 99.2104 65.7195C99.4104 64.3895 100.291 63.8894 101.371 63.6394C101.771 63.5494 102.161 63.4395 102.611 63.5995C103.291 63.8395 103.7 64.4194 103.54 65.1394C103.51 65.2794 103.471 65.4194 103.421 65.5894H104.05C104.18 66.5894 104.16 67.5594 103.79 68.4494C103.55 69.0294 103.021 69.4794 102.431 69.7894L102.45 69.7694C102.26 69.7794 102.071 69.7994 101.881 69.8094C101.081 70.7694 100.14 71.5594 99.0505 72.1494C99.6205 72.5994 100.17 73.0394 100.73 73.4794V73.9395C100.67 73.9895 100.63 74.0494 100.57 74.0594C100.15 74.1594 99.7406 74.2094 99.4106 73.8294C99.3506 73.7594 99.2205 73.7694 99.1105 73.7394C99.0105 73.7194 98.9005 73.6994 98.8005 73.6794C98.7605 73.6294 98.7106 73.5794 98.6706 73.5294C98.6606 73.5294 98.6506 73.5094 98.6405 73.5094C98.6506 73.5094 98.6606 73.4894 98.6706 73.4794C98.6706 73.4894 98.6904 73.4994 98.6904 73.5094C98.7304 73.5594 98.7705 73.6095 98.8205 73.6595L99.1205 73.7195C99.1605 73.8695 99.1704 74.0295 99.2504 74.1595C99.5304 74.6395 99.7704 75.1194 99.7104 75.7294C99.4204 75.7794 99.2104 75.7094 98.9504 75.5394C98.1704 75.0494 97.5605 74.4295 97.0705 73.6595C96.7905 73.2295 96.3405 73.2094 95.8705 73.2894C95.0205 73.4194 94.1605 73.5294 93.3005 73.6394C92.8005 73.6994 92.3004 73.7495 91.7504 73.8195C92.1804 74.3095 92.7504 74.4494 93.2804 74.6694C93.3304 74.7094 93.3806 74.7494 93.4306 74.7894C93.4306 74.8294 93.4504 74.8694 93.4404 74.8294C93.4804 74.8494 93.4406 74.8294 93.4106 74.8094C93.3606 74.7694 93.3104 74.7194 93.2704 74.6794C93.2904 74.5494 93.3105 74.4294 93.3205 74.3094C93.5705 74.1395 93.8105 73.9794 94.0805 73.7994C94.7605 73.6094 95.3204 74.0695 95.9604 74.1895C95.9604 74.9095 95.7705 75.0694 94.6005 75.2694C95.9805 75.4394 97.2105 76.0794 98.6405 75.7994C98.6506 76.0894 98.6606 76.2794 98.6706 76.4894C97.9206 76.6994 97.2204 76.6395 96.5304 76.5294C96.1304 76.4694 95.7405 76.4194 95.3405 76.3594C95.2805 76.3194 95.2306 76.2694 95.1706 76.2294C95.1606 76.2594 95.1405 76.2894 95.1305 76.3094C95.2105 76.3094 95.2805 76.3294 95.3605 76.3294C96.0805 76.9494 96.5604 77.7094 96.7204 78.6794C96.0704 78.9894 95.8105 78.3595 95.3705 78.1895C95.5905 78.8195 95.8504 79.4294 95.4904 80.1094C94.8004 79.8794 94.4605 79.3794 94.1205 78.8294C94.0605 79.0294 94.0204 79.1994 93.9604 79.3894H93.4404C93.2404 79.1394 93.1006 78.9095 92.9106 78.7195C92.4906 78.3195 92.3106 77.8094 92.1606 77.2694C92.1506 77.2294 92.1306 77.1794 92.1506 77.1394C92.4106 76.6194 92.3505 76.0595 92.3505 75.3495C91.8305 75.0595 91.2205 74.7195 90.6105 74.3795C90.5205 74.3495 90.4305 74.3094 90.3305 74.2794C90.3105 74.2495 90.3005 74.2195 90.3105 74.2495C90.2705 74.2295 90.3105 74.2494 90.3405 74.2594L90.6205 74.3594C91.4505 75.2394 91.2904 76.2394 91.0004 77.3094C90.8504 77.3194 90.6806 77.3394 90.4206 77.3594C89.9806 76.7394 89.5005 76.1294 89.1105 75.4594C88.9905 75.2594 89.0806 74.8995 89.1506 74.6295C89.2006 74.4395 89.3704 74.2694 89.5004 74.0894C89.4004 73.9794 89.3006 73.8694 89.1806 73.7394C87.9506 73.6994 86.7105 73.6494 85.4705 73.6094C84.1505 73.5594 82.8204 73.4994 81.5004 73.4594C80.1004 73.4194 78.6905 73.3594 77.2905 73.3594C76.0604 73.3594 74.8405 73.4095 73.6105 73.4995C72.9805 73.5395 72.3604 73.6894 71.7604 73.8394C71.5604 73.9394 71.3704 74.0894 71.1604 74.1194C70.0904 74.2594 69.1304 74.7694 68.2704 75.3294C67.2404 75.9994 66.2905 76.8794 66.1705 78.2594C66.1405 78.5494 66.1905 78.8494 66.2005 79.1394C66.2505 80.6194 66.2405 82.0995 66.3705 83.5695C66.4905 84.8795 66.4605 86.1994 66.7405 87.4995C66.9605 88.4894 67.0005 89.5294 67.1205 90.5394C67.2105 91.3594 67.2804 92.1894 67.4004 93.0094C67.4504 93.3894 67.6105 93.7495 67.7405 94.1895H60.2504C60.2304 94.0294 60.1905 93.8694 60.2005 93.7094C60.2805 90.9294 60.3905 88.1494 60.4405 85.3694C60.4805 83.3094 60.5505 81.2395 60.4205 79.1895C60.3405 77.9895 60.2005 76.7095 59.3405 75.7195C58.9205 75.2295 58.4704 74.7595 58.0004 74.3195C57.4704 73.8295 56.9205 73.3694 56.3405 72.9494C55.8105 72.5694 55.2304 72.2494 54.6504 71.9294C53.5704 71.3394 52.4605 70.8295 51.2405 70.5995C50.5905 70.4795 49.9505 70.3094 49.3105 70.1994C48.6905 70.0894 48.0504 70.0295 47.6304 69.9695C47.2004 70.3795 46.9205 70.6595 46.5705 70.9995C46.6505 72.4295 45.2104 73.2695 44.0304 73.3495C43.3904 73.3995 42.7504 73.3495 42.1504 73.3495C41.8504 73.0795 41.9705 72.8194 42.1005 72.6094C42.6305 71.7094 43.3705 71.0294 44.3505 70.6694C44.9505 70.4494 45.5905 70.3094 46.2105 70.0394C46.0805 70.0294 45.9505 69.9695 45.8305 69.9995C45.0105 70.1894 44.2004 70.4395 43.3804 70.5995C42.5704 70.7595 42.3105 71.4094 42.0705 72.0194C41.8505 72.5794 41.7105 73.1795 41.7405 73.8195C41.7605 74.3795 41.9305 74.8494 42.2105 75.3094C42.3305 75.5094 42.3805 75.7495 42.4705 75.9695C42.4205 76.0095 42.3705 76.0595 42.3205 76.0995C42.0705 75.9595 41.8104 75.8095 41.5404 75.6595C41.6004 76.6895 41.0505 77.5095 40.4905 78.3495C40.1705 78.4595 39.9605 78.3194 39.8605 78.0094C39.6005 77.1894 39.2705 76.3794 39.3205 75.4794C39.3605 74.7294 39.4405 74.4994 40.0705 73.9594C39.9705 73.2094 40.7905 72.8494 40.9505 72.1694C39.7105 73.0994 38.8804 74.3395 38.1504 75.6595C39.0704 76.3295 39.5005 77.2095 39.4405 78.3495C39.1805 78.2995 38.9504 78.2495 38.6504 78.1895C38.3104 77.7895 37.9205 77.3494 37.4405 76.7894C37.5305 77.1494 37.5504 77.4095 37.6504 77.6295C37.8704 78.1095 38.2105 78.5394 38.3305 79.0394C38.4505 79.4994 38.3605 80.0094 38.3605 80.5294H37.7604C37.3804 79.9894 36.9905 79.4494 36.6105 78.8994C36.5605 78.6794 36.5105 78.4594 36.4705 78.2394C36.5105 78.2294 36.5404 78.2194 36.5004 78.2294C36.5204 78.1994 36.5005 78.2294 36.4805 78.2594C36.4005 78.2594 36.3305 78.2594 36.1005 78.2794C36.3305 78.5494 36.4705 78.7194 36.6205 78.8994C36.6605 79.4694 36.4805 79.9895 36.2205 80.4695C36.0505 80.7795 35.9205 80.8494 35.4905 80.8994C35.1405 80.3094 35.0505 79.6494 35.0605 78.9294C34.7005 78.8994 34.3705 78.8794 33.9205 78.8394C33.9805 78.5794 34.0305 78.3694 34.0905 78.1094C35.5605 78.3294 36.3105 77.5994 36.6905 76.2394C36.3505 76.3294 36.0005 76.3494 35.7405 76.5094C35.1105 76.9094 34.4704 77.0494 33.7504 76.8594C33.5704 76.8094 33.3805 76.7894 33.2105 76.7594C33.2105 76.0194 33.7805 75.5194 35.0505 75.1394C35.3605 75.2494 35.7104 75.3694 36.1304 75.5094C36.3604 75.4994 36.6504 75.4895 37.0304 75.4695C37.0704 75.3995 37.1605 75.2394 37.3405 74.9294C36.2205 75.5894 35.4505 74.9695 34.5705 74.5695C34.5905 74.3895 34.6105 74.2194 34.6205 74.0494C35.1205 73.9394 35.5605 73.7294 35.9905 73.7594C36.4205 73.7894 36.8205 74.0694 37.2005 74.2294C37.2405 74.4994 37.2805 74.6995 37.3105 74.9095C37.8805 74.0395 38.4105 73.1995 38.9905 72.3195C38.9205 72.2595 38.7805 72.1494 38.6205 72.0294C38.3605 72.2594 38.1204 72.4594 37.8804 72.6694C37.3204 73.1394 36.6805 73.0594 36.0505 72.9194C35.4405 72.7894 34.8405 72.5794 34.2005 72.3994V71.8495C34.7205 71.5695 35.2005 71.2794 35.7105 71.0394C36.5805 70.6194 37.4005 70.7395 38.1905 71.2495C38.6405 71.3895 39.0905 71.5295 39.5705 71.6895C40.2705 71.1195 40.9805 70.5394 41.7405 69.9194C41.4205 69.8394 41.1405 69.7695 40.8505 69.6895C39.6205 71.1195 38.1904 70.6894 36.7804 70.2094C36.0604 69.9694 35.3905 69.5994 34.6705 69.2694V68.7394C35.6905 68.0594 36.8405 67.7594 37.9805 67.7294C38.9805 67.6994 39.9904 67.9894 40.5404 68.7094C41.1704 68.9794 41.6205 69.1894 42.0905 69.3694C42.2905 69.4394 42.5505 69.5094 42.7405 69.4494C43.4105 69.2394 44.0704 68.9594 44.6304 68.7495C43.8604 68.5695 42.9605 68.3394 42.0605 68.1394C40.9705 67.8994 39.8804 67.6495 38.7804 67.4395C38.4504 67.3795 38.1004 67.3995 37.7504 67.4095C36.4104 67.4495 35.0605 67.4695 33.7205 67.5695C33.2505 67.5995 32.8005 67.8395 32.3405 67.9695C31.9905 68.0695 31.6305 68.1495 31.3705 68.2195C31.5805 68.6595 31.8005 69.0994 31.9805 69.4894C31.8505 69.9894 31.7505 70.3994 31.6205 70.8894C31.3905 70.8694 31.1404 70.8494 30.8804 70.8294C30.8504 70.7294 30.8204 70.6294 30.7904 70.5394C30.6604 69.9794 30.5304 69.4095 30.4104 68.8495C30.4404 68.8295 30.4805 68.8194 30.4505 68.8294C30.4605 68.7994 30.4505 68.8294 30.4405 68.8694C30.1005 69.1594 30.1204 69.5694 30.0404 69.9594C30.3104 70.1594 30.5705 70.3394 30.8205 70.5194C30.8505 70.6194 30.8805 70.7194 30.9205 70.8094C31.0805 71.3694 31.3704 71.8994 31.2904 72.5594C30.5805 72.4894 30.1505 72.1494 29.8105 71.6494H29.7904C29.8004 71.6494 29.8105 71.6694 29.8305 71.6694C29.7105 71.8894 29.5805 72.1094 29.4205 72.3994C29.3705 72.3994 29.2304 72.3895 29.0004 72.3795C29.0404 71.6895 29.0705 71.0495 29.1105 70.3495C28.9305 70.3795 28.7605 70.4095 28.5705 70.4395C28.7405 71.2695 28.1805 71.6994 27.7005 72.1094C27.0205 72.6794 26.1404 72.8094 25.2804 72.9594C25.2204 72.9694 25.1404 72.8894 25.0404 72.8394C25.2104 71.7494 25.7505 70.8994 26.5505 70.2094C26.7305 70.0494 27.0105 69.9194 27.2405 69.9294C27.8105 69.9494 28.3205 69.7895 28.8305 69.5695C28.9505 69.5195 29.1005 69.5695 29.3105 69.5695C29.3305 69.3995 29.3604 69.1995 29.3904 68.9995C29.4204 68.9895 29.4605 68.9694 29.4205 68.9894C29.4405 68.9494 29.4204 68.9894 29.4104 69.0194C28.8704 69.1494 28.3304 69.2794 27.7804 69.3994C27.1004 69.5494 26.4105 69.6794 25.7105 69.8294C25.6305 70.9894 24.6305 71.0894 23.8705 71.4494C23.3105 71.1494 23.3004 70.9995 23.7704 69.9095H21.3105C21.8805 70.5695 21.9905 71.3095 22.0605 72.0695C21.2505 72.1795 20.4604 71.4995 20.0404 70.4095C20.3004 71.1695 20.1105 71.8995 19.8605 72.5995C19.6105 73.2895 19.3405 74.0394 18.4405 74.3694C17.9205 73.2194 17.7805 72.1194 18.2005 70.9594C18.2405 70.9194 18.2905 70.8694 18.3305 70.8294C18.3705 70.7894 18.4105 70.7394 18.4605 70.6994C18.5105 70.6594 18.5605 70.6194 18.6005 70.5794C18.9605 70.3994 19.3504 70.2394 19.5404 69.8394C19.5404 69.8394 19.5304 69.8395 19.5204 69.8495C19.2304 69.7795 18.9505 69.6994 18.7405 69.6494C18.6905 70.0294 18.6505 70.3094 18.6205 70.5894C18.5705 70.6294 18.5205 70.6694 18.4805 70.7094C18.4405 70.7494 18.4005 70.7994 18.3505 70.8394C18.3105 70.8794 18.2605 70.9295 18.2205 70.9695C17.8905 71.1195 17.5805 71.2995 17.2405 71.4095C17.0305 71.4795 16.7904 71.4495 16.5304 71.4695C16.4604 70.9495 16.6204 70.5594 16.9104 70.1994C17.0504 70.0294 17.1404 69.8195 17.2504 69.6295C17.3304 69.6295 17.4204 69.6394 17.5004 69.6494C17.5004 69.6294 17.5004 69.5994 17.5004 69.5794C17.4204 69.5994 17.3504 69.6194 17.2704 69.6394C17.0704 69.8294 16.8605 69.9994 16.6905 70.1994C15.8205 71.2094 14.7805 71.7694 13.3305 71.5494C13.4305 70.6494 13.9204 70.0095 14.5204 69.4395C14.6004 69.3495 14.6904 69.2694 14.7704 69.1794C14.9704 69.0794 15.1705 68.9894 15.4705 68.8394C15.2005 68.7694 15.0504 68.7295 14.8904 68.6895C14.8504 68.8695 14.8104 69.0295 14.7804 69.1895C14.5304 69.1195 14.4104 69.1694 14.5304 69.4494C14.4904 69.4294 14.4405 69.3894 14.4205 69.3994C13.6905 69.8294 12.9805 69.4795 12.2305 69.3795C12.2105 69.2195 12.1904 69.0794 12.1604 68.8394C12.6104 68.5594 13.0804 68.2594 13.5304 67.9894C12.5804 67.2694 11.5905 66.5095 10.6705 65.8195V65.1694C10.7605 65.2494 10.8105 65.2895 10.8505 65.3195C10.8505 65.3195 10.8704 65.3195 10.8804 65.3195C10.8704 65.3195 10.8505 65.3094 10.8405 65.2994C10.8405 65.2594 10.8805 65.2094 10.8705 65.1794C10.3705 64.0294 10.7605 62.8394 10.6805 61.6394C11.5605 62.1294 12.0405 62.9894 12.7005 63.7694C12.6805 63.4494 12.6604 63.1794 12.6504 62.8694C12.8604 62.8594 13.0605 62.8494 13.3505 62.8294C14.0005 63.5094 14.7305 64.1594 15.3205 64.9194C15.7505 65.4694 16.0305 66.1494 16.3105 66.7894C16.5205 67.2694 16.7705 67.6894 17.1705 68.0194C17.2805 68.0394 17.4004 68.0495 17.5104 68.0695C17.5104 68.1095 17.5104 68.1494 17.5104 68.1194C17.5304 68.1494 17.5105 68.1194 17.4905 68.0894C17.3805 68.0794 17.2704 68.0594 17.1604 68.0494C17.3204 67.7494 17.0805 67.5894 16.9405 67.3894C16.7905 67.1694 16.6304 66.9394 16.5304 66.6994C16.4804 66.5594 16.5405 66.3794 16.5605 66.1494C16.9205 66.2694 17.1905 66.3495 17.4605 66.4395C17.4805 66.4695 17.5005 66.4995 17.4805 66.4695C17.5205 66.4795 17.4805 66.4695 17.4505 66.4695C17.2205 66.0795 17.0004 65.6894 16.7504 65.2495C17.4204 65.0294 17.9705 65.2095 18.4705 65.3495C19.1705 65.5495 19.8905 65.7695 20.4305 66.3195C20.6005 66.4995 20.7805 66.6795 20.9405 66.8795C21.4105 67.4795 21.8604 68.0794 22.2904 68.6394C23.0904 68.6394 23.8405 68.7795 24.4905 68.5995C25.1705 68.4095 25.8604 68.4194 26.5304 68.2294C27.1004 68.0694 27.7004 68.0195 28.2604 67.8495C28.7704 67.6995 29.2604 67.4594 29.7704 67.2495C29.4604 67.1194 29.1305 66.9795 28.8105 66.8495C28.0805 67.4395 27.3505 67.9894 26.3705 67.8394C25.8305 67.7594 25.3204 67.5394 24.7904 67.3894C24.2804 67.2494 23.7905 67.0895 23.3605 66.7495C23.1705 66.5994 22.8905 66.5795 22.5805 66.4695V65.7495C23.5905 65.4594 24.5404 65.1194 25.5304 64.9294C26.0504 64.8294 26.6204 64.9894 27.1504 65.0394C26.7004 64.4194 26.8805 63.6694 26.9405 62.9194C26.6905 63.0994 26.4504 63.3294 26.1604 63.4494C25.5104 63.7194 24.8104 63.6594 24.1404 63.5394C23.6004 63.4394 23.0804 63.2495 22.5304 63.0995V62.5494C23.1004 62.1794 23.6604 61.7594 24.2704 61.4494C24.9804 61.0794 25.7305 60.9895 26.4505 61.4695C26.4905 61.4795 26.5205 61.4895 26.4705 61.4695C26.5205 61.4495 26.4705 61.4694 26.4405 61.4794C26.4405 61.3794 26.4805 61.2494 26.4305 61.1994C26.1205 60.8894 25.7804 60.5994 25.3904 60.2394C23.9304 60.6594 22.4005 61.1094 20.8105 61.5594C20.6505 60.8394 21.1005 60.4095 21.5605 59.9695C22.0305 59.5195 22.5705 59.3294 23.2005 59.2294C23.9105 59.1094 24.3605 59.6395 25.0705 59.8195C24.5005 59.0095 24.0104 58.2894 23.5204 57.5794H22.9405C22.6405 58.1194 22.1004 58.2394 21.5304 58.1994C20.8804 58.1494 20.2605 58.0395 19.6805 57.6295C19.0205 57.1595 18.2404 56.8395 17.5004 56.4395V55.8495C17.5704 55.8195 17.6205 55.7894 17.6805 55.7794C18.3405 55.6494 19.0005 55.4394 19.6705 55.4194C20.7505 55.3894 21.8404 55.4694 22.6504 56.3694C22.8204 56.5494 23.0604 56.6695 23.2604 56.8195C23.2604 56.8595 23.2804 56.9094 23.2604 56.8394C23.3204 56.8394 23.2805 56.8394 23.2405 56.8394C23.1205 56.4494 23.0104 56.0695 22.9004 55.6895C21.9604 55.5095 21.1404 55.1495 20.5104 54.4695C20.1804 54.1095 20.1805 54.0294 20.2205 53.3694C20.8605 53.0794 21.5505 53.0595 22.2405 53.0695C22.2605 53.0995 22.2704 53.1294 22.2504 53.0894C22.3004 53.0994 22.2605 53.0894 22.2305 53.0894C22.0405 53.0394 21.8505 52.9494 21.6705 52.9594C20.9905 52.9794 20.4305 52.7694 19.9605 52.2694C19.5805 51.8694 19.1804 51.4994 18.7904 51.1094C18.5804 50.8994 18.4104 50.6794 18.7504 50.3594C20.2004 50.3694 21.4605 50.8394 22.3605 52.1494C22.2005 50.5694 22.0305 48.9994 21.4805 47.5094C19.7705 46.6694 18.9705 44.9994 19.2005 42.6094C20.4105 43.1594 21.1204 44.1594 21.8804 45.1994C22.0704 45.0394 22.3005 44.8295 22.5605 44.5995C22.7005 44.6495 22.8604 44.6995 23.0004 44.7495C23.4004 46.1595 22.7305 46.9394 21.9605 47.1994C22.8005 48.3194 22.7505 49.7094 23.2305 50.9494C23.5705 50.8694 23.6904 50.2094 24.2904 50.4494C24.5804 51.2094 24.4805 51.9495 24.1005 52.7495C23.8705 52.8295 23.6005 52.9294 23.3505 53.0194C23.3805 53.2094 23.4105 53.4194 23.4505 53.6694C23.6805 53.3394 23.9304 53.0994 24.3904 53.2394C24.4604 53.3794 24.5604 53.5595 24.6504 53.7495C24.9504 51.3295 25.4505 50.1994 26.4205 49.9894C26.6505 50.4894 26.9204 51.0094 27.1404 51.5494C27.5004 52.4394 27.6205 53.3894 27.5505 54.3394C27.4805 55.2594 26.9905 55.9594 26.2005 56.4294C25.9405 56.5894 25.7705 56.7695 25.7105 57.0995C25.6405 57.4795 25.4705 57.8294 25.3005 58.2994C25.7705 58.8294 26.3205 59.4494 26.9505 60.1694C26.9505 59.9694 26.9605 59.9295 26.9505 59.9095C26.7505 59.5395 26.4605 59.1794 26.6105 58.7294C26.8005 58.1594 27.0705 57.6194 27.5705 57.2594C27.9605 56.9794 28.4004 56.7694 28.7904 56.5494C29.3404 56.8294 29.3704 56.9595 29.2604 57.4695C29.0204 58.6595 28.4305 59.6294 27.4705 60.3694C27.4305 60.3994 27.4204 60.4794 27.3904 60.5794C27.6204 60.7294 27.8505 60.8894 28.0805 61.0394C28.0805 61.0794 28.0805 61.1195 28.0805 61.0695C28.1205 61.0995 28.0805 61.0694 28.0605 61.0494C27.9705 60.3494 28.3605 59.8295 28.7305 59.3195C28.8205 59.1895 29.0804 59.1694 29.2504 59.1094C29.6804 59.7394 29.5805 60.3594 29.5805 61.0394C29.3805 61.2794 29.1505 61.5494 28.9405 61.7894C29.4305 62.0694 29.9505 62.3995 30.4905 62.6895C30.8205 62.8595 31.1804 62.9794 31.5204 63.1194C31.5604 63.1594 31.6104 63.2094 31.6504 63.2495C31.6704 63.2794 31.6905 63.2994 31.6705 63.2694C31.7105 63.2794 31.6704 63.2694 31.6404 63.2594C31.6004 63.2194 31.5504 63.1795 31.5104 63.1295C31.5104 63.0695 31.5304 62.9694 31.5104 62.9494C30.9704 62.5994 30.9804 61.9894 30.7804 61.5294C30.9604 61.1894 31.2504 61.1794 31.4104 61.3394C31.8604 61.7894 32.5305 61.9994 32.8005 62.6194C32.8505 62.6594 32.9005 62.6894 32.9505 62.7294C32.9705 62.7694 32.9805 62.8094 32.9605 62.7594C33.0105 62.7794 32.9605 62.7594 32.9305 62.7495C32.8805 62.7195 32.8304 62.6794 32.7804 62.6494C32.9404 62.2794 32.6405 62.0094 32.5905 61.6794C32.4905 61.1194 32.4505 60.5494 32.3705 59.8994C31.3305 60.2594 30.3604 60.0895 29.7904 59.0995C29.4304 58.4695 29.4905 57.7094 29.7405 57.0094C29.9805 56.9294 30.2005 56.8594 30.4405 56.7694C29.4905 55.5894 29.3704 54.2094 29.5004 52.7694C29.8404 52.6094 30.0705 52.7094 30.3205 52.9494C31.0005 53.6094 31.5504 54.3594 32.0104 55.1794C32.0904 55.3294 32.1804 55.4695 32.2804 55.6295C32.4704 55.6595 32.6605 55.6794 32.8205 55.7094C33.3105 56.4294 33.1604 57.2495 33.2904 58.0294C33.3305 57.8494 33.3704 57.6795 33.4104 57.4995C33.7904 57.4495 34.0405 57.5994 34.2405 57.8894C34.3605 58.0594 34.4804 58.3294 34.7904 58.1994C34.8305 58.2494 34.8705 58.2894 34.9205 58.3394C35.0405 58.6394 35.1704 58.9394 35.2904 59.2394C35.4304 58.7994 35.1604 58.5794 34.9004 58.3594C34.8604 58.3094 34.8204 58.2595 34.7804 58.2195C34.0704 57.5195 34.0404 56.6294 34.1604 55.7294C34.2204 55.2694 34.3505 54.8195 34.4705 54.2794C34.5705 54.2495 34.7305 54.1894 34.9905 54.0894C35.3605 54.7194 35.6905 55.3295 36.0705 55.9095C36.4705 56.5295 36.4405 57.2094 36.4305 58.0294C36.7205 57.4394 36.9405 56.9794 37.1905 56.4794C37.3005 56.4394 37.4504 56.3895 37.6404 56.3195C37.7004 56.4295 37.8205 56.5395 37.8105 56.6295C37.7705 56.9395 37.7005 57.2594 37.6005 57.5594C37.4805 57.9294 37.3405 58.2995 37.1705 58.6595C36.8805 59.2895 36.5305 59.8794 35.9705 60.3294C35.6605 60.5794 35.4104 60.9094 35.0404 61.2994C34.9904 61.4194 34.9004 61.6794 34.7804 62.0094C35.1004 61.9494 35.3805 61.8995 35.6205 61.8495C36.3105 60.6095 37.6504 60.1094 38.8804 60.6094C39.0704 60.6894 39.3005 60.6794 39.4905 60.7594C39.9605 60.9494 40.4104 61.1594 40.9004 61.3694V61.9294C39.5004 62.9694 37.9405 63.0294 36.3305 62.7294C35.5505 62.5794 35.5405 62.5695 34.8005 62.9095C34.8605 63.2795 35.1004 63.4894 35.3804 63.7394C36.1104 64.3894 36.9405 64.8594 37.8605 65.1194C38.8705 65.4094 39.9305 65.5194 40.9705 65.7094C41.8005 65.8594 42.6405 66.0095 43.4705 66.1595C44.1005 66.2695 44.7205 66.4194 45.3505 66.4594C46.3305 66.5194 47.2505 66.8494 48.2105 67.0294C49.0005 67.1795 49.7905 67.3294 50.5705 67.5194C50.9005 67.5994 51.2105 67.7995 51.5505 67.8795C52.4805 68.1095 53.3505 68.4394 54.2205 68.8394C55.0805 69.2294 55.9404 69.5994 56.7504 70.0894C58.2904 71.0194 59.7104 72.0894 60.9104 73.3294C60.9104 72.8694 60.9604 72.3594 60.9004 71.8594C60.8304 71.2394 60.8705 70.6194 60.5705 70.0194C60.3705 69.6194 60.3904 69.1094 60.2604 68.6694C60.0504 67.9794 59.8204 67.2995 59.5405 66.6295C59.1604 65.7395 58.8305 64.7994 58.2905 64.0094C57.8204 63.3194 57.5505 62.4795 56.8505 61.9395C55.9405 61.2395 54.9304 60.8394 53.7704 60.7894C52.6204 60.7394 51.4704 60.6495 50.2804 60.5695C50.1304 60.7395 49.9805 60.9094 49.8305 61.0894C48.9605 62.1094 47.9304 62.7594 46.5304 62.5894C46.2104 61.9094 46.6705 60.9395 47.7105 60.0695C47.0605 59.9395 46.4305 59.8095 45.7905 59.6895C45.7104 59.6795 45.6304 59.6994 45.6504 59.6994C45.4104 60.1894 45.2705 60.6795 44.9805 61.0294C44.4705 61.6494 43.7105 61.8494 42.9405 61.9494C42.5305 62.0094 42.1105 62.0394 41.7105 62.0794C41.5005 60.9594 42.8505 59.4194 44.2905 59.0194C44.4305 59.0594 44.5805 59.0895 44.7205 59.1295C44.7205 59.0895 44.7305 59.0494 44.7405 59.0094C44.6005 59.0094 44.4605 58.9994 44.3205 58.9894C43.9605 58.7494 43.6005 58.4894 43.2405 58.2594C42.7705 57.9594 42.2805 57.6995 41.8305 57.3795C41.6905 57.2795 41.6805 56.9994 41.5805 56.7094C41.2205 56.5794 40.7305 56.4095 40.2005 56.2195V55.6794C41.2005 55.0994 42.1605 54.5494 43.3405 54.7894C43.3105 54.5894 43.2904 54.4595 43.2504 54.2195C44.2304 54.4195 44.9105 55.0194 45.6205 55.5494C46.3405 56.0894 47.0304 56.6795 47.7604 57.2794C47.7204 56.7695 47.6704 56.2594 47.6304 55.7094H48.5905C48.8705 56.2394 49.1705 56.8094 49.9305 56.7094C50.6705 57.3694 51.5305 57.9195 51.3205 59.1595C51.7105 59.1595 52.1104 59.1495 52.5104 59.1595C53.2504 59.1895 53.9905 59.2294 54.7405 59.2694C54.7605 59.2994 54.7704 59.3294 54.7504 59.2894C54.7904 59.3094 54.7505 59.2894 54.7205 59.2794C54.2805 58.8794 53.7905 58.5094 53.4205 58.0494C53.0305 57.5694 52.5004 57.3095 52.0204 56.9695C50.6004 55.9695 49.0605 55.1794 47.4805 54.4494C46.5905 54.0394 45.7305 53.5395 44.8605 53.0995C44.6005 52.9695 44.3105 52.8895 44.0505 52.7495C43.3305 52.3595 42.6104 51.9594 41.9104 51.5494C41.0204 51.0294 40.1404 50.4994 39.2804 49.9894C38.7304 50.0994 38.4405 50.4495 38.0905 50.8195C37.3105 51.6295 36.3605 52.1794 35.1705 52.0594C35.1005 52.0594 35.0405 51.9695 34.9505 51.9095C35.1105 50.8495 35.6305 50.0394 36.5805 49.4594C36.1905 49.3594 35.8605 49.2794 35.4605 49.1794C35.4505 48.9394 35.4405 48.7194 35.4305 48.4995C35.7605 48.3195 36.0504 48.1594 36.4004 47.9594C35.3904 47.4094 34.4505 47.2494 33.4705 47.6394C33.4205 47.7294 33.3804 47.7594 33.3804 47.7994C33.3204 48.3794 33.4605 48.9794 32.8205 49.3994C32.3305 49.7194 31.9505 50.1894 31.3105 50.2994C30.8005 50.3794 30.3104 50.5694 29.7804 50.7094C29.7304 50.4994 29.6505 50.3694 29.6805 50.2694C30.0305 49.1194 30.4504 48.0095 31.6604 47.4695C31.8604 47.3795 32.1105 47.3694 32.3305 47.3294C32.5505 47.2894 32.7804 47.2595 33.0004 47.2195C33.1904 47.1995 33.2805 47.1194 33.2005 46.9194C33.2405 46.8694 33.2805 46.8194 33.3105 46.7694C33.6505 46.6994 33.9905 46.6194 34.4405 46.5294C34.0805 46.3195 33.8304 46.1594 33.6504 46.0594C33.5204 46.3594 33.4205 46.5794 33.3305 46.7894C33.2905 46.8394 33.2505 46.8895 33.2105 46.9395C33.0105 46.9495 32.8904 47.0195 33.0104 47.2495C32.2704 47.2695 31.5905 47.0294 30.9205 46.7594C30.8605 46.1294 31.0105 46.0195 32.3005 45.6895C31.7305 45.2995 31.1304 44.9694 30.6304 44.5194C30.1704 44.0994 29.5504 43.7094 29.6304 42.8294C30.0904 42.8694 30.4904 42.9094 30.8804 42.9494C31.9404 43.0694 32.8805 43.4394 33.5905 44.2794C33.7105 44.4194 33.8605 44.5694 33.9205 44.7394C34.1505 45.4294 34.7105 45.8594 35.1705 46.3694C35.2805 46.4894 35.5005 46.4894 35.6805 46.5494C35.7405 46.5894 35.8005 46.6294 35.8605 46.6694C35.8705 46.6394 35.8804 46.6094 35.8904 46.5794C35.8104 46.5794 35.7404 46.5795 35.6604 46.5695C35.3204 46.1295 34.9504 45.6994 34.6504 45.2294C33.9304 44.1194 33.2404 42.9894 32.5304 41.8694C32.3404 41.5694 32.1205 41.2894 31.9205 41.0094C30.9405 41.7494 30.0605 41.3495 29.2005 40.9095C28.9605 40.7895 28.7404 40.5995 28.5004 40.4695C28.1704 40.2895 28.0304 40.0495 28.2804 39.5995C28.8704 39.5595 29.5104 39.4894 30.1604 39.4894C30.7604 39.4894 31.3204 39.6994 31.6604 40.2594C31.6804 40.2894 31.7105 40.3195 31.6805 40.2794C31.7205 40.2794 31.6804 40.2794 31.6404 40.2794C31.6104 40.0994 31.6404 39.8695 31.5404 39.7495C31.0304 39.1195 30.9405 38.3394 30.6705 37.6194C30.5305 37.2294 30.3804 36.8394 30.2804 36.4294C30.1604 35.9894 30.0805 35.5394 29.9805 35.0294C30.2405 34.9994 30.4204 34.9894 30.6504 34.9594C30.9304 35.9394 31.2005 36.8895 31.4805 37.8795C31.6705 37.4795 31.8605 37.0994 32.0605 36.6994C32.2605 36.6794 32.4405 36.6594 32.6105 36.6394C33.1905 37.9294 33.1505 38.5894 32.0505 39.3094C32.4405 39.9694 32.8305 40.6194 33.2205 41.2794C33.2505 41.3794 33.2805 41.4894 33.3105 41.5894C33.3805 41.6394 33.4404 41.6895 33.5104 41.7495C33.5404 41.8495 33.5805 41.9494 33.6105 42.0494C33.6505 42.0894 33.7005 42.1394 33.7405 42.1794C33.9205 42.5194 34.1005 42.8494 34.3205 43.2694C34.3705 42.5794 34.2805 42.4295 33.7205 42.1895C33.6805 42.1495 33.6405 42.0994 33.5905 42.0594C33.5605 41.9594 33.5205 41.8594 33.4905 41.7594C33.4205 41.7094 33.3604 41.6495 33.2904 41.5995L33.1905 41.2894C33.1505 41.0394 33.0605 40.7894 33.0905 40.5494C33.1705 39.7494 33.2904 38.9594 33.4104 38.1694C33.4204 38.0894 33.5404 38.0194 33.6604 37.8894C33.8304 37.9994 34.0404 38.0495 34.1304 38.1895C34.6304 39.0195 35.2005 39.7894 35.4305 40.7794C35.5805 41.4494 35.4005 41.9294 35.0505 42.3894C35.0005 42.8794 34.9405 43.3394 34.8705 44.0094C35.1305 44.3394 35.5405 44.8495 36.0605 45.4995C36.0605 45.2094 36.0605 45.0595 36.0605 44.9095C36.0605 44.8095 36.0205 44.6995 35.9905 44.5995C35.8405 43.9895 35.9505 43.5994 36.3305 43.4194C36.6405 43.2694 37.2404 43.4795 37.5004 43.8795C37.9804 44.6395 38.1005 45.4695 37.8105 46.3195C37.7505 46.4995 37.5405 46.6295 37.3605 46.8195C37.7805 47.1695 38.2205 47.5495 38.6705 47.9095C39.1805 48.3195 39.6905 48.7194 40.2105 49.1194C40.2605 49.1594 40.3705 49.1194 40.4605 49.1194C40.3305 49.3594 40.4605 49.4094 40.6705 49.4194C40.6705 49.4194 40.6705 49.4394 40.6805 49.4494C40.6805 49.4394 40.6704 49.4295 40.6604 49.4095C40.5904 49.3195 40.5105 49.2294 40.4405 49.1394C39.8605 48.4594 39.3005 47.7694 38.6905 47.1194C38.4805 46.8994 38.1204 46.8094 38.1504 46.3894C38.4304 46.1894 38.6604 46.1394 39.0304 46.3694C39.5204 46.6794 40.1404 46.7894 40.5204 47.2794C40.8404 47.6994 41.1605 48.1194 41.4705 48.5494C41.7305 48.9194 41.7705 49.3294 41.5805 49.8594C41.8905 50.0494 42.2105 50.2794 42.5605 50.4594C43.3105 50.8394 44.1205 51.1195 44.8205 51.5695C45.3805 51.9295 46.0005 52.0994 46.5905 52.3594C47.3705 52.7094 48.1304 53.0994 48.9104 53.4594C49.7804 53.8694 50.6404 54.2794 51.5104 54.6794C51.5504 54.7194 51.6004 54.7694 51.6404 54.8094C51.6504 54.8394 51.6704 54.8794 51.6504 54.8294C51.6904 54.8494 51.6504 54.8295 51.6304 54.8195C51.5904 54.7795 51.5404 54.7295 51.5004 54.6895C50.9804 53.8495 50.4505 53.0094 49.9405 52.1694C49.7805 51.8994 49.6305 51.6195 49.4705 51.3195C48.6805 51.9995 47.8404 51.5595 46.9004 51.4095C46.9104 51.1495 46.9305 50.8795 46.9405 50.5695C45.8305 50.7395 44.7105 50.3694 43.6205 50.0094C43.5805 49.9394 43.5505 49.9094 43.5505 49.8694C43.5505 49.7594 43.5505 49.6594 43.5505 49.5494C44.2605 48.8994 45.1205 48.5695 46.0405 48.4095C46.6404 48.3095 47.2105 48.5395 47.7405 48.8195C47.9205 48.9095 48.1205 48.9594 48.3105 49.0194C48.3305 49.0494 48.3505 49.0794 48.3305 49.0494C48.3605 49.0694 48.3305 49.0494 48.3005 49.0394C47.9405 48.2894 47.2904 47.8894 46.5304 47.7694C45.2404 47.5694 44.0204 47.1894 42.9104 46.5394C42.1604 46.0994 41.4504 45.5794 40.8904 44.8894C40.7604 44.7294 40.7305 44.4795 40.6105 44.1295H43.5405C43.0205 43.3795 42.6705 42.6194 42.8005 41.5894C42.9805 41.4694 43.2305 41.2994 43.4505 41.1494C44.1705 41.5194 44.8305 41.8494 45.4905 42.1794C45.4905 42.2194 45.5105 42.2495 45.4905 42.2195C45.5305 42.2395 45.4905 42.2194 45.4605 42.1994C45.3305 41.8394 45.2405 41.4695 45.0705 41.1295C44.8605 40.6995 44.6105 40.2994 44.3405 39.8394C43.5605 40.4094 42.8605 40.1094 42.3205 39.6994C41.5905 39.1594 40.9905 38.4494 40.3605 37.7894C40.2205 37.6494 40.1405 37.4294 40.0805 37.2294C40.0005 36.9494 40.0405 36.6695 40.3305 36.4995C41.8905 35.5695 44.3005 35.9194 44.8505 38.0194C44.9305 38.3294 45.1905 38.6094 44.9905 39.0394C44.8805 38.8994 44.8105 38.7994 44.6905 38.6394C44.7505 38.9994 44.7905 39.2594 44.8205 39.4494C45.1905 39.9794 45.5205 40.4594 45.8005 40.8594C45.8905 40.1594 46.0005 39.3494 46.1105 38.5194C46.3405 38.4894 46.5104 38.4694 46.6504 38.4494C46.7304 38.5194 46.7805 38.5594 46.8205 38.6094C47.4005 39.4694 47.9804 40.3395 48.1604 41.3795C48.2104 41.6895 48.1104 42.0494 48.0304 42.3694C47.9704 42.6094 47.8205 42.8294 47.8005 43.0794C47.7505 43.3794 47.7504 43.6994 47.6304 43.9594C47.4404 44.3694 47.5805 44.7094 47.7405 45.0494C47.9405 45.4594 48.1604 45.8594 48.3804 46.2794C48.5104 45.8794 48.6304 45.4994 48.7704 45.0894C48.9204 45.0394 49.1005 44.9894 49.3305 44.9194C49.6205 45.5194 49.8805 46.0894 49.8505 46.7394C49.8205 47.2694 49.5704 47.5294 49.0004 47.6394C50.1004 49.4694 51.2005 51.2795 52.3005 53.0995C52.3405 53.0795 52.3804 53.0694 52.4104 53.0494V51.4995C52.2704 51.5294 52.1505 51.5595 51.9505 51.5995C51.1905 50.5895 50.7704 49.4094 50.5204 48.0794C50.6304 47.8694 50.7804 47.5894 50.9104 47.2994C51.1204 46.8294 51.7105 46.7795 52.0805 47.1595C52.2705 47.3495 52.4004 47.6095 52.5304 47.8495C52.6604 48.0795 52.7504 48.3194 52.9104 48.5494C52.9004 47.6094 53.1005 46.6794 52.8005 45.7294C53.1805 45.6594 53.4405 45.7895 53.5905 46.0695C53.7405 46.3695 53.9205 46.6894 53.9505 47.0094C54.0405 48.1694 54.2805 49.3394 53.9805 50.5094C53.9505 50.6394 54.0004 50.7994 54.0204 51.0594C54.2704 50.8994 54.5105 50.8294 54.6205 50.6694C55.1705 49.8194 55.9205 49.4394 56.9305 49.5394C56.9905 49.5394 57.0505 49.5195 57.2005 49.4995C57.2005 49.1095 57.2205 48.7094 57.2005 48.3094C57.1505 47.1894 57.4905 46.2794 58.6905 45.6794C56.7605 45.7294 55.2605 45.1294 53.9205 43.7495C53.5505 43.6695 53.0005 43.5795 52.4805 43.4095C52.2105 43.3295 51.9105 43.1694 51.7405 42.9594C51.3005 42.4094 50.7505 41.8694 50.9205 41.0294C51.0405 40.8494 51.1705 40.6595 51.3005 40.4695C51.6905 40.7795 51.8805 40.2594 52.2005 40.2594C52.5505 40.2594 52.9105 40.1494 53.4605 40.0594C53.2805 39.9794 53.1905 39.9194 53.1005 39.8994C51.8405 39.6494 50.7004 39.0794 49.6404 38.3894C49.1004 38.0394 48.6405 37.5494 48.2105 37.1794C47.9005 37.3594 47.6205 37.6394 47.3105 37.6794C46.6305 37.7694 46.0205 37.4894 45.4205 37.1094V36.5794C45.9505 36.4094 46.5005 36.2294 47.0505 36.0494C45.7605 34.6094 44.4105 33.1194 43.0805 31.6494C42.9605 31.7894 42.7905 31.9794 42.6805 32.1094C41.8505 32.3294 41.2005 31.9794 40.4905 31.7594C40.4805 31.5894 40.4705 31.3995 40.4605 31.2195C41.0005 30.9295 41.4605 30.5294 42.1105 30.6494C42.2105 30.6794 42.3104 30.7094 42.4104 30.7394C42.4204 30.7794 42.4305 30.8094 42.4205 30.7794C42.4505 30.7994 42.4204 30.7794 42.3904 30.7594C42.2904 30.7294 42.1905 30.6994 42.0905 30.6694C41.8505 30.3894 41.6205 30.1094 41.3705 29.8394C41.1705 29.6094 40.9504 29.3894 40.7704 29.1394C39.6804 28.7294 39.1605 27.8894 39.4805 25.4794C39.6505 25.5194 39.8705 25.5094 39.9505 25.6094C40.2605 25.9794 40.5305 26.3894 40.8105 26.7894C40.8405 26.8094 40.8805 26.8194 40.8305 26.7894C40.8805 26.7794 40.8305 26.7894 40.8005 26.7894C40.7805 26.5194 40.7504 26.2494 40.7504 25.9894C40.7504 25.4994 40.7504 25.0095 40.7504 24.4695C40.9404 24.4495 41.1204 24.4294 41.3804 24.3994C41.9704 25.0594 42.6104 25.6994 43.1504 26.4194C43.4804 26.8694 43.7104 27.4094 43.8904 27.9494C44.1004 28.5494 43.7205 29.0494 43.4805 29.4794C43.5705 30.0794 43.6605 30.6094 43.7405 31.1494C44.3005 31.7794 44.8705 32.4194 45.4905 33.1094C45.7005 32.7394 45.6505 32.4294 45.5405 32.1094C45.1805 31.0694 45.3505 30.0094 46.1205 28.6994C46.2905 28.6994 46.4805 28.6794 46.6805 28.6694C46.7205 28.7294 46.7604 28.7794 46.7804 28.8294C46.9904 29.4894 47.3004 30.1395 47.3904 30.8195C47.5004 31.6495 47.0405 32.2694 46.3205 32.7094C46.2305 32.9694 46.1404 33.2394 46.0204 33.6094C47.3204 34.9594 48.6405 36.3795 50.3505 37.4395C50.3705 37.2095 50.3904 37.0295 50.4104 36.8495C49.4104 35.7395 48.8004 35.6395 49.5204 32.2495C49.5504 32.2295 49.5905 32.1794 49.6205 32.1794C49.7705 32.1794 49.9205 32.1794 50.0805 32.1794C50.7105 33.0794 51.3704 33.9694 51.5104 35.1094C51.5404 35.3594 51.5105 35.6294 51.4405 35.8594C51.2705 36.3394 51.0804 36.8094 51.1304 37.3394C51.1404 37.4594 51.0605 37.5794 50.9905 37.8094C52.0805 38.1094 53.1604 38.4195 54.2504 38.7195C54.2704 38.7495 54.2904 38.7794 54.2604 38.7394C54.3104 38.7494 54.2705 38.7394 54.2405 38.7394C54.1005 38.3994 54.0305 37.9895 53.8005 37.7195C53.2505 37.0595 53.0505 36.2495 52.7205 35.4995C52.1605 34.1995 51.8105 32.8294 51.5905 31.4294C51.5505 31.1594 51.5705 30.8695 51.5605 30.5995C51.5305 29.5895 51.3204 28.6394 50.7804 27.7694C50.6704 27.5894 50.5405 27.4195 50.4505 27.2195C50.2505 26.8095 49.9805 26.4795 49.5905 26.2195C48.8105 25.6895 48.7805 24.8394 48.7405 24.0094C48.7305 23.7394 48.8404 23.4694 48.9004 23.1494C49.1404 22.9294 49.3705 22.9694 49.6105 23.2594C50.1505 23.9294 50.6104 24.6295 50.7704 25.4995C50.7704 25.8395 50.3205 26.1494 50.7305 26.5794C50.8905 25.4094 51.6305 24.5894 52.2905 23.6694C52.4405 23.6694 52.6205 23.6894 52.8405 23.6994C53.1405 24.6094 53.4905 25.4795 53.7105 26.3795C53.8805 27.0695 53.5604 27.7695 53.0104 28.0995C52.3604 28.4895 52.3205 29.0194 52.3505 29.5894C52.3705 30.1794 52.4805 30.7694 52.6105 31.3394C52.7705 32.0594 52.9905 32.7694 53.1805 33.4794C53.2105 33.5994 53.2505 33.7195 53.3405 33.8495C53.2005 32.4495 53.5905 31.2394 54.5805 30.2394C54.7105 30.2194 54.8405 30.1894 54.9605 30.1994C55.0605 30.1994 55.1705 30.2394 55.3305 30.2694C55.4105 30.7594 55.5305 31.2495 55.5505 31.7495C55.5905 32.9795 55.1705 33.5694 54.0405 34.0194C53.8705 34.2494 53.7005 34.4694 53.5705 34.6394C54.8305 37.7794 56.8804 40.2794 59.6504 42.1994C59.0604 41.5394 58.5205 40.9195 58.3205 39.9695C58.1305 39.0395 58.4505 38.2094 58.4205 37.3394C58.8005 37.2094 59.0005 37.4295 59.2005 37.6595C59.8905 38.4995 60.4504 39.4094 60.7604 40.4594C60.8204 40.6494 60.8305 40.9294 60.7305 41.0794C60.3905 41.6194 60.4005 42.1894 60.4705 42.8094C61.7405 43.8194 63.3805 44.3394 64.6205 45.5394C64.5005 44.9194 64.3604 44.2994 64.2604 43.6794C63.9904 41.9794 63.6505 40.2994 63.1905 38.6394C63.1305 38.4194 63.1105 38.1794 63.0505 37.9594C62.8505 37.3094 62.3705 36.9594 61.7005 36.9294C59.9405 36.8494 58.4304 36.1794 57.1504 34.9894C56.9904 34.8394 56.9104 34.5894 56.7704 34.3394C57.9504 34.0394 59.0105 33.9194 60.0705 34.2394C61.1605 34.5594 61.9105 35.3094 62.3705 36.3694C62.4205 36.3394 62.4704 36.3095 62.5204 36.2794C61.6404 33.7094 60.7505 31.1394 59.8505 28.5094C58.8505 28.7394 58.0905 28.3394 57.4605 27.7594C56.6405 26.9994 55.8905 26.1594 55.5805 24.9194C56.8705 25.1394 58.0604 25.3994 59.0304 26.2694C59.0304 26.2694 59.0405 26.2694 59.0505 26.2794C59.0405 26.2794 59.0304 26.2595 59.0204 26.2495C58.7304 25.3195 58.4805 24.3694 57.9605 23.5094C57.7805 23.2094 57.6705 22.8694 57.4905 22.4794C56.4105 21.9494 55.6204 20.6395 55.7504 19.4395H56.5905C57.0505 19.9295 57.5604 20.4794 58.0304 20.9794V22.3795C57.9604 22.3895 57.8905 22.3995 57.8205 22.4095C57.8305 22.4395 57.8405 22.4695 57.8605 22.4995C57.9105 22.4595 57.9704 22.4094 58.0204 22.3694C58.5704 23.3194 59.1104 24.2595 59.6504 25.1895C59.7704 24.9495 59.9205 24.6394 60.0605 24.3594C60.6105 24.3194 60.7905 24.4195 60.9305 24.8195C61.3205 25.9195 61.1804 26.5294 60.3804 27.0794C60.6604 27.8094 60.9405 28.5394 61.2305 29.2794C61.7505 30.5894 62.3005 31.8894 62.8105 33.2094C63.3805 34.6894 63.9205 36.1695 64.4505 37.6595C64.7205 38.4295 64.9305 39.2294 65.2405 40.0094C65.5105 38.0194 65.7905 36.0395 66.0705 33.9995C64.9505 33.8995 64.1105 33.4894 63.6905 32.4294C63.4305 31.7694 63.6005 31.2395 64.0605 30.7495C64.5305 30.9595 65.0105 31.1794 65.4805 31.3894C65.5005 31.4094 65.5304 31.4295 65.5004 31.4095C65.5404 31.4095 65.5005 31.4095 65.4605 31.4095C65.5605 31.0295 65.4605 30.7094 65.2005 30.4194C65.1405 30.3594 65.0905 30.2794 65.0605 30.2094C64.2605 28.1294 63.0304 26.2594 62.0104 24.2994C61.8604 23.9994 61.8105 23.7494 62.0505 23.4894L62.0304 23.5094C62.5504 23.6094 62.6504 24.0994 62.9004 24.4494C63.1204 24.7494 63.3405 25.0394 63.5705 25.3294C63.5705 25.6194 63.6605 25.8595 63.9605 25.9695C64.0105 25.9995 64.0605 26.0395 64.1205 26.0695C64.1505 26.4695 64.4705 27.0695 64.6805 27.0995C64.7305 27.0095 64.7805 26.9194 64.8705 26.7594C64.6205 26.5394 64.3605 26.3194 64.1105 26.0894C64.0605 26.0494 64.0105 26.0194 63.9605 25.9794C63.8305 25.7694 63.7005 25.5494 63.5705 25.3394C63.5205 24.8994 63.4005 24.4494 63.4405 24.0194C63.4905 23.4094 63.6304 22.7994 63.7704 22.1994C63.8004 22.0494 63.9905 21.9394 64.1205 21.8094C64.2605 21.8994 64.3504 21.9294 64.4004 21.9894C65.0604 22.9494 65.7705 23.8995 65.8605 25.0995C65.8905 25.5295 65.6304 25.9794 65.5304 26.4194C65.4204 26.8894 65.3004 27.3594 65.1604 27.9294C65.9104 29.3494 66.8404 30.8295 67.2504 32.4695C67.3804 31.9995 67.3504 31.5395 67.1604 30.5995C66.8204 28.9395 67.2005 27.4094 68.0905 25.9894C68.1805 25.8494 68.3605 25.7694 68.5505 25.6194C68.7205 25.7894 68.8905 25.8994 68.9605 26.0594C69.2005 26.6194 69.4005 27.1894 69.6205 27.7594C69.9005 28.4694 69.9405 29.2194 69.8705 29.9594C69.8205 30.5194 69.5804 31.0194 69.1404 31.3994C68.8604 31.6494 68.5505 31.8594 68.3605 32.0094C68.0305 32.7494 67.7505 33.3794 67.4205 34.1094C68.6305 32.8894 70.1905 32.5195 71.7205 31.8495C71.1405 31.7395 71.1204 31.3495 71.0104 30.9695C70.8804 30.5495 70.9804 30.1995 71.1604 29.8795C71.8904 28.6395 72.6604 27.4195 73.4104 26.1895C73.4604 26.1095 73.5305 26.0495 73.6805 25.8795C73.7105 26.1095 73.7405 26.2294 73.7305 26.3394C73.6605 27.0994 73.5704 27.8594 73.5004 28.6194C73.4404 29.2794 73.3905 29.9294 73.3305 30.5894C73.3105 30.6094 73.2905 30.6394 73.3105 30.6094C73.3105 30.6394 73.3105 30.6095 73.3105 30.5695C73.4805 30.4295 73.6605 30.2994 73.8105 30.1394C74.0905 29.8394 74.2904 29.4394 74.7504 29.3094C74.9604 29.5794 74.8905 29.7894 74.7205 30.0194C74.0405 30.9094 73.3904 31.8195 72.3804 32.3795C72.2204 32.4695 72.0905 32.6095 71.9205 32.7495C72.0605 32.8695 72.1905 32.9694 72.3305 33.0794C72.4805 32.9994 72.6205 32.9494 72.7405 32.8694C73.2105 32.5594 73.7305 32.5594 74.2105 32.7594C74.9705 33.0794 75.7205 33.4194 76.3205 34.0094C76.4605 34.1494 76.6804 34.2195 76.9104 34.3495C76.9204 34.4995 76.9305 34.6794 76.9505 34.8594C76.8805 34.9094 76.8304 34.9694 76.7704 34.9794C75.7604 35.2594 74.7404 35.2595 73.7504 34.9395C73.4504 34.8395 73.2005 34.5694 72.9405 34.3694C72.3705 33.9294 71.8205 33.4795 71.2105 32.9995C70.2905 33.5095 69.3304 33.9294 68.5004 34.5194C67.8904 34.9594 67.5504 35.6994 67.4104 36.4594C67.2404 37.4394 67.1404 38.4394 67.0004 39.4294C66.9404 39.8694 66.8204 40.2994 66.7504 40.7294C66.6904 41.0894 66.6404 41.4394 66.6304 41.7994C66.6204 43.1694 66.6104 44.5395 66.6304 45.9095C66.6304 46.3495 66.7304 46.7894 66.7704 47.1494C67.0104 46.6194 67.2104 46.0094 67.5405 45.4794C67.8705 44.9594 68.1904 44.3395 69.0104 44.3495C69.2504 45.3195 69.5104 46.1995 69.3804 47.1595C69.2204 48.3395 68.5504 49.0095 67.4004 49.3195C66.9904 50.3895 67.4505 51.5494 67.1205 52.6394C68.5905 50.8394 70.0304 49.0594 71.5204 47.2294C71.6504 46.7594 71.3305 46.3994 70.9805 46.0794C70.2505 45.4094 69.6605 44.6394 69.2205 43.7594C68.9105 43.1394 68.7104 42.4794 68.6504 41.7894C69.4804 41.6394 70.2704 42.1794 71.7804 43.9294C71.7804 43.5594 71.7604 43.2395 71.7804 42.9395C71.8104 42.4995 71.8805 42.4594 72.4605 42.4894C72.7005 43.1194 73.3504 43.6195 73.1404 44.4395C73.1304 44.5195 73.1105 44.5994 73.1005 44.6694C73.1305 44.6694 73.1505 44.6694 73.1805 44.6694C73.1705 44.5894 73.1504 44.4994 73.1404 44.4194C73.1804 44.4194 73.2204 44.4194 73.2604 44.4294C73.2904 43.8694 73.5504 43.3394 73.3904 42.7394C73.2204 42.0994 73.1404 41.4394 73.0304 40.7994C71.8804 40.8894 70.2005 39.6994 69.9905 38.7094C70.3705 38.2594 70.6204 38.4194 71.7604 38.6694C71.5704 38.2794 71.0804 38.0895 71.1504 37.5695C71.3104 37.5595 71.4705 37.5394 71.6205 37.5294C71.8605 37.8095 72.0805 38.0494 72.3005 38.2994C72.3405 38.2994 72.3905 38.2794 72.4305 38.2794C71.8905 37.0695 72.2304 35.8895 72.5104 34.6595C72.6304 34.6295 72.7805 34.5994 72.9505 34.5594C73.3105 35.1194 73.6505 35.6495 73.9905 36.1895C74.3605 36.7795 74.5505 37.4395 74.4705 38.1295C74.4305 38.4695 74.2405 38.7994 74.0405 39.1094C74.0704 39.3194 74.1004 39.5194 74.1404 39.7294C74.1004 39.7294 74.0605 39.7294 74.0905 39.7294C74.0605 39.7594 74.0905 39.7294 74.1205 39.7094C74.3205 39.4294 74.5105 39.1594 74.7405 38.8394C74.8705 38.8394 75.0305 38.8194 75.2105 38.8094C75.5305 39.4394 75.3604 40.0894 75.3904 40.7094C75.3504 40.7994 75.3204 40.8994 75.2804 40.9894C74.9504 41.1694 74.6705 41.4694 74.2405 41.3694C74.2205 41.3394 74.2005 41.2994 74.2305 41.3394C74.1905 41.3194 74.2304 41.3395 74.2604 41.3495C74.3404 41.8095 74.4104 42.2594 74.5104 42.8394C74.8004 42.1194 75.0304 41.5495 75.2704 40.9695C75.3004 40.8695 75.3405 40.7794 75.3705 40.6794C75.4805 40.3894 75.5905 40.1095 75.7105 39.8195C76.1605 38.7595 76.3204 37.6194 76.6604 36.5394C77.0904 35.1994 77.1405 33.8394 77.2205 32.4794C77.2805 31.3694 77.3105 30.2594 77.3505 29.1494C77.3505 29.0694 77.3804 28.9794 77.3904 28.8694C77.5104 28.8394 77.6205 28.8094 77.8105 28.7594C77.7705 28.9494 77.7405 29.0794 77.7205 29.2094C77.8205 29.2694 77.9505 29.3394 78.0405 29.3894V35.7495C79.0105 34.6995 79.9905 34.1895 80.5505 34.4995C80.5505 35.7094 80.4005 36.8894 79.4205 37.7894C79.3405 37.8594 79.2705 37.9594 79.1705 37.9894C78.5505 38.1994 77.9705 38.5094 77.3405 38.8894C76.4005 42.8294 74.5605 46.3994 71.7905 49.5094C72.8204 49.3294 73.6505 48.7394 74.6105 48.3994C74.2205 47.4094 74.2005 46.5394 74.9305 45.7694H75.5905C75.8105 46.3294 76.0504 46.9094 76.2804 47.4894C77.4204 47.0794 78.3204 46.2995 79.0204 45.1895C78.2104 44.7595 77.8305 44.0494 77.6105 43.2794C77.5005 42.8694 77.5505 42.3894 77.6205 41.9594C77.7105 41.4694 77.9005 40.9894 78.0605 40.4894H78.5905C79.0205 41.2594 79.4504 42.0194 79.8804 42.7994C81.1604 40.9394 82.9605 40.5795 85.1205 41.3495V41.8495C84.1705 42.2995 83.2605 42.7294 82.3605 43.1694C81.8805 43.3994 81.4205 43.6494 80.9405 43.8694C80.3405 44.1394 80.1804 44.7395 79.9004 45.2495C79.6704 45.6495 79.5105 46.1094 79.2205 46.4594C78.3005 47.5694 77.2505 48.5394 75.8605 49.3094C76.5805 49.4094 77.1704 49.4994 77.7704 49.5794C77.7704 49.6194 77.7704 49.6494 77.7704 49.6194C77.7904 49.6494 77.7704 49.6194 77.7504 49.5894C77.6504 49.4094 77.5605 49.2295 77.4305 48.9995C78.1805 48.5195 78.8704 48.8495 79.5104 48.9995C80.1904 49.1695 80.9205 49.3694 81.3705 49.9894C81.7605 50.5294 82.1205 51.0995 82.4905 51.6595C82.5405 51.6395 82.5804 51.6195 82.6304 51.5995C82.5804 51.1195 82.5105 50.6494 82.4905 50.1694C82.4605 49.3594 82.4905 48.5494 82.4505 47.7394C82.4405 47.4294 82.3305 47.1194 82.3105 46.8094C82.2905 46.5394 82.4204 46.3495 82.7704 46.4395C82.8404 46.7795 82.9105 47.1295 82.9805 47.4695C82.7605 46.0095 83.4405 44.8894 84.2205 43.7894C84.3105 43.6694 84.4604 43.5794 84.5104 43.4494C84.6804 43.0294 85.0105 42.9894 85.4205 42.9894C85.8005 44.3294 86.2305 45.6294 85.9305 47.0494C85.7805 47.7294 85.1204 48.5495 84.6604 48.7195C84.2004 49.3195 83.8305 49.7894 83.4205 50.3294C83.4105 51.6694 83.9704 53.0494 83.8804 54.4995C83.8504 54.5195 83.8105 54.5294 83.8505 54.5094C83.8305 54.5594 83.8505 54.5094 83.8605 54.4794C84.7405 53.8394 85.2605 52.9195 85.7305 51.9695C85.0705 51.8595 84.8505 51.2294 84.7305 50.7594C84.6005 50.2794 84.8405 49.6994 84.9305 49.1394H85.5405C85.7705 49.6394 85.9805 50.1094 86.2305 50.6694C86.6105 48.8994 87.2705 47.2894 87.3705 45.5494C87.3805 45.3094 87.5605 45.0794 87.6005 44.8294C87.6405 44.5994 87.6005 44.3694 87.6005 44.0894C87.1805 44.0594 86.8005 44.1194 86.4605 43.7794C85.8805 43.2094 85.4704 42.5695 85.2804 41.7794C85.1204 41.0595 84.9605 40.3495 84.8105 39.6295C84.7405 39.2995 84.6504 38.9595 85.0004 38.5995C85.3504 38.8495 85.7205 39.0894 86.0505 39.3694C86.4505 39.7094 86.8304 40.0795 87.2104 40.4395C87.2404 40.5395 87.2805 40.6294 87.3105 40.7294C87.3405 40.7894 87.3705 40.8394 87.3305 40.7694C87.3905 40.8094 87.3405 40.7694 87.2905 40.7394C87.2605 40.6394 87.2204 40.5394 87.1904 40.4494C87.0604 40.0094 86.9805 39.5494 86.7905 39.1394C86.4204 38.3594 86.2904 37.5795 86.5304 36.7495C86.5904 36.5595 86.5605 36.3394 86.5805 36.1094C87.2505 36.4094 88.6805 38.1494 88.8005 38.7994C88.8705 38.6094 88.9304 38.4394 89.0004 38.2594H89.5204V39.2994C89.5204 39.2994 89.4506 39.3794 89.4106 39.4194C89.4206 39.4194 89.4404 39.4394 89.4704 39.4494C89.4804 39.3894 89.5004 39.3394 89.5104 39.2894C89.9704 38.9494 90.4005 38.5794 90.8805 38.2794C91.4805 37.8995 92.1404 37.9694 92.7905 38.1194C93.0105 38.1694 93.2204 38.2794 93.4604 38.3694V38.8795C92.6904 39.2595 91.9106 39.6294 91.1506 40.0294C90.4206 40.4194 89.7104 40.8394 88.9604 41.2594C88.8004 42.4994 88.6504 43.7195 88.4904 44.9395C88.4704 45.1195 88.3905 45.2994 88.3405 45.4794C88.3105 45.4994 88.2805 45.5195 88.3105 45.4995C88.3105 45.5395 88.3105 45.4995 88.3105 45.4695C88.9105 45.4695 89.1806 45.0294 89.4106 44.5894C89.8006 43.8594 90.2104 43.1594 90.7905 42.5594C91.4305 41.8994 92.2605 41.5994 93.0805 41.2594C93.2805 41.1794 93.5605 41.2894 93.8105 41.3094C93.8405 41.4894 93.8905 41.6095 93.8605 41.6895C93.5105 42.7095 93.4604 43.8194 92.6904 44.6994C92.0904 45.3794 91.4105 45.7294 90.5505 45.6194C89.9005 45.5394 89.3906 45.7295 88.9006 46.0995C88.7106 46.2495 88.4706 46.3394 88.1405 46.5294C88.0506 47.2295 87.9505 48.0395 87.8405 48.8495C87.8005 48.8495 87.7705 48.8694 87.8005 48.8594C87.7805 48.8894 87.8005 48.8594 87.8205 48.8294C88.3205 48.4094 88.9205 48.3595 89.5805 48.3195V49.1595C89.8905 49.2195 90.2405 49.2894 90.6305 49.3594C90.8805 48.4294 90.7905 47.2994 91.6105 46.4294C91.8105 46.6094 91.9805 46.7094 92.0905 46.8594C92.6805 47.6894 93.3005 48.5094 93.8105 49.3894C94.3305 50.2794 94.1004 51.1194 93.2304 52.1194V52.6094C93.2304 52.6094 93.3005 52.6395 93.3305 52.6595C93.8105 51.8495 94.2804 51.0295 94.7704 50.2195C94.9204 49.9695 95.0505 49.6694 95.5505 49.7994C95.4905 50.0494 95.4605 50.3094 95.3805 50.5494C95.2905 50.8094 95.1505 51.0394 95.0605 51.2994C94.5705 52.6294 93.7705 53.7495 92.8905 54.8495C92.2206 55.6895 91.3805 56.3394 90.6105 57.0594C90.1205 57.5094 89.5104 57.8194 88.9804 58.1694C91.0704 59.0994 93.2705 59.0894 95.5405 58.4894C94.7005 57.6094 94.5105 56.5394 95.0505 55.8094C95.1905 55.8494 95.3504 55.8894 95.4404 55.9194C95.7204 56.3194 95.9604 56.6594 96.2004 57.0094V57.2394C96.2004 57.2394 96.2504 57.2394 96.2704 57.2294C96.2404 57.1594 96.2204 57.0994 96.1904 57.0294C96.0504 55.9095 96.7405 55.1295 97.3205 54.3195C97.4705 54.1095 97.6605 53.8494 98.0505 54.0494C98.5605 55.1194 98.6405 56.2694 98.3605 57.4494C98.3305 57.4694 98.3005 57.4894 98.3405 57.4594C98.3405 57.4994 98.3405 57.4594 98.3405 57.4294C98.4705 57.3594 98.7004 57.3195 98.7304 57.2195C98.8904 56.6295 99.0305 56.0395 99.1205 55.4395C99.1505 55.2295 99.0704 54.9794 99.0004 54.7594C98.7204 53.8394 98.9404 52.9594 99.2504 52.0894C99.4604 51.4994 99.7404 50.9395 99.9804 50.3795H100.661C101.091 51.3795 101.54 52.3694 101.7 53.4594C101.78 53.9794 101.671 54.4695 101.431 54.9395C101.341 55.1195 101.28 55.3194 101.21 55.5194C101.17 55.5594 101.12 55.6094 101.08 55.6494C101.05 55.6594 101.01 55.6794 101.05 55.6494C101.03 55.6894 101.05 55.6495 101.06 55.6295C101.1 55.5895 101.15 55.5395 101.19 55.4995C102.03 54.8995 102.681 54.1395 103.181 53.2495C103.351 52.9394 103.51 52.5694 104.07 52.6994C104.03 53.7094 103.07 54.2395 102.8 55.1595C102.95 55.2895 103.12 55.4395 103.31 55.5995C103.49 55.6295 103.67 55.6495 103.73 55.6595C104.04 56.1095 104.29 56.4494 104.53 56.7994C104.28 57.2894 104.04 57.7894 103.75 58.2694C103.65 58.4394 103.43 58.5395 103.25 58.6595C102.81 58.9395 102.351 59.1894 101.911 59.4794C101.371 59.8294 100.801 60.0794 100.131 60.0194C99.9605 59.9994 99.8005 60.0194 99.5705 60.0194C100.21 60.4794 100.811 60.9094 101.401 61.3294C101.741 61.5694 101.78 61.6594 101.79 62.1194C100.27 62.5694 98.7905 62.5695 97.3305 61.7195C97.0805 61.9095 96.8004 61.8494 96.5304 61.6094C96.3904 61.4894 96.2205 61.3994 96.0605 61.2994C96.0605 61.2494 96.0505 61.1994 96.0605 61.2794C96.0005 61.2794 96.0405 61.2794 96.0805 61.2794C96.3305 61.7094 96.6105 62.1294 96.8105 62.5894C97.0505 63.1194 97.2204 63.6894 97.4704 64.3894C97.1004 64.3394 96.8606 64.3594 96.6806 64.2694C96.0106 63.9194 95.3604 63.5495 94.7204 63.1595C93.9304 62.6795 93.6704 61.9294 93.7004 61.0194C93.4804 60.8194 93.2404 60.6094 93.0204 60.4194C92.2404 60.3594 91.4804 60.3095 90.7304 60.2495C92.4704 61.1495 93.8005 62.4394 93.8805 63.4194C93.7505 63.4394 93.6104 63.4994 93.4704 63.4894C92.2204 63.3794 91.0205 63.1094 90.1405 62.1394C89.8405 61.8094 89.6404 61.3694 89.4904 60.9494C89.2704 60.3294 88.5305 59.6895 87.8605 59.6595C86.5905 59.6095 85.3704 59.8695 84.1504 60.1895C83.1304 60.4495 82.0905 60.6694 81.0705 60.9194C80.5505 61.0494 80.0305 61.2095 79.4205 61.3795C80.5005 61.5895 81.4505 62.0794 82.4605 61.7894C83.9205 60.1794 85.7005 59.6694 87.8705 60.0794C87.6505 61.0194 87.0404 61.6394 86.4104 62.2594C85.7304 62.9394 84.8705 63.0895 83.9305 63.0695C84.5705 63.4495 85.2005 63.8395 85.9305 64.2794C86.1105 64.2194 86.3905 64.1294 86.7105 64.0194C88.1705 64.5394 88.9405 65.7394 89.6205 67.0494C88.5505 67.6994 85.5505 66.5594 85.4305 64.6394C85.1905 64.5694 84.9405 64.4994 84.6805 64.4294C84.6405 64.3794 84.6005 64.3294 84.5605 64.2894C84.5205 64.2394 84.4805 64.1994 84.4405 64.1494C84.4305 64.1194 84.4105 64.0794 84.4305 64.1194C84.3905 64.0994 84.4305 64.1195 84.4605 64.1295C84.5005 64.1795 84.5405 64.2194 84.5805 64.2694C84.6205 64.3194 84.6605 64.3695 84.7005 64.4095C85.1005 64.9895 85.1605 65.3194 85.0505 66.4494C84.9805 66.4494 84.9005 66.4895 84.8305 66.4695C84.2405 66.2995 83.3404 65.0495 83.4104 64.4395C83.4404 64.2095 83.5705 63.9994 83.6705 63.7294C83.0605 63.5094 82.3405 63.2494 81.6205 62.9894C81.5605 62.9494 81.5005 62.9094 81.4405 62.8694C81.4305 62.8994 81.4204 62.9294 81.4004 62.9594L81.6304 62.9794H81.5905ZM42.8105 30.2894C42.8105 30.2894 42.7205 30.1995 42.6805 30.1595C42.6005 29.9295 42.5705 29.6695 42.4405 29.4695C42.0805 28.9095 41.6704 28.3694 41.2804 27.8294C41.2604 27.7694 41.2405 27.6994 41.2205 27.6394C41.1905 27.6594 41.1704 27.6794 41.1404 27.6994C41.1904 27.7394 41.2404 27.7794 41.2904 27.8094C41.1704 28.1494 41.0505 28.4894 40.9505 28.7794C41.1705 28.9094 41.4005 29.0094 41.5805 29.1694C41.9605 29.4794 42.3205 29.8194 42.6805 30.1494C42.7205 30.1894 42.7705 30.2394 42.8105 30.2794C42.8205 30.3094 42.8405 30.3494 42.8205 30.2994C42.8605 30.3194 42.8205 30.2994 42.8005 30.2894H42.8105ZM98.3205 73.2894C98.3205 73.2894 98.3605 73.3495 98.3405 73.3195C98.3805 73.3295 98.3405 73.3194 98.3105 73.3094C98.2805 73.2894 98.2504 73.2594 98.2204 73.2394C98.2504 73.2594 98.2905 73.2794 98.3205 73.2894ZM72.4405 38.5294C72.4405 38.5294 72.4005 38.4594 72.4205 38.4995C72.3705 38.4795 72.4205 38.4994 72.4505 38.5094C72.5005 38.5494 72.5405 38.5895 72.5905 38.6295L72.7005 38.7794C72.7505 38.8095 72.8105 38.8394 72.8605 38.8694C72.7405 39.2694 73.1204 39.3395 73.2604 39.5695C73.3004 39.5395 73.3404 39.5094 73.3904 39.4794C73.2104 39.2794 73.0305 39.0894 72.8405 38.8894C72.7905 38.8594 72.7305 38.8294 72.6805 38.7994L72.5705 38.6494C72.5705 38.6494 72.4805 38.5695 72.4305 38.5294H72.4405ZM18.7504 67.6094C18.7504 67.6094 18.8504 67.6894 18.8904 67.7294C18.8704 67.9494 18.8605 68.1695 18.8405 68.4695C19.7605 68.5295 20.6005 68.5894 21.4505 68.6394C21.4605 68.6694 21.4705 68.6994 21.4605 68.6794C21.4905 68.6994 21.4605 68.6795 21.4305 68.6595C21.3005 68.4995 21.1705 68.3394 21.0505 68.1994C20.0905 68.3994 19.7705 68.3295 18.8705 67.7495C18.8205 67.7094 18.7705 67.6695 18.7305 67.6295C18.6805 67.5895 18.6305 67.5494 18.5805 67.5194C18.5705 67.5194 18.5605 67.4994 18.5505 67.4894C18.5605 67.4794 18.5705 67.4694 18.5805 67.4594C18.5805 67.4694 18.6005 67.4795 18.6005 67.4995C18.6505 67.5395 18.6905 67.5794 18.7405 67.6194L18.7504 67.6094ZM46.5605 42.6194C46.5605 42.6194 46.5405 42.6095 46.5405 42.5995C46.5504 42.6095 46.5605 42.6195 46.5805 42.6295C46.5805 42.6295 46.5805 42.6194 46.5705 42.6094L46.5605 42.6194ZM33.8105 64.1494C33.8105 64.1494 33.8405 64.2194 33.8205 64.1794C33.8505 64.1894 33.8204 64.1794 33.7904 64.1694C33.7504 64.1194 33.7004 64.0794 33.6604 64.0294C33.4704 63.7094 33.2805 63.3895 33.1005 63.0995C33.0305 63.3095 32.9605 63.5294 32.8705 63.7994C33.1105 63.8694 33.3905 63.9394 33.6705 64.0194C33.7205 64.0594 33.7705 64.1094 33.8105 64.1494ZM26.8505 61.6994C26.8505 61.6994 26.8805 61.7694 26.8705 61.7294C26.9105 61.7494 26.8705 61.7295 26.8405 61.7195C26.8305 61.6895 26.8105 61.6495 26.8305 61.6895C26.7905 61.6695 26.8305 61.6894 26.8605 61.6994H26.8505ZM50.0304 58.7394C50.0304 58.7394 50.0605 58.8094 50.0405 58.7694C50.0905 58.7894 50.0404 58.7694 50.0104 58.7594C49.9804 58.7094 49.9505 58.6495 49.9205 58.5995C49.7405 58.4395 49.6304 58.1194 49.2604 58.4294C49.4804 58.4794 49.7105 58.5294 49.9305 58.5794C49.9605 58.6294 49.9904 58.6794 50.0204 58.7394H50.0304ZM56.6005 58.2195C56.6005 58.2195 56.6305 58.2895 56.6105 58.2495C56.6505 58.2695 56.6105 58.2494 56.5805 58.2394C56.5605 58.2094 56.5505 58.1695 56.5705 58.2195C56.5305 58.1995 56.5705 58.2194 56.6005 58.2294V58.2195ZM56.1005 57.6895C56.1005 57.6895 56.1105 57.7694 56.1005 57.7294C56.1305 57.7594 56.1005 57.7294 56.0805 57.7094C56.0305 57.6694 55.9905 57.6294 55.9405 57.5894C55.9005 57.5494 55.8605 57.4994 55.8205 57.4594C55.8005 57.4294 55.7805 57.4095 55.8005 57.4395C55.7505 57.4395 55.8005 57.4395 55.8305 57.4395C55.8705 57.4795 55.9105 57.5295 55.9505 57.5695C56.0005 57.6095 56.0405 57.6494 56.0905 57.6994L56.1005 57.6895ZM95.3705 60.0094C95.3705 60.0094 95.3905 60.0794 95.3705 60.0394C95.4105 60.0694 95.3705 60.0394 95.3505 60.0194C95.2905 59.9894 95.2306 59.9494 95.1606 59.9194C95.1606 59.9494 95.1405 59.9794 95.1305 60.0094H95.3605H95.3705ZM32.1404 57.4395C32.1404 57.4895 32.1404 57.5494 32.1404 57.4794C32.1804 57.5394 32.1505 57.4994 32.1205 57.4594C32.1105 57.3494 32.1005 57.2294 32.0805 57.0594C31.9805 57.1694 31.9305 57.2194 31.8505 57.3094C31.9705 57.3694 32.0504 57.4094 32.1404 57.4494V57.4395ZM36.1105 58.4995C36.0205 58.6395 35.9305 58.7695 35.8305 58.9095C35.8905 58.9295 35.9504 58.9495 36.0104 58.9695C36.0404 58.8095 36.0605 58.6394 36.0905 58.4794C36.1205 58.4594 36.1605 58.4494 36.1205 58.4594C36.1405 58.4194 36.1205 58.4594 36.1105 58.4894V58.4995ZM68.5505 53.7195C68.3405 53.8995 68.1304 54.0894 67.9104 54.2694C68.3804 54.3194 68.4704 54.0194 68.5304 53.7094C68.5804 53.6694 68.6205 53.6294 68.6705 53.5894C68.8005 53.5294 68.9305 53.4794 69.0505 53.4194C69.2605 53.3194 69.4605 53.1194 69.6705 53.1094C70.2805 53.0894 70.9104 53.0794 71.5104 53.1994C72.1604 53.3294 72.7805 53.6094 73.4205 53.8294V54.5094C73.3005 54.5694 73.1705 54.6094 73.0705 54.6794C71.8105 55.4994 70.4504 55.5394 69.0304 55.2694C68.4304 55.1494 67.8504 55.1294 67.2504 55.4794C67.0404 56.4594 66.7705 57.4594 66.6205 58.4794C66.4305 59.7594 66.3405 61.0595 66.2205 62.3495C66.1505 63.0895 66.1904 63.8594 66.0204 64.5794C65.8104 65.4794 65.8305 66.3594 65.8705 67.2594C65.8305 67.2694 65.8005 67.2794 65.8405 67.2594C65.8205 67.2994 65.8405 67.2594 65.8505 67.2394C65.9605 67.1494 66.1005 67.0694 66.1905 66.9594C67.0705 65.9194 67.9305 64.8694 68.8205 63.8394C69.1205 63.4894 69.4705 63.1794 69.8305 62.8894C70.7705 62.1594 71.6805 61.3794 72.8105 60.8994C73.8705 60.4494 74.8405 59.8094 75.8605 59.2694C76.7005 58.8294 77.5704 58.4294 78.4104 57.9894C79.3304 57.4894 80.2604 56.9894 81.1404 56.4294C81.8604 55.9794 82.5805 55.4894 82.5905 54.4894C82.5905 53.9494 82.5905 53.4194 82.5905 52.9194C81.8105 51.8194 80.5305 51.7794 79.4905 51.2794C79.4705 51.2494 79.4605 51.2094 79.4805 51.2495C79.4405 51.2295 79.4804 51.2494 79.5104 51.2594C79.5404 51.3894 79.5704 51.5194 79.6404 51.8094C79.2404 51.5894 78.9505 51.4794 78.7205 51.2894C78.0705 50.7394 77.3104 50.4494 76.5104 50.2894C76.1004 50.2094 75.6705 50.2794 75.2405 50.2794C75.3605 50.3794 75.4905 50.3894 75.6105 50.3694C76.1605 50.3094 76.5405 50.5695 76.9505 50.9395C77.7905 51.6795 77.9604 52.7295 78.4004 53.6595C78.4304 53.7295 78.3705 53.8494 78.3505 53.9494C77.3905 53.8794 76.0505 53.2994 75.4705 52.6394C74.9905 52.0894 74.4405 51.5294 74.7405 50.6794C74.5605 50.5094 74.4104 50.3694 74.2905 50.2594C74.1705 50.2594 74.0905 50.2394 74.0405 50.2594C73.1205 50.6994 72.1804 51.1194 71.2804 51.6094C70.7104 51.9194 70.1804 52.3094 69.6604 52.6994C69.3104 52.9594 69.0205 53.2895 68.7005 53.5995C68.6505 53.6395 68.6105 53.6795 68.5605 53.7195H68.5505ZM15.1404 67.5995C15.0704 67.5695 15.0005 67.5494 14.9305 67.5194C14.9305 67.5494 14.9305 67.5894 14.9205 67.6194C15.0005 67.6094 15.0804 67.5894 15.1604 67.5794C15.1904 67.6694 15.2104 67.8094 15.2604 67.8294C15.5504 67.9094 15.8504 67.9594 16.1404 68.0094C15.8104 67.8694 15.4804 67.7295 15.1504 67.5995H15.1404ZM83.1205 47.9194C83.1005 47.8494 83.0905 47.7794 83.0705 47.7094C83.0405 47.7294 83.0205 47.7494 82.9905 47.7694C83.0405 47.8094 83.0904 47.8594 83.1404 47.8994V49.4095C83.3704 49.1195 83.5205 48.9194 83.6905 48.6994C83.4805 48.4094 83.3004 48.1595 83.1304 47.9095L83.1205 47.9194ZM100.34 70.1794C100.711 69.9794 101.071 69.7694 101.431 69.5794C101.331 69.3094 101.271 69.1394 101.161 68.8394C100.861 69.3494 100.611 69.7694 100.361 70.1994C100.331 70.2194 100.3 70.2495 100.34 70.2195C100.34 70.2595 100.34 70.2194 100.34 70.1794ZM72.8405 45.1494C72.5405 45.0794 72.2304 45.0194 71.8904 44.9494C72.1004 45.3694 71.4304 45.8995 72.1604 46.3495C72.3904 45.9295 72.6105 45.5294 72.8305 45.1394C72.8505 45.0694 72.8804 44.9994 72.9004 44.9194C72.8804 44.9194 72.8505 44.9195 72.8305 44.9095C72.8305 44.9895 72.8405 45.0695 72.8505 45.1595L72.8405 45.1494ZM99.7304 57.9894C100.27 57.8494 100.81 57.7094 101.33 57.5794V56.6494C100.89 56.9994 100.511 57.2894 100.141 57.5894C99.9905 57.7094 99.8804 57.8694 99.7504 58.0094C99.7104 58.0094 99.6804 58.0194 99.7104 58.0094C99.6804 58.0394 99.7104 58.0094 99.7404 57.9894H99.7304ZM96.3605 71.7495C97.4705 71.8395 98.4004 71.3095 99.4504 70.8795C99.2604 70.7195 99.1304 70.6194 99.0004 70.5094C98.5604 71.1694 97.9504 70.9694 97.2804 70.9494C96.9304 71.0694 96.5905 71.3394 96.3705 71.7594C96.3405 71.7794 96.3105 71.7994 96.3505 71.7694C96.3405 71.8194 96.3505 71.7794 96.3505 71.7495H96.3605ZM59.4205 44.1895C59.4205 44.1895 59.4505 44.2594 59.4305 44.2094C59.4705 44.2294 59.4304 44.2094 59.4104 44.1994C58.9004 43.8394 58.3904 43.4794 57.8804 43.1094C57.0704 43.9794 56.0305 43.7594 55.0505 43.8894C55.6805 44.0894 56.3105 44.2894 56.9405 44.3094C57.7605 44.3394 58.5905 44.2294 59.4205 44.1794V44.1895ZM80.5104 58.5894C80.7804 58.5894 81.0705 58.6494 81.3305 58.6094C81.8705 58.5194 82.3905 58.3194 82.9305 58.2594C84.3305 58.1094 85.6304 57.6294 87.0405 57.1494C86.4005 56.7194 86.3405 56.1194 86.4405 55.5094C86.5005 55.1694 86.6705 54.8294 86.8505 54.5294C87.1405 54.0695 87.5005 53.6394 87.8205 53.2094C88.0105 53.2294 88.1505 53.2394 88.3305 53.2594C88.7305 54.2394 88.9006 55.2295 88.6806 56.2794C88.7806 56.2794 88.8606 56.3195 88.9006 56.2794C89.6406 55.7994 90.3805 55.3294 91.0905 54.8094C91.5205 54.4994 91.9004 54.1294 92.2704 53.7594C92.6004 53.4294 92.6305 52.3294 92.3305 52.0894C91.8505 51.7094 91.3605 51.3395 90.8705 50.9695C90.7905 51.1095 90.6805 51.2795 90.6005 51.4695C90.2805 52.2295 89.7606 52.6294 88.8905 52.7294C88.2405 52.7994 87.6405 52.8994 87.0805 52.5894C86.8005 52.7494 86.5705 52.8894 86.3405 53.0194C85.7305 54.3194 84.7605 55.3194 83.7305 56.2694C82.7505 57.1694 81.6804 57.9495 80.5304 58.5995V58.6194L80.5104 58.5794V58.5894ZM55.5705 57.0594C55.5705 57.0594 55.5905 57.1394 55.5705 57.0894C55.6105 57.1194 55.5705 57.0895 55.5505 57.0695C55.3005 55.8995 55.4104 54.7594 55.7604 53.5894C55.9704 53.5994 56.1505 53.6195 56.3405 53.6295C56.7205 54.2995 57.1105 54.9294 57.4305 55.5894C57.8605 56.4694 57.9005 57.3494 57.3005 58.0894C57.2805 58.4494 57.2704 58.7294 57.2504 59.0194C58.1404 60.2294 59.1105 61.4294 59.9305 62.7094C60.7305 63.9594 61.3805 65.3094 62.0805 66.5794C62.1505 66.1094 62.2105 65.5995 62.3105 65.0995C62.6105 63.6495 62.9705 62.2094 63.2205 60.7495C63.4605 59.3295 63.8805 57.9394 63.9805 56.4894C64.0505 55.4194 64.3305 54.3595 64.4805 53.2794C64.6405 52.0895 64.7005 50.8994 64.7105 49.7094C64.7105 49.2294 64.6305 48.7994 64.4705 48.3394C63.9905 46.9694 62.9504 46.2794 61.6504 45.8894C61.1904 45.7494 60.6905 45.6794 60.2105 45.6194C59.9705 45.5894 59.6804 45.5094 59.5304 45.8894C60.1104 46.6094 59.8805 47.3294 59.4205 48.0194C59.2705 48.2494 59.0904 48.4695 58.9004 48.6595C58.5804 48.9695 58.2405 49.2494 57.9205 49.5494C58.5005 49.7994 59.0704 50.0494 59.6404 50.2994C59.7104 50.7694 59.5705 51.0994 59.2105 51.2594C57.9505 51.8294 56.6404 51.9394 55.2905 51.6994C54.8405 51.6194 54.3805 51.4295 53.8705 51.7495C53.9305 52.4795 53.9505 53.2495 54.0605 53.9995C54.1505 54.6194 54.1705 55.2794 54.5605 55.8094C54.8805 56.2494 55.2305 56.6495 55.5705 57.0695V57.0594ZM30.4004 67.0194C31.5004 66.6594 32.5905 66.2995 33.6105 65.9695C32.1305 65.1795 30.6304 64.3794 29.1304 63.5794C29.1504 64.0094 29.2904 64.5095 28.8904 64.8195C28.5504 65.0895 28.1205 65.2495 27.7305 65.4695C28.0505 65.7195 28.3805 65.9794 28.7005 66.2294C29.3705 66.2294 29.9104 66.4894 30.4004 67.0294V67.0194ZM48.0204 58.7994C47.3504 58.2094 46.6504 57.6394 46.0104 57.0194C45.6404 56.6594 45.3304 56.2695 44.7804 56.1595C43.8304 56.9095 43.7904 57.1794 42.2704 56.9894C44.1104 57.9794 46.0304 58.4994 48.0204 58.7994ZM91.5605 72.0294H94.0905C93.5005 71.6894 93.0204 70.9794 92.7604 70.2694C92.4104 70.6494 92.0305 71.0695 91.5705 71.5695V72.0294H91.5605ZM47.1105 47.0594L47.3105 46.9894C46.9005 45.9594 46.4905 44.9294 46.0805 43.8994C45.5605 44.0694 45.1505 44.1994 44.5805 44.3894C45.9005 44.9494 46.6605 45.8595 47.1105 47.0695V47.0594ZM33.2305 58.3495C33.3805 59.2795 33.5305 60.2094 33.6905 61.1694C34.0205 60.7594 34.3005 60.4095 34.5805 60.0695C33.9605 59.6895 33.5705 59.0595 33.2405 58.3495H33.2305ZM24.5905 55.2394C24.3905 55.4594 24.2004 55.6695 24.0104 55.8795C24.2004 56.4095 24.3905 56.9494 24.6105 57.5594C24.9705 56.6994 24.9605 55.9594 24.5905 55.2394ZM13.1105 65.4995C13.0005 65.7895 12.8904 66.0494 12.7904 66.2994C13.2404 66.9994 13.9005 67.3094 14.6705 67.4494C14.0005 66.9294 13.4005 66.3494 13.1105 65.4995ZM97.6105 59.4095C96.9105 59.1995 96.4604 59.7695 95.7804 59.6295C96.0704 59.8295 96.2506 59.9594 96.4206 60.0794C96.8206 59.8594 97.1605 59.6694 97.6205 59.4194L97.6105 59.4095ZM48.9405 50.1694C48.6505 49.9394 48.4505 49.7695 48.2005 49.5695C48.0205 49.7795 47.8605 49.9694 47.7005 50.1694H48.9405ZM96.7204 58.1794C96.5704 57.9494 96.4304 57.7295 96.2604 57.4695C96.2304 57.7995 96.2106 58.0594 96.1806 58.3594C96.3606 58.2994 96.5304 58.2494 96.7204 58.1794ZM94.0905 76.9494C93.9705 77.2194 93.8704 77.4395 93.7704 77.6595C93.8004 77.6795 93.8405 77.6894 93.8705 77.7094C94.0305 77.5794 94.1905 77.4495 94.3505 77.3195C94.2805 77.2195 94.1905 77.1094 94.0805 76.9494H94.0905ZM97.2004 72.9194C97.2004 72.9194 97.2404 72.9994 97.2604 73.0394H98.0204V72.6994C97.7304 72.7794 97.4704 72.8594 97.2104 72.9294L97.2004 72.9194ZM38.4305 49.4494C38.2105 49.3094 38.0704 49.2195 37.9004 49.0995C37.8404 49.2395 37.8104 49.3194 37.7604 49.4494H38.4305ZM89.0705 40.2994C89.1305 40.3094 89.1804 40.3294 89.2404 40.3394C89.2404 40.1594 89.2604 39.9794 89.2704 39.7994H89.2004C89.1604 39.9594 89.1105 40.1294 89.0705 40.2994ZM46.9205 43.2195C46.9205 43.2195 46.9904 43.1194 47.0204 43.0794C46.9204 43.0194 46.8105 42.9594 46.7105 42.8994C46.6905 42.9294 46.6704 42.9594 46.6504 42.9794C46.7404 43.0594 46.8305 43.1395 46.9205 43.2195ZM94.3605 76.1094C94.3605 76.1094 94.3605 76.0594 94.3605 76.0294C94.2805 76.0294 94.2105 76.0294 94.1305 76.0394C94.1305 76.0594 94.1305 76.0894 94.1305 76.1094H94.3605ZM89.7204 60.0695C89.7204 60.0695 89.7204 60.1095 89.7204 60.1295H89.9804C89.9804 60.1295 89.9804 60.0895 89.9804 60.0695H89.7204ZM90.3805 60.2495C90.3805 60.2495 90.3805 60.2094 90.3705 60.1794C90.3205 60.1794 90.2604 60.1994 90.2104 60.2094C90.2104 60.2294 90.2104 60.2594 90.2204 60.2794C90.2704 60.2794 90.3305 60.2594 90.3805 60.2495ZM73.7405 40.7195V40.7594L73.7704 40.7195H73.7405ZM80.2105 58.8394C80.2105 58.8394 80.2005 58.7794 80.1905 58.7594C80.1405 58.7694 80.1005 58.7894 80.0505 58.7994C80.0505 58.8194 80.0505 58.8394 80.0605 58.8594C80.1105 58.8594 80.1605 58.8595 80.2105 58.8495V58.8394ZM32.1905 56.7394H32.1304C32.1304 56.7894 32.1304 56.8394 32.1404 56.8894C32.1604 56.8894 32.1805 56.8894 32.2005 56.8894C32.2005 56.8394 32.2005 56.7894 32.2005 56.7394H32.1905ZM100 56.3394C100 56.3394 100 56.3794 100 56.3894H100.19C100.19 56.3894 100.19 56.3494 100.19 56.3394H100ZM40.7504 73.7794H40.8105C40.8105 73.7295 40.8105 73.6795 40.8105 73.6295C40.7905 73.6295 40.7704 73.6295 40.7604 73.6295V73.7794H40.7504ZM87.3105 50.4494C87.3105 50.4494 87.2904 50.4195 87.2704 50.4095C87.2604 50.4195 87.2304 50.4294 87.2304 50.4494C87.2304 50.4594 87.2504 50.4794 87.2604 50.4894C87.2704 50.4794 87.2905 50.4594 87.3005 50.4494H87.3105ZM47.2604 50.4494C47.2604 50.4494 47.2305 50.4095 47.2205 50.4095C47.2105 50.4095 47.1905 50.4294 47.1805 50.4494C47.1905 50.4594 47.2105 50.4894 47.2205 50.4894C47.2305 50.4894 47.2504 50.4694 47.2604 50.4494ZM40.9505 27.0094C40.9505 27.0094 40.9304 26.9795 40.9104 26.9695C40.9004 26.9795 40.8705 26.9894 40.8705 27.0094C40.8705 27.0194 40.8904 27.0394 40.9004 27.0494C40.9104 27.0394 40.9305 27.0194 40.9405 27.0094H40.9505ZM47.5204 50.3195C47.5204 50.3195 47.4905 50.2894 47.4805 50.2794C47.4705 50.2894 47.4405 50.2995 47.4405 50.3195C47.4405 50.3295 47.4605 50.3494 47.4705 50.3594C47.4805 50.3494 47.5004 50.3295 47.5104 50.3195H47.5204ZM44.9104 59.1595C44.9104 59.1595 44.8805 59.1894 44.8705 59.1994C44.8805 59.2094 44.9004 59.2394 44.9104 59.2394C44.9204 59.2394 44.9405 59.2194 44.9505 59.1994C44.9405 59.1894 44.9204 59.1695 44.9104 59.1595ZM33.2205 45.9395C33.2205 45.9395 33.1905 45.9094 33.1805 45.8994C33.1705 45.9094 33.1504 45.9295 33.1404 45.9395C33.1504 45.9495 33.1705 45.9794 33.1805 45.9794C33.1905 45.9794 33.2105 45.9595 33.2205 45.9395ZM32.4505 45.6794C32.4505 45.6794 32.4204 45.6394 32.4104 45.6394C32.4004 45.6394 32.3805 45.6594 32.3605 45.6794C32.3705 45.6894 32.3904 45.7195 32.4004 45.7195C32.4104 45.7195 32.4305 45.6994 32.4505 45.6794ZM96.3105 60.5995L96.2804 60.5794C96.2604 60.5794 96.2504 60.5994 96.2404 60.6094C96.2604 60.6094 96.2905 60.6195 96.3105 60.6295V60.5894V60.5995ZM94.6606 60.7495C94.6606 60.7495 94.6305 60.7094 94.6205 60.7094C94.6105 60.7094 94.5905 60.7295 94.5705 60.7495C94.5805 60.7695 94.6005 60.7894 94.6105 60.7894C94.6205 60.7894 94.6406 60.7695 94.6606 60.7495ZM96.5905 60.8795C96.5905 60.8795 96.5605 60.8494 96.5505 60.8294C96.5305 60.8394 96.5104 60.8594 96.5104 60.8694C96.5104 60.8794 96.5305 60.8994 96.5505 60.9194C96.5705 60.9094 96.5805 60.8895 96.6005 60.8795H96.5905ZM95.6904 61.1394C95.6904 61.1394 95.6606 61.1094 95.6506 61.0894C95.6306 61.0994 95.6105 61.1195 95.6105 61.1295C95.6105 61.1395 95.6306 61.1594 95.6506 61.1794C95.6706 61.1694 95.6804 61.1494 95.7004 61.1394H95.6904ZM82.5505 62.4294C82.5505 62.4294 82.5204 62.3894 82.5104 62.3894C82.5004 62.3894 82.4805 62.4094 82.4605 62.4294C82.4705 62.4394 82.4904 62.4695 82.5004 62.4695C82.5104 62.4695 82.5305 62.4494 82.5505 62.4294ZM82.8105 62.5594C82.8105 62.5594 82.7804 62.5194 82.7704 62.5194C82.7604 62.5194 82.7405 62.5394 82.7205 62.5594C82.7305 62.5794 82.7504 62.5995 82.7604 62.5995C82.7704 62.5995 82.7905 62.5794 82.8105 62.5594ZM71.8205 44.6994C71.8205 44.6994 71.8605 44.6695 71.8605 44.6595C71.8605 44.6495 71.8405 44.6294 71.8205 44.6194C71.8105 44.6294 71.7804 44.6495 71.7804 44.6595C71.7804 44.6695 71.8005 44.6894 71.8205 44.6994ZM12.7504 64.1094C12.7504 64.1094 12.7305 64.0695 12.7105 64.0695C12.7005 64.0695 12.6805 64.0895 12.6705 64.0995C12.6805 64.1095 12.6905 64.1394 12.7105 64.1394C12.7205 64.1394 12.7404 64.1194 12.7504 64.1094ZM27.4305 65.2694C27.4305 65.2694 27.4004 65.2294 27.3904 65.2294C27.3804 65.2294 27.3605 65.2494 27.3505 65.2694C27.3605 65.2794 27.3804 65.3094 27.3904 65.3094C27.4004 65.3094 27.4205 65.2894 27.4305 65.2694ZM33.9605 65.9995C33.9605 65.9995 33.9304 66.0294 33.9104 66.0394C33.9204 66.0594 33.9405 66.0794 33.9505 66.0794C33.9605 66.0794 33.9804 66.0594 34.0004 66.0394C33.9904 66.0194 33.9705 66.0094 33.9605 65.9894V65.9995ZM13.7405 68.0594C13.7405 68.0594 13.7105 68.0895 13.6905 68.0995C13.7005 68.1195 13.7205 68.1394 13.7305 68.1394C13.7405 68.1394 13.7604 68.1194 13.7804 68.1094C13.7704 68.0894 13.7505 68.0794 13.7405 68.0594ZM17.7804 68.3694C17.7804 68.3694 17.7505 68.3294 17.7405 68.3294C17.7305 68.3294 17.7105 68.3494 17.6905 68.3694C17.7005 68.3894 17.7205 68.4095 17.7305 68.4095C17.7405 68.4095 17.7604 68.3894 17.7804 68.3694ZM45.8505 41.1895L45.8105 41.1494C45.8105 41.1494 45.7704 41.1795 45.7704 41.1895C45.7704 41.1995 45.7905 41.2194 45.8105 41.2294C45.8205 41.2194 45.8405 41.1995 45.8505 41.1895ZM73.6205 40.4594C73.6205 40.4594 73.6604 40.4294 73.6604 40.4194C73.6604 40.4094 73.6405 40.3894 73.6205 40.3694C73.6005 40.3794 73.5805 40.3995 73.5805 40.4095C73.5805 40.4195 73.6005 40.4394 73.6205 40.4594ZM97.1005 69.7694C97.1005 69.7694 97.0705 69.7395 97.0605 69.7195C97.0505 69.7295 97.0204 69.7494 97.0204 69.7594C97.0204 69.7694 97.0405 69.7894 97.0605 69.7994C97.0705 69.7894 97.0905 69.7694 97.1005 69.7594V69.7694ZM23.9505 69.8894C23.9505 69.8894 23.9204 69.8595 23.9104 69.8495C23.9004 69.8595 23.8705 69.8794 23.8705 69.8894C23.8705 69.8994 23.8904 69.9194 23.9104 69.9294C23.9204 69.9194 23.9405 69.8994 23.9505 69.8894ZM94.3905 72.0894C94.3905 72.0894 94.3605 72.0494 94.3505 72.0494C94.3405 72.0494 94.3205 72.0694 94.3005 72.0894C94.3105 72.0994 94.3305 72.1295 94.3405 72.1295C94.3505 72.1295 94.3706 72.1094 94.3905 72.0894ZM77.3904 37.9594C77.3904 37.9594 77.3605 37.9295 77.3505 37.9095C77.3405 37.9195 77.3105 37.9394 77.3105 37.9494C77.3105 37.9594 77.3305 37.9794 77.3505 37.9894C77.3605 37.9794 77.3804 37.9594 77.3904 37.9494V37.9594ZM40.8205 74.0094L40.7804 73.9594C40.7804 73.9594 40.7405 73.9895 40.7405 73.9995C40.7405 74.0094 40.7604 74.0294 40.7804 74.0494C40.8004 74.0394 40.8105 74.0194 40.8305 74.0094H40.8205ZM90.0104 74.1494C90.0104 74.1494 89.9804 74.1094 89.9704 74.1094C89.9604 74.1094 89.9406 74.1294 89.9206 74.1494C89.9306 74.1694 89.9504 74.1895 89.9604 74.1895C89.9704 74.1895 89.9904 74.1694 90.0104 74.1494ZM94.8605 76.1595C94.8605 76.1595 94.8305 76.1894 94.8105 76.1994C94.8205 76.2194 94.8405 76.2394 94.8505 76.2394C94.8605 76.2394 94.8806 76.2194 94.9006 76.1994C94.8906 76.1794 94.8705 76.1694 94.8605 76.1494V76.1595ZM36.2604 58.1394C36.2604 58.1394 36.2205 58.1694 36.2205 58.1794C36.2205 58.1894 36.2404 58.2094 36.2604 58.2294C36.2704 58.2194 36.3005 58.1995 36.3005 58.1895C36.3005 58.1795 36.2804 58.1594 36.2604 58.1394Z" fill="black"/>
</svg>
