<svg width="122" height="122" viewBox="0 0 122 122" fill="none" xmlns="http://www.w3.org/2000/svg">
<path d="M61 122C94.6894 122 122 94.6894 122 61C122 27.3106 94.6894 0 61 0C27.3106 0 0 27.3106 0 61C0 94.6894 27.3106 122 61 122Z" fill="#C9235F"/>
<path d="M49.2505 31.03C49.8905 33.19 49.0005 35.49 47.5905 37.01C44.7905 39.94 40.2104 39.05 38.0404 42.87C36.8904 46.31 33.5805 49.87 29.7605 50C27.6005 50.51 24.9205 50 23.0105 51.27C21.7405 53.18 22.5005 55.85 22.8805 57.89C20.8405 57.38 19.8204 55.22 19.3204 53.43C19.1904 51.65 19.0705 49.36 20.7205 48.46C24.2805 48.46 27.4704 47.19 30.6504 46.17C34.3404 44.64 34.3404 39.8 38.0304 38.02C40.9604 37.13 44.4004 36.87 46.4304 34.2C46.8104 33.56 46.8104 32.42 46.6804 31.78C46.4304 31.14 45.7904 30.51 45.1504 30.25C44.5104 30.12 43.4905 29.87 43.1105 30.5C42.9805 30.5 42.8605 30.63 42.8605 30.37C43.3705 28.97 44.7704 28.46 46.0404 28.46C47.1904 28.84 48.8405 29.48 49.2205 31.01" fill="white"/>
<path d="M83.8807 43.89C84.1307 43.76 84.3906 43.51 84.7706 43.51C84.9006 44.78 83.3707 45.29 82.4807 45.8C77.9007 47.07 73.8207 45.16 70.3807 42.62C66.0507 40.33 60.1907 39.06 55.9907 42.49C55.6107 42.24 55.8607 41.6 55.9907 41.22C58.6607 37.91 62.6107 36.13 66.9406 36.89C71.6507 38.04 75.2206 41.98 79.6706 43.77C80.9406 44.28 82.4707 44.02 83.8707 43.9" fill="white"/>
<path d="M89.991 46.31C92.921 51.28 98.781 52.04 102.851 55.73C104.381 57.64 105.271 59.8 105.271 62.35C105.271 62.48 105.141 62.48 105.021 62.48C102.091 56.24 94.451 57.51 91.011 52.04C89.481 49.75 88.5909 47.07 88.4609 44.27L88.5909 44.02C89.4809 44.53 89.481 45.55 89.991 46.31Z" fill="white"/>
<path d="M47.9709 46.69C47.8409 47.2 47.3309 47.33 47.0809 47.71C45.6809 48.86 44.151 49.75 43.011 51.15C42.251 51.28 41.611 51.02 41.101 50.51C40.461 50 40.5909 48.98 40.4609 48.22C41.6109 47.84 42.8809 47.46 44.0209 47.33C45.1709 46.82 46.5709 47.08 47.4609 46.44C47.5909 46.57 47.9709 46.31 47.9709 46.69Z" fill="white"/>
<path d="M75.8605 56.88C78.9205 58.54 83.1204 59.68 86.3004 57.64C86.6804 58.4 85.4104 58.79 85.1504 59.42C82.6004 61.2 79.1705 61.71 76.1105 60.69C71.1405 59.16 67.3205 54.71 61.9805 53.69C61.0905 53.69 60.3204 54.45 59.5604 53.94C61.0904 52.03 63.7604 51.27 66.3104 51.9C69.7504 53.05 72.6805 55.34 75.8605 56.87" fill="white"/>
<path d="M30.7904 55.48V56.12C29.1304 57.52 27.4804 59.18 25.3204 58.79C25.5704 58.41 26.0805 58.15 26.5905 57.9C27.6105 56.88 27.8605 55.61 27.8605 54.34C28.8805 54.59 29.7704 55.1 30.7904 55.49" fill="white"/>
<path d="M57.3908 55.61C57.5208 61.34 50.6408 61.47 48.4808 65.67C48.2308 65.67 48.1008 65.54 47.9708 65.54C47.4608 64.01 47.9708 62.74 48.6108 61.34C50.7708 58.03 55.4908 58.41 56.7608 54.46C57.4008 54.46 57.2707 55.22 57.4007 55.61" fill="white"/>
<path d="M23.7799 59.94C23.6499 63.89 24.42 67.45 27.34 70C31.92 66.82 37.14 65.03 42.87 64.78C43.25 64.91 43.89 65.03 43.51 65.67C41.6 67.83 41.35 70.89 40.2 73.44C38.67 73.44 37.78 72.17 36.51 71.91C33.96 70.64 30.53 71.27 28.49 72.8C26.96 74.46 26.58 76.87 26.83 78.91C27.47 80.31 28.61 81.46 29.89 81.97L29.38 82.35C27.34 82.1 25.5599 81.2 24.4099 79.42C23.3899 77.13 23.2599 73.95 24.6599 71.78C21.5999 68.85 21.6 63.63 23.13 60.07C23.26 59.82 23.6399 59.43 23.7699 59.94" fill="white"/>
<path d="M42.3701 85.27C41.6101 90.36 41.1001 95.96 36.2601 98.89C35.8801 99.14 35.5001 98.89 35.2401 98.76C35.7501 98 36.64 97.61 37.02 96.6C38.8 91.63 36.5101 85.27 39.8201 80.81C37.6601 80.81 35.6201 81.57 33.7101 82.72C32.8201 83.48 32.18 84.63 32.05 85.78V85.91C31.41 85.27 31.67 84.25 31.54 83.36C32.05 80.3 34.72 77.89 37.65 77.12C40.07 76.36 43.25 76.87 45.29 74.7C46.56 73.17 47.4501 71.39 47.8401 69.48C49.3701 75.72 43.5101 79.67 42.3701 85.27Z" fill="white"/>
<path d="M59.6904 24.92C66.9504 23.52 74.4604 25.05 79.5504 30.01C84.0104 34.21 87.1904 42.36 94.5704 41.09C94.9504 41.22 95.8405 41.22 96.3505 41.09C96.4805 41.85 95.5904 41.85 95.2004 42.24C94.1804 42.62 93.1604 42.88 92.0204 43.13C84.0004 43.26 79.6704 34.09 73.0504 30.91C68.7204 28.36 63.1204 27.98 58.1504 28.36C56.2404 28.74 54.5904 29.25 53.0604 30.4C52.9304 30.4 52.8104 30.4 52.6804 30.27C53.0604 29.12 53.9505 27.85 55.1005 27.21C52.5505 25.17 48.4804 24.79 45.4204 26.19C44.7804 26.44 44.2705 26.95 43.6405 27.21C43.7705 25.68 45.1704 25.05 46.1904 24.03C48.2304 22.63 50.7704 21.99 53.3204 22.37C55.6104 22.75 57.7804 23.52 59.6904 24.92Z" fill="white"/>
<path d="M68.981 46.06C73.051 47.84 76.621 50.52 81.081 51.28C82.741 51.53 84.0109 51.15 85.4109 50.39C85.9209 50.77 85.2809 51.28 85.1609 51.66C83.1209 53.7 79.431 54.72 76.631 53.57C70.651 51.66 65.5509 46.57 58.8109 47.84C58.6809 48.09 58.4309 48.09 58.3009 48.22C57.5409 46.69 59.451 46.56 60.081 45.67C62.881 44.27 66.321 44.52 68.991 46.05" fill="white"/>
<path d="M61.8504 60.7C62.6104 63.5 62.8704 66.94 61.9804 69.87C59.3104 76.87 54.4704 83.37 54.2104 91.39L54.4604 93.68C54.5904 93.93 54.8404 94.19 54.7104 94.44C54.5804 94.69 54.2004 94.69 54.0704 94.57C51.6504 90.88 52.1603 86.17 52.5403 81.71C53.1803 77.64 55.8504 74.33 57.7604 70.76C59.5404 67.2 61.0704 63.12 60.1804 59.05C60.1804 58.67 60.8204 58.8 61.0704 58.92" fill="white"/>
</svg>
