<svg width="122" height="122" viewBox="0 0 122 122" fill="none" xmlns="http://www.w3.org/2000/svg">
<path d="M61.0001 122C94.6895 122 122 94.6894 122 61C122 27.3106 94.6895 0 61.0001 0C27.3108 0 0.00012207 27.3106 0.00012207 61C0.00012207 94.6894 27.3108 122 61.0001 122Z" fill="#224922"/>
<path d="M26.9104 88.35C24.4404 85.99 22.7106 83.01 21.8206 79.72C20.9106 76.38 20.8505 72.7 21.7205 68.99C24.7005 56.25 32.2604 45.91 44.1604 38.24C44.1804 38.92 44.2206 39.61 44.3006 40.3C40.3506 44.79 35.2904 51.75 33.3804 59.67C32.3904 63.77 32.4705 67.3 33.2605 70.19C34.5305 74.88 37.6806 77.89 41.1006 78.97C46.8706 80.79 52.3106 78.53 56.8406 72.45C58.7206 69.91 60.2606 66.36 61.0906 64.46C60.0206 79.07 53.4605 88.73 41.4705 92.14C36.3005 93.62 30.9904 92.23 26.9204 88.35" fill="white"/>
<path d="M101.43 79.95C100.63 83.26 98.9204 86.24 96.5204 88.67C94.0804 91.13 90.9304 93.02 87.2804 94.12C74.7704 97.9 62.0503 96.51 49.4503 90.02C50.0303 89.66 50.6103 89.28 51.1703 88.87C57.0303 90.05 65.5803 90.95 73.4003 88.66C77.4503 87.47 80.4504 85.64 82.5604 83.52C85.9804 80.06 87.0103 75.85 86.2303 72.33C84.9103 66.42 80.2403 62.83 72.7103 61.94C69.5703 61.57 65.4603 62.04 63.4003 62.27C76.5703 55.91 88.4803 56.74 97.4403 65.43C101.31 69.18 102.77 74.47 101.44 79.94" fill="white"/>
<path d="M56.7209 19.38C59.9909 18.42 63.4209 18.41 66.7209 19.28C70.0609 20.17 73.281 21.95 76.061 24.56C85.591 33.52 90.7609 45.24 91.4409 59.41C90.8409 59.09 90.231 58.78 89.591 58.5C87.671 52.83 84.181 44.96 78.2809 39.34C75.2309 36.43 72.1409 34.74 69.2509 33.97C64.5509 32.73 60.3809 33.95 57.7409 36.38C53.2909 40.47 52.5209 46.32 55.5109 53.28C56.7609 56.19 59.091 59.6 60.321 61.27C48.211 53.03 43.1208 42.21 46.1608 30.1C47.4708 24.87 51.3209 20.97 56.7209 19.38Z" fill="white"/>
</svg>
