<svg width="122" height="122" viewBox="0 0 122 122" fill="none" xmlns="http://www.w3.org/2000/svg">
<path d="M61 122C94.6894 122 122 94.6894 122 61C122 27.3106 94.6894 0 61 0C27.3106 0 0 27.3106 0 61C0 94.6894 27.3106 122 61 122Z" fill="#6DCAD2"/>
<path d="M58.0964 37.9052L56.0964 43.3718C56.0964 43.3718 45.963 36.9718 33.4297 38.3052C38.6297 36.8385 43.963 34.9718 58.0964 37.9052Z" fill="black"/>
<path d="M26.9866 43.4012L26.1866 45.9346C26.1866 45.9346 32.9866 42.8679 38.5866 42.6012C35.7866 42.2012 30.4533 42.0679 26.9866 43.4012Z" fill="black"/>
<path d="M23.8933 51.8986L22.96 54.4319C22.96 54.4319 30.8266 50.0319 36.56 48.4319C31.2266 49.3652 29.36 49.4986 23.8933 51.8986Z" fill="black"/>
<path d="M51.4891 55.6226L53.6224 50.1559C53.6224 50.1559 37.8891 50.1559 26.2891 56.0226C32.9557 54.0226 41.0891 52.9559 51.4891 55.6226Z" fill="black"/>
<path d="M27.7662 41.4799L27.3662 42.6799C27.3662 42.6799 34.1662 40.2799 42.5662 42.2799C48.5662 42.5466 48.5662 42.5466 48.5662 42.5466C48.5662 42.5466 38.5662 38.0133 27.7662 41.4799Z" fill="black"/>
<path d="M22.1227 56.4132L21.7227 57.7466C21.7227 57.7466 36.9227 48.6799 52.1227 49.6132C47.456 48.5466 43.1893 46.4132 22.1227 56.4132Z" fill="black"/>
<path d="M60.5977 38.5159L57.9311 45.5826C57.9311 45.5826 40.3311 40.1159 25.5311 47.3159C24.4644 50.5159 24.3311 50.9159 24.3311 50.9159C24.3311 50.9159 37.6644 43.3159 56.4644 49.4493L54.0644 56.2493L61.5311 58.2493L64.1977 51.4493C64.1977 51.4493 81.3977 56.9159 96.331 49.9826C97.3977 47.0493 97.6644 46.2493 97.6644 46.2493C97.6644 46.2493 83.6644 53.3159 65.6644 47.5826C67.5311 42.3826 68.1977 40.5159 68.1977 40.5159L60.5977 38.5159Z" fill="black"/>
<path d="M79.7759 54.4519L73.6426 54.1853C73.6426 54.1853 84.7092 58.5853 94.4426 55.2519C94.7092 54.4519 94.8426 54.1853 94.8426 54.1853C94.8426 54.1853 86.0426 56.5853 79.7759 54.4519Z" fill="black"/>
<path d="M100.075 40.1573L100.475 38.8239C100.475 38.8239 87.4085 47.7573 70.3418 47.2239C75.2751 48.1573 81.0085 49.6239 100.075 40.1573Z" fill="black"/>
<path d="M95.8704 40.5185C95.8704 40.5185 84.137 45.1852 70.6704 41.0519C68.937 46.1185 68.8037 46.5185 68.8037 46.5185C68.8037 46.5185 85.4704 47.0519 95.8704 40.5185Z" fill="black"/>
<path d="M98.3133 44.8025L99.2467 42.2692C99.2467 42.2692 90.18 47.3358 85.38 48.2692C91.38 48.1358 98.3133 44.8025 98.3133 44.8025Z" fill="black"/>
<path d="M95.269 53.2906L96.069 50.8906C96.069 50.8906 87.8023 54.2239 83.4023 54.2239C86.6023 54.8906 94.469 53.9572 95.269 53.2906Z" fill="black"/>
<path d="M88.9436 58.4146C88.9436 58.4146 76.2769 59.7479 66.1436 53.6146C64.2769 58.2812 64.1436 58.8146 64.1436 58.8146C64.1436 58.8146 78.5436 62.6812 88.9436 58.4146Z" fill="black"/>
<path d="M73.4996 25.5039H50.9663L47.0996 35.2372C47.0996 35.2372 55.6329 35.3706 68.2996 39.5039C73.3663 25.7706 73.4996 25.5039 73.4996 25.5039Z" fill="black"/>
<path d="M58.0964 37.9052L56.0964 43.3718C56.0964 43.3718 45.963 36.9718 33.4297 38.3052C38.6297 36.8385 43.963 34.9718 58.0964 37.9052Z" fill="black"/>
<path d="M26.9866 43.4012L26.1866 45.9346C26.1866 45.9346 32.9866 42.8679 38.5866 42.6012C35.7866 42.2012 30.4533 42.0679 26.9866 43.4012Z" fill="black"/>
<path d="M23.8933 51.8986L22.96 54.4319C22.96 54.4319 30.8266 50.0319 36.56 48.4319C31.2266 49.3652 29.36 49.4986 23.8933 51.8986Z" fill="black"/>
<path d="M51.4891 55.6226L53.6224 50.1559C53.6224 50.1559 37.8891 50.1559 26.2891 56.0226C32.9557 54.0226 41.0891 52.9559 51.4891 55.6226Z" fill="black"/>
<path d="M27.7662 41.4799L27.3662 42.6799C27.3662 42.6799 34.1662 40.2799 42.5662 42.2799C48.5662 42.5466 48.5662 42.5466 48.5662 42.5466C48.5662 42.5466 38.5662 38.0133 27.7662 41.4799Z" fill="black"/>
<path d="M22.1227 56.4132L21.7227 57.7466C21.7227 57.7466 36.9227 48.6799 52.1227 49.6132C47.456 48.5466 43.1893 46.4132 22.1227 56.4132Z" fill="black"/>
<path d="M60.5977 38.5159L57.9311 45.5826C57.9311 45.5826 40.3311 40.1159 25.5311 47.3159C24.4644 50.5159 24.3311 50.9159 24.3311 50.9159C24.3311 50.9159 37.6644 43.3159 56.4644 49.4493L54.0644 56.2493L61.5311 58.2493L64.1977 51.4493C64.1977 51.4493 81.3977 56.9159 96.331 49.9826C97.3977 47.0493 97.6644 46.2493 97.6644 46.2493C97.6644 46.2493 83.6644 53.3159 65.6644 47.5826C67.5311 42.3826 68.1977 40.5159 68.1977 40.5159L60.5977 38.5159Z" fill="black"/>
<path d="M79.7759 54.4519L73.6426 54.1853C73.6426 54.1853 84.7092 58.5853 94.4426 55.2519C94.7092 54.4519 94.8426 54.1853 94.8426 54.1853C94.8426 54.1853 86.0426 56.5853 79.7759 54.4519Z" fill="black"/>
<path d="M100.075 40.1573L100.475 38.8239C100.475 38.8239 87.4085 47.7573 70.3418 47.2239C75.2751 48.1573 81.0085 49.6239 100.075 40.1573Z" fill="black"/>
<path d="M95.8704 40.5185C95.8704 40.5185 84.137 45.1852 70.6704 41.0519C68.937 46.1185 68.8037 46.5185 68.8037 46.5185C68.8037 46.5185 85.4704 47.0519 95.8704 40.5185Z" fill="black"/>
<path d="M98.3133 44.8025L99.2467 42.2692C99.2467 42.2692 90.18 47.3358 85.38 48.2692C91.38 48.1358 98.3133 44.8025 98.3133 44.8025Z" fill="black"/>
<path d="M95.269 53.2906L96.069 50.8906C96.069 50.8906 87.8023 54.2239 83.4023 54.2239C86.6023 54.8906 94.469 53.9572 95.269 53.2906Z" fill="black"/>
<path d="M88.9436 58.4146C88.9436 58.4146 76.2769 59.7479 66.1436 53.6146C64.2769 58.2812 64.1436 58.8146 64.1436 58.8146C64.1436 58.8146 78.5436 62.6812 88.9436 58.4146Z" fill="black"/>
<path d="M89.7573 63.9479L69.0907 63.6812L64.824 75.4146C64.824 75.4146 61.7573 83.0146 57.3573 82.4812C53.0907 81.9479 55.4907 75.2812 55.4907 75.2812L61.224 59.2812C61.224 59.2812 43.7573 54.6146 39.8907 55.2812C37.3573 62.2146 33.624 72.7479 33.624 72.7479L33.0907 74.0812C33.0907 74.0812 26.024 91.1479 48.1573 94.3479C48.1573 94.3479 73.0907 100.081 84.6907 77.5479L89.7573 63.9479Z" fill="black"/>
</svg>
