<svg width="122" height="122" viewBox="0 0 122 122" fill="none" xmlns="http://www.w3.org/2000/svg">
<path d="M61.0001 122C94.6895 122 122 94.6894 122 61C122 27.3106 94.6895 0 61.0001 0C27.3108 0 0.00012207 27.3106 0.00012207 61C0.00012207 94.6894 27.3108 122 61.0001 122Z" fill="#3B75A8"/>
<path d="M68.6402 49.6C68.6402 49.6 67.3701 43.15 67.8301 34.41C67.8301 34.41 68.4102 22.09 67.9402 19.56C67.9402 19.56 71.2802 19.45 76.1102 20.02C76.1102 20.02 79.7901 20.83 83.8201 20.83C83.8201 20.83 85.7801 26.35 86.4701 29C86.4701 29 88.2002 34.41 88.8902 35.21C88.8902 35.21 82.3301 40.73 76.3501 44.19C76.3501 44.19 69.3302 48.79 68.6402 49.6Z" fill="white" stroke="#3B75A8" stroke-width="0.5" stroke-linecap="round" stroke-linejoin="round"/>
<path d="M78.8801 51.67C78.8801 51.67 89.01 42.81 94.3 41.54C94.3 41.54 94.6501 42.69 95.3401 43.27L96.7202 44.88C96.7202 44.88 96.9901 45.49 97.1401 45.53C97.1401 45.53 97.4901 45.61 97.8301 44.99C97.8301 44.99 97.5602 44.61 97.2202 44.22C97.2202 44.22 96.5301 43.65 96.3401 43.34C96.3401 43.34 95.9601 42.46 96.6501 42.04C96.6501 42.04 97.5302 41.69 98.4102 42.62C98.4102 42.62 99.79 43.66 99.79 46.3C99.79 46.3 99.79 49.6 97.26 51.09C97.26 51.09 91.1202 50.86 88.7402 51.24C88.7402 51.24 81.3001 51.89 78.8801 51.66" fill="white"/>
<path d="M78.8801 51.67C78.8801 51.67 89.01 42.81 94.3 41.54C94.3 41.54 94.6501 42.69 95.3401 43.27L96.7202 44.88C96.7202 44.88 96.9901 45.49 97.1401 45.53C97.1401 45.53 97.4901 45.61 97.8301 44.99C97.8301 44.99 97.5602 44.61 97.2202 44.22C97.2202 44.22 96.5301 43.65 96.3401 43.34C96.3401 43.34 95.9601 42.46 96.6501 42.04C96.6501 42.04 97.5302 41.69 98.4102 42.62C98.4102 42.62 99.79 43.66 99.79 46.3C99.79 46.3 99.79 49.6 97.26 51.09C97.26 51.09 91.1202 50.86 88.7402 51.24C88.7402 51.24 81.3001 51.89 78.8801 51.66" stroke="#3B75A8" stroke-width="0.5" stroke-linecap="round" stroke-linejoin="round"/>
<path d="M106.56 63.87L109.67 63.93C109.67 63.93 110.76 66.46 110.07 69.63C110.07 69.63 109.49 73.03 109.67 74.41C109.67 74.41 106.27 74.41 106.39 69.63C106.39 69.63 106.68 66.06 106.56 63.87Z" fill="white" stroke="#3B75A8" stroke-width="0.5" stroke-linecap="round" stroke-linejoin="round"/>
<path d="M79.4006 64.62C79.4006 64.62 84.1807 63.7 89.2407 63.99C89.2407 63.99 99.7707 64.22 101.731 64.05C101.731 64.05 104.151 66.47 103.631 71.82C103.631 71.82 107.951 72.17 107.541 76.94C107.541 76.94 107.771 79.36 105.071 81.72C105.071 81.72 96.6706 76.94 93.3306 74.41C93.3306 74.41 80.6106 65.03 79.4006 64.63" fill="white"/>
<path d="M79.4006 64.62C79.4006 64.62 84.1807 63.7 89.2407 63.99C89.2407 63.99 99.7707 64.22 101.731 64.05C101.731 64.05 104.151 66.47 103.631 71.82C103.631 71.82 107.951 72.17 107.541 76.94C107.541 76.94 107.771 79.36 105.071 81.72C105.071 81.72 96.6706 76.94 93.3306 74.41C93.3306 74.41 80.6106 65.03 79.4006 64.63" stroke="#3B75A8" stroke-width="0.5" stroke-linecap="round" stroke-linejoin="round"/>
<path d="M67.8899 65.36C67.8899 65.36 76.9299 70.65 79.6299 73.24C79.6299 73.24 92.4598 83.02 95.5098 83.83C95.5098 83.83 98.6699 92.06 89.6399 96.2C89.6399 96.2 88.7798 95.91 88.2598 95.57C88.2598 95.57 83.1399 92.12 79.1099 91.77C79.1099 91.77 78.0199 94.76 70.4799 97.01C70.4799 97.01 68.5198 97.18 67.9498 97.07C67.9498 97.07 68.5299 83.2 68.3499 77.56C68.3499 77.56 68.2299 66.8 67.8899 65.36Z" fill="white" stroke="#3B75A8" stroke-width="0.5" stroke-linecap="round" stroke-linejoin="round"/>
<path d="M21.4998 88.44C21.4998 88.44 33.6397 79.92 37.2097 77.85C37.2097 77.85 53.2098 67.72 54.6498 65.99C54.6498 65.99 55.5698 67.83 55.2798 71.74C55.2798 71.74 55.0498 74.85 55.1598 75.54C55.1598 75.54 53.6598 74.56 52.7998 74.16C52.7998 74.16 51.7598 73.41 51.0198 74.68C51.0198 74.68 49.4698 77.04 49.0598 77.9C49.0598 77.9 47.9698 80.26 46.6398 81.01C46.6398 81.01 47.1598 82.51 47.5598 83.25C47.5598 83.25 48.7098 85.9 46.6398 87.57C46.6398 87.57 42.9597 90.68 42.6097 92.92C42.6097 92.92 40.6498 92.98 38.7498 92.17C38.7498 92.17 36.1598 91.13 34.5498 93.61C34.5498 93.61 32.0798 93.44 30.8098 92.4C30.8098 92.4 27.9297 89.41 27.2397 88.72C27.2397 88.72 26.4398 87.8 24.1298 88.43C24.1298 88.43 22.2297 89.35 21.4797 88.43" fill="white"/>
<path d="M21.4998 88.44C21.4998 88.44 33.6397 79.92 37.2097 77.85C37.2097 77.85 53.2098 67.72 54.6498 65.99C54.6498 65.99 55.5698 67.83 55.2798 71.74C55.2798 71.74 55.0498 74.85 55.1598 75.54C55.1598 75.54 53.6598 74.56 52.7998 74.16C52.7998 74.16 51.7598 73.41 51.0198 74.68C51.0198 74.68 49.4698 77.04 49.0598 77.9C49.0598 77.9 47.9698 80.26 46.6398 81.01C46.6398 81.01 47.1598 82.51 47.5598 83.25C47.5598 83.25 48.7098 85.9 46.6398 87.57C46.6398 87.57 42.9597 90.68 42.6097 92.92C42.6097 92.92 40.6498 92.98 38.7498 92.17C38.7498 92.17 36.1598 91.13 34.5498 93.61C34.5498 93.61 32.0798 93.44 30.8098 92.4C30.8098 92.4 27.9297 89.41 27.2397 88.72C27.2397 88.72 26.4398 87.8 24.1298 88.43C24.1298 88.43 22.2297 89.35 21.4797 88.43" stroke="#3B75A8" stroke-width="0.5" stroke-linecap="round" stroke-linejoin="round"/>
<path d="M23.4601 63.93C23.4601 63.93 28.3502 64.62 32.7802 63.99C32.7802 63.99 41.2401 63.07 45.1001 63.87L18.3401 82.17C18.3401 82.17 17.8802 82.4 17.4202 82.17C17.4202 82.17 14.6601 80.45 12.7001 76.93C12.7001 76.93 11.3202 74.8 9.5302 73.88C9.5302 73.88 9.18015 71.75 12.9802 70.08C12.9802 70.08 16.3201 68.87 19.6001 68.3C19.6001 68.3 23.1701 67.44 23.4601 63.93Z" fill="white" stroke="#3B75A8" stroke-width="0.5" stroke-linecap="round" stroke-linejoin="round"/>
<path d="M57.2097 52.59C57.2097 52.59 57.0598 37.63 57.1298 36.63C57.1298 36.63 56.8998 27.73 56.5198 25.5C56.5198 25.5 58.3598 24.89 59.6698 23.97C59.6698 23.97 62.3598 21.9 64.4298 21.36C64.4298 21.36 66.8798 24.74 66.6498 31.87C66.6498 31.87 66.2698 40.93 65.8798 43.76C65.8798 43.76 65.3398 48.13 65.8798 51.97C65.8798 51.97 69.7198 53.43 74.1698 53.2C74.1698 53.2 88.5197 52.97 90.2797 53.05C90.2797 53.05 92.3497 53.13 93.3497 53.28C93.3497 53.28 94.4198 53.43 93.4298 54.66C93.4298 54.66 92.1197 56.19 92.2797 57.42C92.2797 57.42 92.1998 58.19 92.8898 57.73C92.8898 57.73 93.4998 57.65 94.1898 57.04C94.1898 57.04 98.2599 53.59 101.25 53.59C101.25 53.59 104.17 53.51 105.09 54.05C105.09 54.05 108.7 58.88 108.85 62.11C108.85 62.11 104.17 61.57 101.64 61.65C101.64 61.65 86.2898 62.26 80.9198 62.49C80.9198 62.49 69.2598 63.03 66.4198 62.49L66.3397 87.58L62.4298 87.66C62.4298 87.66 58.0598 85.05 57.4398 75.54L57.3597 62.57C57.3597 62.57 50.1498 62.49 48.7698 62.42C48.7698 62.42 31.1198 62.5 24.1398 61.42C24.1398 61.42 19.3798 60.81 18.3798 60.5C18.3798 60.5 17.7698 59.89 17.7698 58.73C17.7698 58.73 17.8498 57.58 19.3798 57.2C19.3798 57.2 21.5298 57.05 23.0598 57.05C23.0598 57.05 24.6697 56.82 26.7397 55.21C26.7397 55.21 30.5797 52.22 34.9497 52.52C34.9497 52.52 40.6298 52.6 48.7598 53.75C48.7598 53.75 56.3597 53.98 57.1997 52.6" fill="white"/>
<path d="M57.2097 52.59C57.2097 52.59 57.0598 37.63 57.1298 36.63C57.1298 36.63 56.8998 27.73 56.5198 25.5C56.5198 25.5 58.3598 24.89 59.6698 23.97C59.6698 23.97 62.3598 21.9 64.4298 21.36C64.4298 21.36 66.8798 24.74 66.6498 31.87C66.6498 31.87 66.2698 40.93 65.8798 43.76C65.8798 43.76 65.3398 48.13 65.8798 51.97C65.8798 51.97 69.7198 53.43 74.1698 53.2C74.1698 53.2 88.5197 52.97 90.2797 53.05C90.2797 53.05 92.3497 53.13 93.3497 53.28C93.3497 53.28 94.4198 53.43 93.4298 54.66C93.4298 54.66 92.1197 56.19 92.2797 57.42C92.2797 57.42 92.1998 58.19 92.8898 57.73C92.8898 57.73 93.4998 57.65 94.1898 57.04C94.1898 57.04 98.2599 53.59 101.25 53.59C101.25 53.59 104.17 53.51 105.09 54.05C105.09 54.05 108.7 58.88 108.85 62.11C108.85 62.11 104.17 61.57 101.64 61.65C101.64 61.65 86.2898 62.26 80.9198 62.49C80.9198 62.49 69.2598 63.03 66.4198 62.49L66.3397 87.58L62.4298 87.66C62.4298 87.66 58.0598 85.05 57.4398 75.54L57.3597 62.57C57.3597 62.57 50.1498 62.49 48.7698 62.42C48.7698 62.42 31.1198 62.5 24.1398 61.42C24.1398 61.42 19.3798 60.81 18.3798 60.5C18.3798 60.5 17.7698 59.89 17.7698 58.73C17.7698 58.73 17.8498 57.58 19.3798 57.2C19.3798 57.2 21.5298 57.05 23.0598 57.05C23.0598 57.05 24.6697 56.82 26.7397 55.21C26.7397 55.21 30.5797 52.22 34.9497 52.52C34.9497 52.52 40.6298 52.6 48.7598 53.75C48.7598 53.75 56.3597 53.98 57.1997 52.6" stroke="#3B75A8" stroke-width="0.5" stroke-linecap="round" stroke-linejoin="round"/>
<path d="M69.4797 50.98C69.4797 50.98 73.5498 48.91 76.3098 46.3C76.3098 46.3 78.9198 44.23 80.3798 43C80.3798 43 87.2897 37.24 92.3497 37.24C92.3497 37.24 91.4297 41.31 86.8297 42.84C86.8297 42.84 82.2997 44.45 81.2297 45.45C81.2297 45.45 73.3997 52.89 69.4897 50.97" fill="white"/>
<path d="M69.4797 50.98C69.4797 50.98 73.5498 48.91 76.3098 46.3C76.3098 46.3 78.9198 44.23 80.3798 43C80.3798 43 87.2897 37.24 92.3497 37.24C92.3497 37.24 91.4297 41.31 86.8297 42.84C86.8297 42.84 82.2997 44.45 81.2297 45.45C81.2297 45.45 73.3997 52.89 69.4897 50.97" stroke="#3B75A8" stroke-width="0.5" stroke-linecap="round" stroke-linejoin="round"/>
<path d="M52.3705 51.2099C52.3705 51.2099 48.0705 51.9799 42.9305 47.9899C42.9305 47.9899 39.2505 44.9199 38.2505 44.0799C38.2505 44.0799 35.8704 41.7799 34.9504 41.4699C34.9504 41.4699 37.1004 40.3899 43.3204 44.5399L47.8505 48.1499C47.8505 48.1499 51.0705 50.8399 52.3805 51.2199" fill="white"/>
<path d="M52.3705 51.2099C52.3705 51.2099 48.0705 51.9799 42.9305 47.9899C42.9305 47.9899 39.2505 44.9199 38.2505 44.0799C38.2505 44.0799 35.8704 41.7799 34.9504 41.4699C34.9504 41.4699 37.1004 40.3899 43.3204 44.5399L47.8505 48.1499C47.8505 48.1499 51.0705 50.8399 52.3805 51.2199" stroke="#3B75A8" stroke-width="0.5" stroke-linecap="round" stroke-linejoin="round"/>
<path d="M55.1301 63.79C55.1301 63.79 48.1502 64.02 43.9302 67.47C43.9302 67.47 36.4902 73.15 35.8002 73.61C35.8002 73.61 27.5901 79.21 26.1301 79.9C26.1301 79.9 20.9101 82.66 20.7601 85.5C20.7601 85.5 21.0701 85.5799 22.0701 85.0399C22.0701 85.0399 28.4402 81.82 31.0502 79.82C31.0502 79.82 43.1702 71.8399 44.1702 70.7599C44.1702 70.7599 54.2201 64.24 55.1401 63.78" fill="white"/>
<path d="M55.1301 63.79C55.1301 63.79 48.1502 64.02 43.9302 67.47C43.9302 67.47 36.4902 73.15 35.8002 73.61C35.8002 73.61 27.5901 79.21 26.1301 79.9C26.1301 79.9 20.9101 82.66 20.7601 85.5C20.7601 85.5 21.0701 85.5799 22.0701 85.0399C22.0701 85.0399 28.4402 81.82 31.0502 79.82C31.0502 79.82 43.1702 71.8399 44.1702 70.7599C44.1702 70.7599 54.2201 64.24 55.1401 63.78" stroke="#3B75A8" stroke-width="0.5" stroke-linecap="round" stroke-linejoin="round"/>
<path d="M71.4006 63.3299C71.4006 63.3299 75.8506 68.4699 80.1506 70.5399C80.1506 70.5399 84.7606 73.45 86.8306 74.53L91.9707 78.2099C91.9707 78.2099 96.2706 81.4299 100.101 80.5099C100.101 80.5099 91.4307 75.1399 89.9707 73.7599C89.9707 73.7599 81.1506 67.31 79.1506 66.39C79.1506 66.39 73.1606 63.5499 71.4006 63.3199" fill="white"/>
<path d="M71.4006 63.3299C71.4006 63.3299 75.8506 68.4699 80.1506 70.5399C80.1506 70.5399 84.7606 73.45 86.8306 74.53L91.9707 78.2099C91.9707 78.2099 96.2706 81.4299 100.101 80.5099C100.101 80.5099 91.4307 75.1399 89.9707 73.7599C89.9707 73.7599 81.1506 67.31 79.1506 66.39C79.1506 66.39 73.1606 63.5499 71.4006 63.3199" stroke="#3B75A8" stroke-width="0.5" stroke-linecap="round" stroke-linejoin="round"/>
<path d="M45.0797 51.28C45.0797 51.28 41.4697 47.52 37.3297 45.3C37.3297 45.3 34.7997 44.07 34.1097 43.61C34.1097 43.61 34.7998 46.14 33.4998 47.91C33.4998 47.91 31.8898 50.44 30.8098 51.06L45.0797 51.29" fill="white"/>
<path d="M45.0797 51.28C45.0797 51.28 41.4697 47.52 37.3297 45.3C37.3297 45.3 34.7997 44.07 34.1097 43.61C34.1097 43.61 34.7998 46.14 33.4998 47.91C33.4998 47.91 31.8898 50.44 30.8098 51.06L45.0797 51.29" stroke="#3B75A8" stroke-width="0.5" stroke-linecap="round" stroke-linejoin="round"/>
<path d="M55.8197 49.75C55.8197 49.75 55.8997 28.72 54.5897 24.35C54.5897 24.35 53.0597 24.04 52.5997 23.51C52.5997 23.51 51.2197 25.58 50.9897 27.42C50.9897 27.42 50.2998 32.87 47.7698 33.56C47.7698 33.56 46.4697 33.56 45.4697 33.25C45.4697 33.25 42.7097 32.41 40.7097 33.56C40.7097 33.56 40.9398 35.71 39.0198 38.55C39.0198 38.55 45.3898 42.69 46.9998 44.23C46.9998 44.23 54.3697 49.29 55.8197 49.76" fill="white"/>
<path d="M55.8197 49.75C55.8197 49.75 55.8997 28.72 54.5897 24.35C54.5897 24.35 53.0597 24.04 52.5997 23.51C52.5997 23.51 51.2197 25.58 50.9897 27.42C50.9897 27.42 50.2998 32.87 47.7698 33.56C47.7698 33.56 46.4697 33.56 45.4697 33.25C45.4697 33.25 42.7097 32.41 40.7097 33.56C40.7097 33.56 40.9398 35.71 39.0198 38.55C39.0198 38.55 45.3898 42.69 46.9998 44.23C46.9998 44.23 54.3697 49.29 55.8197 49.76" stroke="#3B75A8" stroke-width="0.5" stroke-linecap="round" stroke-linejoin="round"/>
</svg>
