<svg width="122" height="122" viewBox="0 0 122 122" fill="none" xmlns="http://www.w3.org/2000/svg">
<path d="M122 61C122 94.7 94.7 122 61 122C27.3 122 0 94.7 0 61C0 27.3 27.3 0 61 0C94.7 0 122 27.3 122 61Z" fill="#BABABA"/>
<path d="M49.1 66.67L49.21 66.78C48.51 64.68 47.38 64.39 45.22 65.16C38.85 67.42 36.78 67.03 32.38 63.56C36.7 60.21 41.13 59.42 46.23 63.13C46.01 61.69 45.88 60.85 45.75 60.02L45.66 60.1" fill="black"/>
<path d="M51.72 26.07C49.99 16.42 51.43 13.46 58.48 12.1C62.08 11.41 64.56 14.17 66.12 20.18V14.39C70.13 18.04 68.03 21.55 67.79 25.05C68.75 23.64 69.71 22.23 70.74 20.72C71.61 24.83 68.79 30.65 64.73 33.04C61.14 35.15 57.94 34.12 55.03 31.51C54.43 30.98 53.78 30.42 53.05 30.14C46.6 27.59 45.29 23.81 48.38 17.43C49.04 20.22 49.78 23.34 50.52 26.46C50.92 26.33 51.31 26.2 51.71 26.08L51.72 26.07ZM54.08 19.12C56.11 18.12 57.6 17.09 59.25 16.64C61.38 16.07 63.57 18.45 62.71 20.23C62.32 21.05 61.04 21.67 61.04 22.38C61.04 23.01 62.25 23.64 62.91 24.26C65.27 20.66 65.05 17.94 62.15 16.03C59.14 14.05 56.72 14.89 54.08 19.12Z" fill="black"/>
<path d="M45.75 60.01C43.28 59.37 40.81 58.73 38.34 58.09L38.43 57.17C39.89 56.92 41.36 56.67 43.88 56.23C38.02 55.1 32.67 54.91 31.2 48.59C34.49 51.77 37.82 50.99 40.31 49.57C38.87 47.91 36.95 46.31 36.03 44.26C35.74 43.62 38.11 40.72 39.31 40.68C41.62 40.62 45.76 38.37 45.36 44.36C45.89 39.88 44.26 37.86 40.97 37.89C36.2 37.94 34.09 41.13 34.42 47.77C34.04 47.88 33.66 47.98 33.28 48.09C32.82 46.11 31.5 43.8 32.1 42.23C33.08 39.67 34.93 36.24 37.11 35.62C40.81 34.56 45.14 35.23 46.82 40.23L47.84 39.18C45.85 37.01 43.85 34.84 41.54 32.33C41.21 32.84 41.71 32.01 41.74 32.03C44.25 33.38 46.92 34.57 49.12 36.34C50.04 37.08 50.26 39.07 50.26 40.49C50.26 43.55 49.28 46.74 49.88 49.64C50.54 52.84 49.68 54.79 47.47 56.79C46.59 57.58 46.25 58.97 45.66 60.08L45.75 60.01Z" fill="black"/>
<path d="M80.33 48.93C84.33 49.76 87.9 51.83 90.78 47.3C90.64 52.68 87.86 54.55 77.78 56.04C80.3 56.51 81.78 56.79 83.31 57.08C81.96 60.93 75.21 56.86 75.37 63.09C80.29 59.82 85.06 59.77 89.71 63.54C84.27 68.68 78.66 65.87 72.92 64.01C73.87 62.29 74.84 60.54 75.89 58.65C74.87 57.49 73.9 56.39 73.64 56.09C74.76 51.47 76.12 47.62 76.54 43.68C76.95 39.82 79.59 40.09 81.75 40.5C83.24 40.79 85.09 42.42 85.61 43.87C86.53 46.48 84.46 47.75 82.15 48.41C81.76 48.52 81.37 48.62 80.34 48.9L80.33 48.93Z" fill="black"/>
<path d="M67.03 47.71C69.29 50.63 70.33 47.97 71.04 46.55C71.86 44.9 71.99 42.91 72.43 41.07C72.82 41.07 73.2 41.06 73.59 41.05C73.38 43.58 73.68 46.3 72.83 48.59C71.77 51.46 68.72 51.97 62.61 51.25C62.59 51.66 62.57 52.07 62.56 52.48C65.92 52.63 69.29 52.78 72.14 52.9C70.02 55.93 67.48 57.06 63.31 56.29C62.64 56.17 61.85 55.73 61.34 55.95C58.76 57.05 56.43 57.38 54.35 54.93C52.23 52.44 50.42 46.58 50.89 43.25C51.56 44.94 52.25 46.67 53.27 49.22C53.68 45.3 53.97 42.47 54.25 39.83C56.86 42.67 59.12 45.12 61.37 47.57C63.31 49.84 64.82 49.04 66.15 46.89C66.45 47.16 66.75 47.42 67.05 47.69L67.03 47.71Z" fill="black"/>
<path d="M88.68 27.31C88.22 28.2 87.76 29.09 87.3 29.99C88.31 30.45 89.34 31.3 90.34 31.26C91.59 31.21 92.81 30.44 94.23 30.42C92.84 33.36 89.49 33.91 87.47 33.12C84.21 31.84 80.91 29.53 78.82 26.76C77.09 24.47 78.13 21.22 80.64 19.67C82.69 20.05 84.28 20.35 85.88 20.66C84.09 24.03 86.44 25.65 88.67 27.32L88.68 27.31Z" fill="black"/>
<path d="M92.99 45.58C92.68 38.86 95.06 36.35 103.22 34.8C103.02 41.59 99.3 45.51 92.99 45.58Z" fill="black"/>
<path d="M67.03 47.71C66.73 47.44 66.43 47.18 66.13 46.91C65.29 45.2 64.45 43.49 63.61 41.78C62.55 42.67 61.49 43.56 60.44 44.44C58.94 42.84 58.13 41.21 60.2 39.44C61.98 38.95 63.77 38.46 65.55 37.96C68.56 35.92 70.22 36.36 70.3 39.54C70.38 42.58 71.39 46.32 67.03 47.7V47.71Z" fill="black"/>
<path d="M20.09 34.59C27.88 36.3 30.17 39.03 29.23 45.51C23.61 45.2 20.75 41.79 20.09 34.59Z" fill="black"/>
<path d="M19 51.31C25.37 48.64 28.24 49.53 32.25 55.22C27.07 58.32 23.37 57.28 19 51.31Z" fill="black"/>
<path d="M74.74 43.24C74.55 39.61 75.65 36.68 79.32 35.63C84.09 34.27 86.17 35.19 88.54 39.21C90.82 43.09 90.66 44.75 87.65 47.85C87.36 45.65 87.65 43.12 86.61 41.44C85.6 39.82 83.33 38.45 81.4 38.05C77.56 37.24 75.87 40.01 74.73 43.26L74.74 43.24Z" fill="black"/>
<path d="M103.65 49.71C99.7599 55.29 96.1599 56.44 90.8199 54.04C93.4599 48.92 95.7399 48.12 103.65 49.71Z" fill="black"/>
<path d="M79.76 76.37C76.12 73.68 72.68 71.75 73.01 67.01C78.09 66.36 79.77 68.6 79.76 76.37Z" fill="black"/>
<path d="M49.1 66.67C48.61 71.53 47.42 73.19 42.73 75.56C42.13 68.78 43.83 66.47 49.21 66.77L49.1 66.67Z" fill="black"/>
<path d="M74.19 23.88C74.86 30.6 72.12 34.87 66.88 34.37C69.42 30.73 72.04 26.97 74.19 23.88Z" fill="black"/>
<path d="M60.4399 44.44C61.4999 43.55 62.5599 42.66 63.6099 41.78C64.4499 43.49 65.2899 45.2 66.1299 46.91C64.8099 49.05 63.2999 49.85 61.3499 47.58C61.0499 46.53 60.7399 45.49 60.4399 44.44Z" fill="black"/>
<path d="M65.55 37.97C63.76 38.47 61.98 38.96 60.2 39.45C59.32 39.98 58.43 40.51 57.34 41.17C57.21 36.88 60.46 36.12 63.1 35.04C63.46 34.89 64.72 36.94 65.56 37.97H65.55Z" fill="black"/>
<path d="M90.32 28C91.08 27.19 92.64 25.98 92.46 25.63C91.7 24.12 90.62 22.64 89.31 21.59C88.44 20.89 86.98 20.92 85.79 20.62C89.19 18.83 94.27 20.96 94.73 24.62C94.88 25.83 93.96 27.36 93.11 28.42C92.81 28.79 91.28 28.17 90.31 28H90.32Z" fill="black"/>
<path d="M34.04 27.31C34.5 28.2 34.96 29.09 35.42 29.99C34.41 30.45 33.38 31.3 32.38 31.26C31.13 31.21 29.91 30.44 28.49 30.42C29.88 33.36 33.23 33.91 35.25 33.12C38.51 31.84 41.81 29.53 43.9 26.76C45.63 24.47 44.59 21.22 42.08 19.67C40.03 20.05 38.44 20.35 36.84 20.66C38.63 24.03 36.28 25.65 34.05 27.32L34.04 27.31Z" fill="black"/>
<path d="M32.3999 28C31.6399 27.19 30.0799 25.98 30.2599 25.63C31.0199 24.12 32.0999 22.64 33.4099 21.59C34.2799 20.89 35.7399 20.92 36.9299 20.62C33.5299 18.83 28.4499 20.96 27.9899 24.62C27.8399 25.83 28.7599 27.36 29.6099 28.42C29.9099 28.79 31.4399 28.17 32.4099 28H32.3999Z" fill="black"/>
<path d="M79.68 32.86C77.68 34.69 75.77 36.43 73.63 38.38C73.29 37.94 72.64 37.09 72 36.26C77.25 31.08 78.2 30.79 79.67 32.86H79.68Z" fill="black"/>
<path d="M47.2901 29.71C50.6201 31.64 53.9501 33.58 57.2701 35.51C56.4501 35.91 55.1701 36.53 54.3201 36.94C51.6301 34.59 49.2201 32.49 46.8101 30.38C46.9701 30.16 47.1301 29.93 47.3001 29.71H47.2901Z" fill="black"/>
<path d="M62.39 82.36H59.25V114.68H62.39V82.36Z" fill="black"/>
<path d="M61.58 112.03L60.33 111.93C60.41 110.86 62.41 85.61 66.29 75.34C70.3 64.72 75.67 58.65 75.9 58.4L76.83 59.23C76.78 59.29 71.38 65.39 67.46 75.78C63.64 85.88 61.59 111.77 61.57 112.03H61.58Z" fill="black"/>
<path d="M59.81 112.03C59.79 111.77 57.77 85.87 53.92 75.79C50.55 66.94 45.16 60.55 44.12 59.36L43.97 59.12L44.56 58.92L45.04 58.52C46.13 59.76 51.64 66.3 55.09 75.35C59 85.61 60.97 110.87 61.05 111.94L59.8 112.04L59.81 112.03Z" fill="black"/>
<path d="M59.25 92.78C59.22 92.69 59.22 92.68 59.21 92.44C58.99 87.95 58.03 72.72 54.8 64.98C51.82 57.83 50.6 56.04 50.59 56.02L51.61 55.3C51.66 55.37 52.9 57.15 55.96 64.5C59.26 72.43 60.24 87.85 60.46 92.38V92.53L59.87 92.57L59.25 92.78Z" fill="black"/>
<path d="M62.35 92.78L61.76 92.58L61.14 92.53V92.38C61.37 87.84 62.35 72.43 65.65 64.5C68.71 57.15 69.95 55.37 70 55.3L71.02 56.02C71.02 56.02 69.79 57.83 66.81 64.98C63.59 72.72 62.62 87.96 62.4 92.44C62.39 92.68 62.39 92.69 62.36 92.78H62.35Z" fill="black"/>
<path d="M60.54 89.4C60.54 89.29 59.63 78.59 58.64 70.78C57.73 63.67 56.15 58.43 56.14 58.38L57.34 58.02C57.36 58.07 58.97 63.42 59.89 70.63C60.89 78.47 61.79 89.2 61.8 89.31L60.55 89.41L60.54 89.4Z" fill="black"/>
<path d="M61.12 89.4L59.87 89.3C59.87 89.19 60.78 78.46 61.78 70.62C62.7 63.41 64.31 58.06 64.33 58.01L65.53 58.37C65.51 58.42 63.93 63.68 63.03 70.77C62.03 78.59 61.14 89.29 61.13 89.39L61.12 89.4Z" fill="black"/>
<path d="M66.88 57.98H64.36V59.39H66.88V57.98Z" fill="black"/>
<path d="M57.32 57.98H54.8V59.39H57.32V57.98Z" fill="black"/>
</svg>
