<svg width="122" height="122" viewBox="0 0 122 122" fill="none" xmlns="http://www.w3.org/2000/svg">
<path d="M122 61C122 94.7 94.7 122 61 122C27.3 122 0 94.7 0 61C0 27.3 27.3 0 61 0C94.7 0 122 27.3 122 61Z" fill="#BABABA"/>
<path d="M55.0584 50.4498H52.9113V42.1753H50.188V40.3947H57.8341V42.1753H55.1108V50.4498H55.0584Z" fill="black"/>
<path d="M65.8991 50.4498H63.8043V45.946C63.8043 44.8462 63.3853 44.2701 62.5474 44.2701C61.9713 44.2701 61.5524 44.4796 61.2905 44.8462C61.0287 45.2128 60.8716 45.8936 60.8716 46.7839V50.3975H58.7767V39.7139H60.8716V41.9135C60.8716 42.0706 60.8716 42.4895 60.8192 43.118L60.7668 43.7464H60.8716C61.3429 43.0132 62.0761 42.5943 63.1235 42.5943C64.0138 42.5943 64.6946 42.8561 65.1659 43.3275C65.6373 43.7988 65.8467 44.532 65.8467 45.4223V50.4498H65.8991Z" fill="black"/>
<path d="M71.1362 50.6069C69.8793 50.6069 68.9366 50.2404 68.2034 49.5595C67.4702 48.8787 67.156 47.8837 67.156 46.6268C67.156 45.3175 67.4702 44.3225 68.151 43.6417C68.7795 42.9609 69.6698 42.5943 70.8219 42.5943C71.9217 42.5943 72.7596 42.9085 73.3881 43.5369C74.0165 44.1654 74.2784 45.0033 74.2784 46.1031V47.1505H69.3032C69.3032 47.7266 69.5127 48.1979 69.8269 48.5645C70.1411 48.9311 70.6125 49.0882 71.2409 49.0882C71.7122 49.0882 72.1312 49.0358 72.5502 48.9311C72.9691 48.8264 73.3881 48.6692 73.8594 48.4598V50.0832C73.4928 50.2927 73.0739 50.3975 72.6549 50.5022C72.2359 50.5546 71.7646 50.6069 71.1362 50.6069ZM70.8219 44.113C70.3506 44.113 70.0364 44.2701 69.7745 44.532C69.5127 44.7938 69.3556 45.2128 69.3556 45.7365H72.2883C72.2883 45.2128 72.1312 44.7938 71.8693 44.532C71.6599 44.2178 71.2933 44.113 70.8219 44.113Z" fill="black"/>
<path d="M34.1626 62.2856V66.161H32.0154V56.1059H34.9481C36.3098 56.1059 37.3572 56.3677 37.9856 56.839C38.6141 57.3104 38.9807 58.0959 38.9807 59.091C38.9807 59.667 38.8235 60.1907 38.5093 60.6621C38.1951 61.1334 37.7238 61.5 37.1477 61.7619C38.6664 64.0138 39.6615 65.4802 40.1328 66.161H37.7761L35.3671 62.2856H34.1626ZM34.1626 60.5573H34.8434C35.5242 60.5573 35.9955 60.4526 36.3621 60.2431C36.7287 60.0336 36.8335 59.667 36.8335 59.1957C36.8335 58.7244 36.6764 58.3578 36.3621 58.1483C36.0479 57.9388 35.5242 57.8341 34.8434 57.8341H34.2149V60.5573H34.1626Z" fill="black"/>
<path d="M44.2701 66.3181C43.0132 66.3181 42.0705 65.9515 41.3373 65.2707C40.6041 64.5899 40.2899 63.5948 40.2899 62.3379C40.2899 61.0287 40.6041 60.0336 41.285 59.3528C41.9134 58.672 42.8037 58.3054 43.9558 58.3054C45.0556 58.3054 45.8936 58.6196 46.522 59.2481C47.1504 59.8765 47.4123 60.7144 47.4123 61.8142V62.8616H42.4371C42.4371 63.4377 42.6466 63.909 42.9608 64.2756C43.275 64.6422 43.7464 64.7993 44.3748 64.7993C44.8461 64.7993 45.2651 64.747 45.6841 64.6422C46.103 64.5375 46.522 64.3804 46.9933 64.1709V65.7944C46.6267 66.0039 46.2078 66.1086 45.7888 66.2133C45.4222 66.2657 44.8985 66.3181 44.2701 66.3181ZM44.0082 59.8241C43.5369 59.8241 43.2227 59.9813 42.9608 60.2431C42.699 60.505 42.5418 60.9239 42.5418 61.4476H45.4746C45.4746 60.9239 45.3175 60.505 45.0556 60.2431C44.7938 59.9289 44.4272 59.8241 44.0082 59.8241Z" fill="black"/>
<path d="M48.0931 69.5651C47.5694 69.5651 47.098 69.5127 46.7314 69.4079V67.7321C47.0457 67.8368 47.3599 67.8892 47.7265 67.8892C48.0931 67.8892 48.3549 67.7845 48.512 67.575C48.6692 67.3655 48.7739 67.1036 48.7739 66.6847V58.4625H50.8687V66.9989C50.8687 67.8368 50.6069 68.4653 50.1355 68.8842C49.6642 69.3032 48.9834 69.5651 48.0931 69.5651ZM48.6168 56.4724C48.6168 55.7916 48.9834 55.425 49.7689 55.425C50.5545 55.425 50.9211 55.7916 50.9211 56.4724C50.9211 56.7867 50.8163 57.0485 50.6592 57.258C50.4497 57.4151 50.1879 57.5199 49.8213 57.5199C49.0357 57.5199 48.6168 57.1533 48.6168 56.4724Z" fill="black"/>
<path d="M59.6146 62.2856C59.6146 63.5425 59.3004 64.5375 58.6195 65.2183C57.9387 65.8991 57.0484 66.2657 55.8439 66.2657C55.1107 66.2657 54.4299 66.1086 53.9062 65.7944C53.3301 65.4802 52.9112 65.0088 52.5969 64.3804C52.2827 63.7519 52.1256 63.0711 52.1256 62.2332C52.1256 60.9763 52.4398 59.9813 53.1206 59.3004C53.8015 58.6196 54.6918 58.253 55.8963 58.253C56.6295 58.253 57.3103 58.4101 57.834 58.7244C58.4101 59.0386 58.829 59.5099 59.1432 60.086C59.4575 60.6621 59.6146 61.5 59.6146 62.2856ZM54.2728 62.2856C54.2728 63.0711 54.3775 63.6472 54.6394 64.0138C54.9012 64.3804 55.3202 64.5899 55.8439 64.5899C56.42 64.5899 56.7866 64.3804 57.0484 64.0138C57.3103 63.6472 57.415 63.0711 57.415 62.2856C57.415 61.5 57.3103 60.9239 57.0484 60.5573C56.7866 60.1907 56.42 60.0336 55.8963 60.0336C55.3202 60.0336 54.9536 60.2431 54.6918 60.6097C54.4299 60.9763 54.2728 61.5524 54.2728 62.2856Z" fill="black"/>
<path d="M60.8715 56.4724C60.8715 55.7916 61.2381 55.425 62.0236 55.425C62.8092 55.425 63.1758 55.7916 63.1758 56.4724C63.1758 56.7867 63.071 57.0485 62.9139 57.258C62.7044 57.4151 62.4426 57.5199 62.076 57.5199C61.2381 57.5199 60.8715 57.1533 60.8715 56.4724ZM63.071 66.161H60.9762V58.4625H63.071V66.161Z" fill="black"/>
<path d="M71.9741 66.161H69.8792V61.6571C69.8792 61.081 69.7745 60.6621 69.565 60.4002C69.3555 60.1384 69.0413 59.9813 68.6224 59.9813C68.0463 59.9813 67.6273 60.1907 67.3655 60.5573C67.1036 60.9763 66.9465 61.6047 66.9465 62.495V66.1086H64.8517V58.4625H66.4752L66.737 59.4576H66.8418C67.0512 59.091 67.4178 58.8291 67.8368 58.6196C68.2558 58.4101 68.7271 58.3578 69.2508 58.3578C70.1411 58.3578 70.8219 58.6196 71.2933 59.091C71.7646 59.5623 71.9741 60.2955 71.9741 61.1858V66.161Z" fill="black"/>
<path d="M82.9194 66.161H77.1063V56.1059H82.9194V57.8341H79.2535V60.0336H82.6576V61.7619H79.2535V64.3804H82.9194V66.161Z" fill="black"/>
<path d="M92.8175 56.1059V62.6522C92.8175 63.3853 92.6604 64.0662 92.2938 64.5899C91.9796 65.1659 91.4559 65.5849 90.8274 65.8991C90.199 66.2133 89.4658 66.3705 88.5755 66.3705C87.2662 66.3705 86.2712 66.0562 85.538 65.3754C84.8048 64.6946 84.4382 63.8043 84.4382 62.6522V56.1059H86.5854V62.2856C86.5854 63.0711 86.7425 63.6472 87.0568 64.0138C87.371 64.3804 87.8947 64.5375 88.6279 64.5375C89.3087 64.5375 89.8324 64.3804 90.1466 64.0138C90.4608 63.6472 90.6179 63.0711 90.6179 62.2856V56.1059H92.8175Z" fill="black"/>
<path d="M52.4922 74.9592C52.4922 76.059 52.178 76.8969 51.4972 77.473C50.8164 78.0491 49.8737 78.3109 48.6168 78.3109H47.6742V81.9245H45.527V71.817H48.7739C49.9785 71.817 50.9211 72.0788 51.5496 72.6025C52.178 73.1262 52.4922 73.9118 52.4922 74.9592ZM47.6742 76.5303H48.355C49.0358 76.5303 49.5071 76.4256 49.8214 76.1637C50.1356 75.9019 50.2927 75.5353 50.2927 75.0116C50.2927 74.4879 50.1356 74.1213 49.8737 73.9118C49.6119 73.7023 49.1929 73.5452 48.5645 73.5452H47.5694V76.5303H47.6742Z" fill="black"/>
<path d="M58.7244 81.8721L58.3054 80.8247H58.253C57.8864 81.296 57.5198 81.5579 57.1532 81.7674C56.7867 81.9245 56.2629 82.0292 55.6869 82.0292C54.9537 82.0292 54.3776 81.8197 53.9586 81.4008C53.5397 80.9818 53.3302 80.3534 53.3302 79.5678C53.3302 78.7299 53.5921 78.1538 54.1681 77.7348C54.7442 77.3682 55.5821 77.1064 56.7866 77.1064L58.1483 77.054V76.7398C58.1483 75.9542 57.7293 75.5877 56.9438 75.5877C56.3153 75.5877 55.5821 75.7971 54.7442 76.1637L54.0634 74.7497C54.9537 74.2784 55.9487 74.0689 56.9961 74.0689C58.0435 74.0689 58.8291 74.2784 59.3528 74.7497C59.8765 75.2211 60.1907 75.9019 60.1907 76.7922V81.9245H58.7244V81.8721ZM58.0959 78.3109L57.258 78.3633C56.6295 78.3633 56.2106 78.468 55.8964 78.6775C55.5821 78.887 55.425 79.2012 55.425 79.6202C55.425 80.1963 55.7916 80.5105 56.4724 80.5105C56.9438 80.5105 57.3627 80.3534 57.6246 80.0915C57.9388 79.8297 58.0435 79.4631 58.0435 78.9917V78.3109H58.0959Z" fill="black"/>
<path d="M66.2133 74.0165C66.4752 74.0165 66.737 74.0165 66.9465 74.0689L66.7894 76.059C66.6323 76.0066 66.4228 76.0066 66.161 76.0066C65.4801 76.0066 64.9564 76.1637 64.5898 76.5303C64.2232 76.8969 64.0138 77.3682 64.0138 77.9967V81.9245H61.9189V74.226H63.4901L63.8043 75.5353H63.909C64.1709 75.1163 64.4851 74.7497 64.9041 74.4879C65.323 74.1737 65.742 74.0165 66.2133 74.0165Z" fill="black"/>
<path d="M71.1362 80.3534C71.5028 80.3534 71.9217 80.2486 72.4454 80.0915V81.6626C71.9217 81.8721 71.2933 82.0292 70.5077 82.0292C69.6698 82.0292 69.0413 81.8197 68.6748 81.4008C68.3082 80.9818 68.0987 80.3534 68.0987 79.4631V75.7448H67.1036V74.8545L68.2558 74.1737L68.8842 72.5502H70.2459V74.1737H72.3931V75.7448H70.2459V79.4631C70.2459 79.7773 70.3506 79.9868 70.5077 80.1439C70.6648 80.301 70.8743 80.3534 71.1362 80.3534Z" fill="black"/>
<path d="M72.4978 74.1736H74.8021L76.2685 78.5204C76.3732 78.887 76.478 79.3583 76.5303 79.882H76.5827C76.6351 79.4107 76.7398 78.9394 76.8969 78.5204L78.3109 74.1736H80.5629L77.3159 82.8671C77.0017 83.6527 76.5827 84.2811 76.059 84.7001C75.4829 85.1191 74.8545 85.2762 74.1213 85.2762C73.7547 85.2762 73.3881 85.2238 73.0739 85.1714V83.4956C73.3357 83.548 73.5976 83.6003 73.9118 83.6003C74.2784 83.6003 74.5926 83.4956 74.9068 83.2337C75.1687 83.0243 75.3782 82.6577 75.5353 82.1863L75.64 81.8197L72.4978 74.1736Z" fill="black"/>
<path d="M64.3804 22.065L68.6224 18.9752H63.3854L61.7619 14L60.1384 18.9752H54.9014L59.1434 22.065L57.5199 26.9879L61.7619 23.9504L65.9515 26.9879L64.3804 22.065Z" fill="black"/>
<path d="M44.0082 27.4068L48.2502 24.317H43.0132L41.3897 19.3941L39.8186 24.317H34.5815L38.7712 27.4068L37.2001 32.382L41.3897 29.2922L45.6317 32.382L44.0082 27.4068Z" fill="black"/>
<path d="M29.0303 42.4371L33.2723 39.3473H28.0353L26.4118 34.3721L24.7883 39.3473H19.5513L23.7933 42.4371L22.1698 47.36L26.4118 44.3225L30.6014 47.36L29.0303 42.4371Z" fill="black"/>
<path d="M23.4791 62.8616L27.6687 59.7718H22.4316L20.8605 54.849L19.237 59.7718H14L18.242 62.8616L16.6185 67.8368L20.8605 64.747L25.0502 67.8368L23.4791 62.8616Z" fill="black"/>
<path d="M29.0303 82.8671L33.2723 79.7773H28.0353L26.4118 74.8021L24.7883 79.7773H19.5513L23.7933 82.8671L22.1698 87.8423L26.4118 84.7525L30.6014 87.8423L29.0303 82.8671Z" fill="black"/>
<path d="M44.0082 97.8451L48.2502 94.8076H43.0132L41.3897 89.8324L39.8186 94.8076H34.5815L38.7712 97.8451L37.2001 102.82L41.3897 99.7828L45.6317 102.82L44.0082 97.8451Z" fill="black"/>
<path d="M64.3804 103.344L68.6224 100.254H63.3854L61.7619 95.2789L60.1384 100.254H54.9014L59.1434 103.344L57.5199 108.319L61.7619 105.229L65.9515 108.319L64.3804 103.344Z" fill="black"/>
<path d="M84.4383 97.8451L88.6803 94.8076H83.4432L81.8198 89.8324L80.2486 94.8076H75.0116L79.2536 97.8451L77.6301 102.82L81.8198 99.7828L86.0618 102.82L84.4383 97.8451Z" fill="black"/>
<path d="M99.4685 82.8671L103.711 79.7773H98.4735L96.85 74.8021L95.2265 79.7773H89.9895L94.2315 82.8671L92.608 87.8423L96.85 84.7525L101.092 87.8423L99.4685 82.8671Z" fill="black"/>
<path d="M104.758 62.8616L109 59.7718H103.763L102.139 54.849L100.516 59.7718H95.2789L99.5209 62.8616L97.8975 67.8368L102.139 64.747L106.381 67.8368L104.758 62.8616Z" fill="black"/>
<path d="M99.4685 42.4371L103.711 39.3473H98.4735L96.85 34.3721L95.2265 39.3473H89.9895L94.2315 42.4371L92.608 47.36L96.85 44.3225L101.092 47.36L99.4685 42.4371Z" fill="black"/>
<path d="M84.4383 27.4068L88.6803 24.317H83.4432L81.8198 19.3941L80.2486 24.317H75.0116L79.2536 27.4068L77.6301 32.382L81.8198 29.2922L86.0618 32.382L84.4383 27.4068Z" fill="black"/>
</svg>
