<svg width="122" height="122" viewBox="0 0 122 122" fill="none" xmlns="http://www.w3.org/2000/svg">
<path d="M61 122C94.6894 122 122 94.6894 122 61C122 27.3106 94.6894 0 61 0C27.3106 0 0 27.3106 0 61C0 94.6894 27.3106 122 61 122Z" fill="#E91D0E"/>
<path d="M85.5 62.28C81.93 71.57 70.8599 78.83 70.8599 78.83C60.2899 88.76 58.38 101.33 58.38 101.33L58.1599 101.36L58.0899 100.89C58.0899 100.89 56.2899 84.42 67.6799 74.41C78.8599 64.59 82.7 61.51 82.87 51.92C83.04 42.33 72.8499 36.56 72.8499 36.56C82.5299 24.34 81.0799 15.93 81.0799 15.93L74.4599 12.2C74.8799 26.46 67.8599 34.01 67.8599 34.01C67.5399 33.82 64.9299 32.86 64.9299 32.86C64.4199 33.31 60.4099 35.79 60.7299 35.85C61.0499 35.91 64.4199 37.89 64.4199 37.89C63.0799 39.93 57.74 43.43 57.74 43.43C55.7 42.22 52.6499 38.91 52.6499 38.91C62.0099 34.64 65.6999 30.51 65.6999 30.51C72.3799 23.66 71.4899 11.41 71.4899 11.41L62.1999 9.12C65.6399 27.18 59.3599 29.43 59.3599 29.43C53.2499 25.19 59.5299 9.14 59.5299 9.14L47.9899 14.23C46.4599 26.88 54.3499 32.64 54.3499 32.64L49.9899 34.77L49.7799 34.52C45.0299 27.56 44.9399 15.76 44.9399 15.76L38.2299 20.26C38.8199 33.5 44.5999 38 44.5999 38C35.5199 44.2 35.2598 52.09 35.2598 52.09C35.0098 63.89 46.9699 71.95 46.9699 71.95C56.5599 79.84 54.3099 87.99 54.3099 87.99C52.1499 87.27 51.5098 86.42 51.5098 86.42C51.0898 85.95 49.3899 86 49.3899 86C53.4399 89.67 53.7999 96.4 53.7999 96.4C55.0699 110.72 60.7999 112.89 60.7999 112.89C60.4599 109.75 60.6699 106.16 60.6699 106.16C60.9199 95.97 72.3399 94.66 72.3399 94.66C73.3999 94.36 72.7199 94.02 72.7199 94.02C69.0299 93.81 69.1999 92.7 69.1999 92.7C78.9999 89.01 82.0599 83.53 82.0599 83.53C89.9499 70.29 85.5 62.27 85.5 62.27V62.28ZM69.5199 40.51C69.5199 40.51 79.3899 45.6 76.8999 53.94C76.8999 53.94 76.0699 56.3 74.7999 57.31L74.4599 57.54C74.4599 57.54 74.5399 54.97 72.0599 52C72.0599 52 74.8399 50.09 75.6499 48.77C75.6499 48.77 75.5699 47.16 73.0599 44.74C73.0599 44.74 72.0399 46.61 68.7699 49.15C68.7699 49.15 63.7199 47.49 62.8299 46.31C62.8299 46.31 67.1998 42.96 69.5098 40.5L69.5199 40.51ZM48.2399 41.57C48.2399 41.57 55.9599 48.78 64.7099 51.5L64.3899 51.73C64.3899 51.73 60.4699 54.05 58.7699 55.58C58.7699 55.58 51.64 52.78 50.88 51.76C50.88 51.76 54.0199 49.47 56.1399 49.13L56.0599 48.75C56.0599 48.75 52.9599 46.84 52.5799 46.37C52.5799 46.37 49.7799 47.3 47.2699 49.68C47.2699 49.68 44.0799 46.7 43.6799 45.67L43.5699 44.93C43.5699 44.93 46.8399 41.79 48.2399 41.58V41.57ZM51.7598 67.42C51.7598 67.42 43.4199 63.32 40.0899 55.15C40.0899 55.15 38.8999 51.16 40.4299 49.25C40.4299 49.25 42.2499 51.46 44.3299 52.73C44.3299 52.73 42.4199 56.17 43.4399 58.54C43.4399 58.54 44.5399 60.32 46.0299 61.09C46.0299 61.09 45.3899 57.57 47.7699 54.68C47.7699 54.68 53.3299 56.76 55.3199 58.25C55.3199 58.25 51.08 60.84 51.75 67.42H51.7598ZM57.3299 60.47C57.3299 60.47 60.6699 56.59 68.0599 53.75C68.0599 53.75 71.5599 57.7 70.8599 61.23C70.8599 61.23 68.0899 63.62 67.7099 64.03C67.7099 64.03 65.3199 59.03 62.5199 57.98C62.5199 57.98 60.9899 58.52 59.6599 60.18L59.63 60.53C59.63 60.53 63.6999 63.3 64.0199 66.51C64.0199 66.51 64.12 67.11 63.13 68.17C63.13 68.17 59.9799 71.26 58.6699 74.06C58.6699 74.06 56.1799 72.09 55.5199 69.35C55.5199 69.35 54.3499 64.36 57.3299 60.47Z" fill="white"/>
</svg>
