<svg width="122" height="122" viewBox="0 0 122 122" fill="none" xmlns="http://www.w3.org/2000/svg">
<path d="M60.9999 122C94.6893 122 122 94.6894 122 61C122 27.3106 94.6893 0 60.9999 0C27.3106 0 0 27.3106 0 61C0 94.6894 27.3106 122 60.9999 122Z" fill="#5FB25F"/>
<mask id="mask0_1305_1535" style="mask-type:luminance" maskUnits="userSpaceOnUse" x="15" y="15" width="91" height="91">
<path d="M15.6396 105.85H105.64V15.85H15.6396V105.85Z" fill="white"/>
</mask>
<g mask="url(#mask0_1305_1535)">
<path d="M60.6496 90.54C44.2496 90.54 30.9596 77.25 30.9596 60.85C30.9596 44.45 44.2496 31.16 60.6496 31.16C77.0496 31.16 90.3397 44.45 90.3397 60.85C90.3397 77.25 77.0496 90.54 60.6496 90.54ZM95.9597 64.36C100.39 62.68 103.14 60.85 103.14 60.85C103.14 60.85 100.43 59.05 96.0596 57.38C100.03 54.89 102.33 52.6 102.33 52.6C102.33 52.6 99.3096 51.35 94.6696 50.56C98.0896 47.33 99.9096 44.62 99.9096 44.62C99.9096 44.62 96.7196 43.99 92.0396 44.11C94.7496 40.29 96.0096 37.3 96.0096 37.3C96.0096 37.3 92.7097 37.3 88.0897 38.36C90.0397 34.03 90.6896 30.8 90.6896 30.8C90.6896 30.8 87.4997 31.44 83.2297 33.35C84.2697 28.79 84.2796 25.54 84.2796 25.54C84.2796 25.54 81.2596 26.79 77.4296 29.51C77.5696 24.81 76.9396 21.6 76.9396 21.6C76.9396 21.6 74.2396 23.41 71.0196 26.81C70.2396 22.19 69.0096 19.19 69.0096 19.19C69.0096 19.19 66.6796 21.53 64.1496 25.54C62.4696 21.11 60.6396 18.36 60.6396 18.36C60.6396 18.36 58.8396 21.07 57.1696 25.44C54.6796 21.47 52.3896 19.17 52.3896 19.17C52.3896 19.17 51.1396 22.19 50.3496 26.83C47.1196 23.41 44.4096 21.59 44.4096 21.59C44.4096 21.59 43.7796 24.78 43.8996 29.46C40.0796 26.75 37.0896 25.49 37.0896 25.49C37.0896 25.49 37.0896 28.79 38.1496 33.41C33.8196 31.46 30.5896 30.81 30.5896 30.81C30.5896 30.81 31.2296 34 33.1396 38.27C28.5796 37.23 25.3297 37.22 25.3297 37.22C25.3297 37.22 26.5796 40.24 29.2996 44.07C24.5996 43.93 21.3896 44.56 21.3896 44.56C21.3896 44.56 23.1996 47.26 26.5996 50.48C21.9796 51.26 18.9696 52.49 18.9696 52.49C18.9696 52.49 21.2996 54.82 25.3196 57.35C20.8896 59.03 18.1396 60.86 18.1396 60.86C18.1396 60.86 20.8496 62.66 25.2196 64.33C21.2496 66.82 18.9496 69.11 18.9496 69.11C18.9496 69.11 21.9696 70.36 26.6096 71.15C23.1896 74.38 21.3696 77.09 21.3696 77.09C21.3696 77.09 24.5596 77.72 29.2396 77.6C26.5296 81.42 25.2696 84.41 25.2696 84.41C25.2696 84.41 28.5696 84.41 33.1896 83.35C31.2396 87.68 30.5896 90.91 30.5896 90.91C30.5896 90.91 33.7796 90.27 38.0496 88.36C37.0096 92.93 36.9996 96.17 36.9996 96.17C36.9996 96.17 40.0196 94.92 43.8496 92.2C43.7096 96.9 44.3396 100.11 44.3396 100.11C44.3396 100.11 47.0396 98.3 50.2596 94.9C51.0396 99.52 52.2696 102.53 52.2696 102.53C52.2696 102.53 54.5996 100.19 57.1296 96.18C58.8096 100.61 60.6396 103.36 60.6396 103.36C60.6396 103.36 62.4397 100.65 64.1097 96.28C66.5997 100.25 68.8896 102.55 68.8896 102.55C68.8896 102.55 70.1396 99.53 70.9296 94.89C74.1596 98.31 76.8696 100.13 76.8696 100.13C76.8696 100.13 77.4996 96.94 77.3796 92.26C81.1896 94.97 84.1896 96.23 84.1896 96.23C84.1896 96.23 84.1896 92.93 83.1296 88.3C87.4596 90.25 90.6896 90.9 90.6896 90.9C90.6896 90.9 90.0496 87.72 88.1396 83.44C92.6996 84.48 95.9496 84.49 95.9496 84.49C95.9496 84.49 94.6997 81.47 91.9797 77.64C96.6797 77.78 99.8896 77.15 99.8896 77.15C99.8896 77.15 98.0796 74.45 94.6796 71.23C99.2996 70.45 102.3 69.22 102.3 69.22C102.3 69.22 99.9696 66.89 95.9496 64.36" fill="black"/>
</g>
</svg>
