<svg width="122" height="122" viewBox="0 0 122 122" fill="none" xmlns="http://www.w3.org/2000/svg">
<path d="M61 122C94.6894 122 122 94.6894 122 61C122 27.3106 94.6894 0 61 0C27.3106 0 0 27.3106 0 61C0 94.6894 27.3106 122 61 122Z" fill="#0575C9"/>
<path d="M95.7299 86.14C94.8899 86.74 94.4498 86.71 93.6298 86.07C90.1698 83.36 86.6898 80.69 83.2498 77.95C80.8798 76.07 78.5699 74.11 76.2399 72.19C73.2799 69.74 70.3699 67.24 67.4799 64.7C64.5899 62.16 61.7699 59.56 59.0999 56.8C58.3899 56.06 57.9798 55.19 58.2698 54.09C58.6898 52.5 60.3399 51.83 61.6199 52.85C63.7399 54.54 65.7998 56.29 67.8798 58.03C70.1398 59.92 72.3899 61.81 74.6199 63.72C76.0499 64.94 77.4499 66.2 78.8699 67.43C81.0899 69.37 83.3398 71.28 85.5398 73.24C86.5598 74.15 87.5599 75.06 88.5999 75.94C89.7499 76.91 90.8499 77.94 91.9699 78.95C93.6099 80.42 95.0199 82.06 95.7299 84.2V86.13V86.14Z" fill="white"/>
<path d="M93.7901 97.57C92.2401 96.12 90.5202 94.87 88.8702 93.53C87.0402 92.04 85.1801 90.6 83.3301 89.14C81.2601 87.5 79.1902 85.85 77.1102 84.21C75.0102 82.55 72.9101 80.91 70.8101 79.25C68.6701 77.56 66.5001 75.9 64.3901 74.16C62.3901 72.51 60.2301 71.04 58.4201 69.16C57.6701 68.38 57.5502 66.9 58.2402 65.83C58.8802 64.84 60.4102 64.21 61.3502 64.68C62.2601 65.14 62.9301 65.92 63.7001 66.55C66.4401 68.81 69.1301 71.12 71.8301 73.43C73.6501 74.99 75.4401 76.59 77.2701 78.15C79.5901 80.14 81.9401 82.11 84.2601 84.1C85.7101 85.34 87.1301 86.61 88.5701 87.87C90.0301 89.15 91.5201 90.39 92.9201 91.72C94.1501 92.89 95.1901 94.23 95.5201 95.98C95.6201 96.54 95.4101 97.05 95.1801 97.55H93.7701L93.7901 97.57Z" fill="white"/>
<path d="M27.5 24.43C29.62 25.86 31.5001 27.59 33.4501 29.24C36.1101 31.5 38.7901 33.73 41.4401 36.01C43.4101 37.71 45.3401 39.46 47.3101 41.16C49.6701 43.2 52.07 45.19 54.41 47.24C55.26 47.98 56.0901 48.75 56.9601 49.46C57.2601 49.71 57.33 50.18 57.17 50.6C56.9 51.3 56.29 51.54 55.63 51.69C54.5 51.95 53.6301 51.38 52.8201 50.71C50.4601 48.77 48.11 46.83 45.76 44.88C42.76 42.41 39.75 39.96 36.77 37.46C34.82 35.82 32.96 34.09 31.02 32.44C29.73 31.35 28.5301 30.18 27.4601 28.88C26.8101 28.09 26.63 27.11 26.29 26.2C26.29 26.02 26.29 25.85 26.29 25.67C26.29 24.85 26.7 24.44 27.52 24.44L27.5 24.43Z" fill="white"/>
<path d="M95.7297 39.02C94.8497 41.26 93.0397 42.69 91.3297 44.24C89.8897 45.54 88.4197 46.8 86.9497 48.06C85.1597 49.6 83.3796 51.15 81.5296 52.63C79.9096 53.93 78.3596 55.31 76.7696 56.65C76.1796 57.15 75.5897 57.67 74.9497 58.1C73.7797 58.89 71.7997 58.62 71.1097 57.65C70.4497 56.72 70.7397 55.64 71.8197 54.75C73.0897 53.7 74.3097 52.59 75.5697 51.54C77.5997 49.84 79.6197 48.12 81.6997 46.48C84.4197 44.33 87.1897 42.24 89.9597 40.14C91.4597 39 92.9897 37.89 94.5997 36.89C95.0097 36.63 95.3597 36.72 95.7297 36.91V39.02Z" fill="white"/>
<path d="M26.5999 85.43C26.7699 83.93 27.3698 82.4 28.4598 81.04C30.3698 78.66 32.7598 76.78 34.8998 74.64C37.1198 72.43 39.4798 70.36 41.7998 68.24C43.4898 66.7 45.1998 65.17 46.9098 63.66C48.7898 61.99 50.6798 60.32 52.5898 58.69C53.7398 57.71 55.5698 58.07 56.5598 59.39C57.4298 60.55 57.0898 62.16 55.8098 63.19C54.6198 64.15 53.4798 65.17 52.3098 66.15C50.1498 67.97 47.9798 69.78 45.8198 71.6C44.2498 72.92 42.6998 74.25 41.1298 75.57C39.0498 77.31 36.9598 79.03 34.8898 80.77C33.2798 82.13 31.6798 83.5 30.0798 84.87C29.3298 85.51 28.5998 86.16 27.8198 86.75C27.5998 86.92 27.3198 87.17 26.9598 86.93C26.4698 86.6 26.6498 86.1 26.5898 85.43H26.5999Z" fill="white"/>
<path d="M95.3997 26.43C95.3797 28.1 94.4598 29.39 93.3698 30.55C90.8798 33.17 88.1198 35.5 85.4598 37.93C83.1098 40.08 80.6998 42.15 78.2898 44.23C75.0598 47.02 71.7898 49.78 68.5498 52.57C67.9498 53.09 67.3298 53.2 66.5698 52.92C65.6598 52.57 64.9698 51.95 64.4598 51.19C63.7298 50.1 64.0898 49.04 65.3098 48.07C67.1798 46.59 69.0197 45.06 70.8797 43.56C72.9897 41.87 75.0998 40.18 77.2198 38.5C79.3398 36.82 81.4598 35.16 83.5798 33.49C85.5698 31.93 87.5598 30.37 89.5598 28.82C90.9898 27.71 92.4298 26.62 93.8498 25.5C94.2398 25.2 94.6698 24.96 95.1198 25.19C95.6198 25.44 95.2797 25.99 95.3997 26.43Z" fill="white"/>
<path d="M26.6201 94.18C26.7201 93.44 26.9501 92.52 27.6901 91.86C29.1601 90.56 30.68 89.32 32.17 88.04C33.57 86.83 34.9601 85.6 36.3701 84.4C38.1301 82.91 39.91 81.44 41.67 79.95C42.99 78.83 44.2901 77.67 45.6201 76.56C47.9901 74.59 50.2901 72.53 52.7201 70.63C53.3401 70.15 53.83 69.51 54.75 69.96C55.73 70.44 56.2501 71.28 56.4901 72.28C56.6301 72.86 56.37 73.39 55.91 73.83C54.01 75.66 51.89 77.22 49.88 78.91C48.03 80.46 46.1001 81.91 44.2101 83.41C42.1801 85.02 40.1801 86.66 38.1201 88.23C35.4101 90.3 32.66 92.32 29.92 94.35C29.39 94.74 28.85 95.12 28.27 95.43C27.2 95.99 26.6201 95.61 26.6201 94.18Z" fill="white"/>
<path d="M26.8101 37.42C26.8101 37.19 26.7501 36.93 26.8201 36.72C27.0001 36.17 27.2601 35.8 27.9601 36.18C29.3101 36.9 30.5101 37.82 31.7001 38.75C34.9301 41.26 38.06 43.89 41.14 46.58C42.97 48.17 44.8201 49.74 46.6201 51.37C47.6301 52.28 48.68 53.15 49.66 54.08C50.64 55 50.5701 55.8 49.4301 56.52C48.7401 56.96 47.97 57.3 47.15 57.47C46.59 57.58 46.1201 57.29 45.7301 56.97C44.3301 55.8 42.9401 54.63 41.6101 53.39C39.1901 51.13 36.72 48.93 34.3 46.67C32.37 44.88 30.5201 43.02 28.6901 41.14C27.7101 40.13 26.71 39.02 26.8 37.42H26.8101Z" fill="white"/>
</svg>
