<svg width="122" height="122" viewBox="0 0 122 122" fill="none" xmlns="http://www.w3.org/2000/svg">
<path d="M61 122C94.6894 122 122 94.6894 122 61C122 27.3106 94.6894 0 61 0C27.3106 0 0 27.3106 0 61C0 94.6894 27.3106 122 61 122Z" fill="#BABABA"/>
<path d="M110.2 63.4C111.15 63.57 111.41 64.64 111.4 65.51C111.39 67.53 111.28 69.54 111.15 71.55C110.91 75.05 110.63 78.55 110.34 82.05C110.25 83.14 110.11 84.22 109.99 85.29C109.87 85.29 109.77 85.29 109.66 85.3C109.62 85.05 109.5 84.81 109.52 84.57C109.81 80.58 110.12 76.6 110.42 72.61C110.57 70.6 110.75 68.59 110.86 66.58C110.88 66.05 110.81 65.38 110.5 64.99C110.11 64.5 109.47 64.02 108.88 63.93C108.48 63.87 107.95 64.44 107.52 64.8C107.27 65.01 107.12 65.32 106.92 65.62C106.79 65.48 106.71 65.42 106.71 65.39C108.01 62.43 106.59 59.76 105.79 57.03C105.6 56.37 105.35 55.71 105.04 55.09C104.88 54.8 104.52 54.63 104.24 54.4C104.03 54.67 103.65 54.93 103.62 55.23C103.4 57.82 103.11 60.42 103.07 63.02C102.98 69.33 103.61 75.57 104.83 81.77C105 82.58 104.84 83.49 104.65 84.31C104.58 84.63 104.04 85.03 103.69 85.07C103.43 85.09 102.96 84.62 102.85 84.29C102.48 83.14 102.15 81.96 101.96 80.76C101.34 77.06 100.81 73.35 100.23 69.65C100.2 69.44 100.2 69.21 100.09 69.04C99.9098 68.72 99.6698 68.42 99.4498 68.12C99.1698 68.41 98.7298 68.66 98.6298 69C97.5598 73.03 96.5598 77.07 95.4898 81.08C95.2498 81.98 94.8598 82.85 94.4298 83.67C94.0698 84.35 93.3898 84.66 92.6498 84.34C91.8798 84.01 92.0998 83.34 92.2798 82.72C94.2698 76.18 95.5498 69.51 96.2198 62.72C96.4698 60.27 96.5398 57.8 96.6398 55.33C96.6598 55 96.3198 54.65 96.1398 54.32C95.8098 54.55 95.2998 54.7 95.1698 55.01C94.5598 56.37 93.9998 57.75 93.4298 59.13L91.7998 58.46C92.3298 57.22 92.6498 55.89 93.1298 54.63C93.5198 53.63 93.9098 52.61 94.4698 51.71C95.1298 50.63 96.1098 49.93 97.4498 49.84C97.8298 49.82 98.2098 49.7 98.5598 49.56C99.1898 49.3 99.5298 48.79 99.6098 48.26L101.62 48.32C101.53 49.18 102.08 49.96 103.19 50.3C103.39 50.36 103.59 50.44 103.8 50.45C105.45 50.58 106.22 51.62 106.59 53.11C107.33 56.03 108.12 58.95 108.86 61.88C109.05 62.62 109.14 63.21 110.17 63.39L110.2 63.4Z" fill="black"/>
<path d="M103.68 42.13C104.45 43.55 104.28 45.12 103.22 46.16C102.93 46.46 102.6 46.72 102.32 47.03C101.91 47.46 101.7 47.92 101.66 48.35L99.6498 48.29C99.7298 47.78 99.5498 47.24 99.0598 46.92C97.8998 46.12 97.4498 44.95 97.5598 43.56C97.6798 42.01 98.6798 40.91 100.29 40.57C101.57 40.31 103.06 41 103.67 42.14L103.68 42.13Z" fill="black"/>
<path d="M91.8399 58.48L93.4699 59.15C93.2199 59.76 92.9599 60.37 92.6999 60.98C91.8499 62.91 90.5099 63.16 89.0799 61.63C88.3899 60.9 87.9299 59.96 87.2199 59.27C86.6099 58.67 85.7899 58.32 85.0599 57.85C84.8499 58.58 84.5099 59.29 84.4599 60.03C84.0799 66.68 84.4199 73.3 85.6699 79.86C85.8199 80.63 86.1099 81.4 86.2699 82.17C86.3499 82.57 86.3599 83.01 86.2899 83.41C86.1299 84.25 85.6299 84.42 85.1099 83.77C84.6399 83.19 84.1899 82.5 84.0399 81.79C83.3299 78.43 82.7199 75.05 82.0699 71.67C82.0199 71.44 82.0199 71.16 81.8899 70.97C81.6899 70.7 81.4099 70.48 81.1599 70.24C80.9299 70.51 80.5499 70.74 80.4699 71.05C79.8699 73.36 79.3299 75.71 78.7599 78.03C78.4299 79.45 78.0799 80.87 77.7299 82.28C77.6799 82.52 77.6499 82.81 77.4899 82.96C77.1599 83.31 76.7599 83.58 76.3799 83.88C76.1799 83.47 75.7699 83.03 75.8299 82.66C76.0299 81.27 76.3399 79.88 76.6799 78.5C78.2199 72.08 78.8199 65.55 78.7099 58.96C78.6899 57.7 78.2499 57.48 77.1599 58.05L76.3199 56.37C77.3599 55.87 78.3799 55.36 79.4099 54.82C80.1399 54.44 80.4899 53.97 80.4899 53.34L83.0599 53.44C83.0599 54.31 83.7299 54.84 85.3099 55.99C86.7199 57.02 88.0999 58.08 89.5099 59.1C90.5599 59.85 91.3199 59.7 91.8299 58.5L91.8399 58.48Z" fill="black"/>
<path d="M82.5798 47.12C84.1198 47.71 84.7098 49.24 83.9898 50.78C83.3998 52.04 83.0698 52.81 83.0698 53.42L80.4998 53.32C80.4998 52.91 80.3498 52.44 80.0698 51.89C79.5998 50.98 79.1398 50.13 79.5198 49.03C80.0698 47.46 81.3098 46.64 82.5898 47.13L82.5798 47.12Z" fill="black"/>
<path d="M76.3398 56.34L77.1798 58.02C75.3498 58.97 73.5298 59.91 71.6798 60.79C70.4698 61.35 70.0298 61.16 69.5098 59.89C68.5398 57.43 67.6198 54.96 66.6598 52.5C66.4698 52 66.3898 51.21 65.6598 51.5C65.3098 51.63 64.9798 52.38 65.0198 52.83C65.3298 56.55 65.6598 60.29 66.1298 64C66.3698 65.93 66.8598 67.82 67.3198 69.7C67.5398 70.59 67.2298 71 66.4198 71.07C64.7098 71.21 63.8498 72.18 63.6598 73.8C63.4398 75.73 63.2798 77.65 63.1198 79.59C63.0598 80.31 63.1198 81.05 63.0198 81.78C62.8398 83.04 62.2698 83.45 61.0298 83.37C60.3398 83.33 59.9398 83.13 59.8598 82.28C59.5898 79.41 59.1798 76.56 58.8598 73.69C58.6698 72.06 58.2598 71.66 56.6198 71.66C55.4098 71.67 55.1098 71.24 55.3598 70.02C56.0298 66.8 56.8398 63.59 57.2498 60.32C57.5498 57.89 57.3698 55.39 57.3198 52.92C57.3198 52.56 56.9098 52.21 56.6898 51.85C56.3898 52.14 55.9498 52.37 55.7998 52.72C55.3798 53.69 54.9698 54.68 54.5798 55.66L52.5298 54.81C53.2398 53.08 53.7998 51.28 54.5898 49.6C55.3198 48.05 56.5898 46.95 58.2098 46.29C58.7098 46.08 59.2198 45.8 59.5998 45.41C59.7698 45.22 59.8798 45.03 59.9198 44.86L62.6398 44.88C62.5398 45.21 62.6798 45.55 63.0798 45.7C67.1098 47.14 68.6598 50.44 69.6398 54.23C69.9498 55.43 70.4498 56.58 70.8398 57.78C71.0798 58.5 71.5598 58.68 72.2198 58.36C73.5898 57.69 74.9598 57.02 76.3298 56.34H76.3398Z" fill="black"/>
<path d="M64.14 38.14C65.25 39.67 65.52 41.43 65.63 43.16C64.74 43.57 63.88 43.87 63.13 44.33C62.87 44.49 62.71 44.7 62.65 44.89L59.93 44.87C60.03 44.42 59.72 44.04 59.08 43.92C58.84 43.87 58.6 43.84 58.37 43.79C56.78 43.46 56.66 43.41 57.04 41.86C57.37 40.53 57.79 39.15 58.55 38.04C59.99 35.9 62.61 36.02 64.15 38.12L64.14 38.14Z" fill="black"/>
<path d="M52.5298 54.82L54.5798 55.67C54.0998 56.84 53.6198 58.02 53.1398 59.2C53.0198 59.48 52.9398 59.82 52.7398 60.04C52.3598 60.47 51.9098 60.82 51.4998 61.2C51.1698 60.78 50.7298 60.42 50.5098 59.94C49.4198 57.58 48.4098 55.17 47.3098 52.8C47.1298 52.42 46.6798 52.17 46.3598 51.86C46.1498 52.29 45.7798 52.7 45.7598 53.13C45.4098 61.54 46.7498 69.75 48.7398 77.88C49.0698 79.23 49.2698 80.61 49.4498 81.98C49.5398 82.67 49.7198 83.57 48.7398 83.79C47.7598 84.01 47.3898 83.18 47.1698 82.46C46.4998 80.23 45.8898 77.98 45.2898 75.73C44.5798 73.08 43.8998 70.43 43.1598 67.79C43.0698 67.46 42.6998 66.96 42.4498 66.96C42.1498 66.95 41.6498 67.33 41.5498 67.64C40.9398 69.54 40.2798 71.46 39.8998 73.42C39.7098 74.4 39.5498 75.39 39.4098 76.37L37.1498 76.04C37.9498 71 38.3298 65.91 38.3298 60.8C38.3398 58.3 38.1298 55.8 37.9398 53.3C37.9198 52.95 37.5198 52.63 37.2898 52.3C37.0098 52.55 36.5998 52.76 36.4698 53.08C35.7298 54.89 35.0298 56.72 34.3298 58.55L32.3398 57.78C33.2498 55.01 34.2498 52.27 35.2398 49.53C35.7398 48.14 36.3598 47 38.1798 46.89C39.2898 46.84 39.9198 46.01 39.9198 44.92L43.0298 44.68C43.0598 45.81 43.8898 46.59 45.2198 46.53C46.5798 46.47 47.2698 47.11 47.7698 48.22C48.7698 50.47 49.7898 52.72 50.8598 54.95C51.0298 55.32 51.4398 55.57 51.7298 55.87C52.0098 55.52 52.3998 55.22 52.5598 54.82H52.5298Z" fill="black"/>
<path d="M42.9599 37.57C44.1999 38.48 44.6899 40.13 44.0899 41.55C43.7899 42.28 43.3699 42.98 43.1399 43.75C43.0399 44.07 42.9899 44.39 42.9999 44.68L39.8899 44.92C39.8899 44.56 39.8199 44.17 39.6699 43.77C39.4199 43.06 38.9899 42.41 38.6599 41.72C37.9799 40.31 38.3699 38.71 39.6099 37.69C40.6899 36.81 41.8599 36.77 42.9599 37.57Z" fill="black"/>
<path d="M37.1299 76.04L39.3899 76.37C39.1199 78.23 38.8899 80.09 38.5699 81.95C38.4499 82.61 38.1099 83.28 37.6899 83.81C37.1499 84.52 36.3099 84.32 36.1599 83.44C36.0199 82.67 36.0199 81.83 36.1899 81.07C36.5499 79.4 36.8599 77.72 37.1199 76.04H37.1299Z" fill="black"/>
<path d="M34.3099 58.55C34.1199 59.02 33.9399 59.5 33.7599 59.97C33.1799 61.46 32.7799 61.72 31.2399 61.2C30.1899 60.85 29.1799 60.45 28.1599 60.01L28.9599 58.14C29.4899 58.34 30.0399 58.52 30.5999 58.67C31.4799 58.92 31.9999 58.74 32.3299 57.77L34.3199 58.54L34.3099 58.55Z" fill="black"/>
<path d="M28.9599 58.14L28.1599 60.01C27.7599 59.85 27.3799 59.68 26.9799 59.51C25.7399 58.97 25.4799 59.11 25.4099 60.49C25.2099 64.38 25.6099 68.19 26.9199 71.88C27.0699 72.31 27.1999 72.74 27.2899 73.18C27.4699 74.13 27.2599 74.83 26.2099 75.23C24.8899 75.73 24.4899 76.53 24.6299 77.93C24.7599 79.17 24.9799 80.42 24.9599 81.66C24.9599 82.44 24.8099 83.35 24.3999 83.98C23.7899 84.92 22.8899 84.7 22.6299 83.58C22.2999 82.17 22.1099 80.72 21.8099 79.29C21.6699 78.58 21.4599 77.88 21.2799 77.18C21.0399 76.29 20.5099 75.62 19.6299 75.31C18.9399 75.07 18.9699 74.65 18.9899 74.02C19.1999 69.41 19.3399 64.79 19.4899 60.19C18.4199 59.92 17.6799 59.76 16.9599 59.51C15.6399 59.07 14.5699 58.36 13.8899 57.03C12.9699 55.24 11.8599 53.55 10.8699 51.79C10.6899 51.48 10.6999 51.05 10.6299 50.67C11.0399 50.73 11.5499 50.67 11.8499 50.9C12.3399 51.26 12.7499 51.76 13.1099 52.26C14.0599 53.63 14.8999 55.07 15.8899 56.41C16.9299 57.8 17.7499 57.8 18.9299 56.59C19.1999 56.32 19.4699 56.05 19.7599 55.79C20.4399 55.19 20.5299 54.7 19.7699 54.01C18.5399 52.88 18.4199 50.98 19.3699 49.74C20.2799 48.57 22.0299 48.26 23.3199 49.04C24.7199 49.9 25.1799 51.95 24.1499 53.47C23.5299 54.39 23.7099 54.95 24.4999 55.57C25.8699 56.67 27.3599 57.51 28.9599 58.12V58.14Z" fill="black"/>
<path d="M28.9599 58.14C27.3599 57.52 25.8699 56.69 24.4999 55.59C23.7199 54.96 23.5399 54.41 24.1499 53.49C25.1899 51.97 24.7299 49.92 23.3199 49.06C22.0199 48.29 20.2799 48.59 19.3699 49.76C18.4199 50.99 18.5299 52.9 19.7699 54.03C20.5299 54.72 20.4399 55.21 19.7599 55.81C19.4799 56.06 19.2099 56.33 18.9299 56.61C17.7499 57.82 16.9199 57.82 15.8899 56.43C14.8999 55.09 14.0599 53.65 13.1099 52.28C12.7499 51.78 12.3499 51.28 11.8499 50.92C11.5499 50.69 11.0299 50.75 10.6299 50.69C10.6999 51.07 10.6899 51.5 10.8699 51.81C11.8599 53.57 12.9699 55.26 13.8899 57.05C14.5699 58.38 15.6399 59.09 16.9599 59.53C17.6799 59.78 18.4199 59.94 19.4899 60.21C19.3299 64.81 19.1999 69.43 18.9899 74.04C18.9699 74.67 18.9399 75.09 19.6299 75.33C20.5099 75.64 21.0399 76.31 21.2799 77.2C21.4699 77.9 21.6799 78.6 21.8099 79.31C22.0999 80.74 22.2899 82.19 22.6299 83.6C22.8899 84.72 23.7899 84.94 24.3999 84C24.8199 83.37 24.9599 82.46 24.9599 81.68C24.9699 80.44 24.7499 79.19 24.6299 77.95C24.4899 76.55 24.8899 75.75 26.2099 75.25C27.2599 74.85 27.4699 74.15 27.2899 73.2C27.2099 72.76 27.0699 72.33 26.9199 71.9C25.6099 68.21 25.2099 64.4 25.4099 60.51C25.4799 59.13 25.7299 58.98 26.9799 59.53C27.3799 59.7 27.7599 59.88 28.1599 60.03C29.1699 60.47 30.1899 60.88 31.2399 61.22C32.7799 61.73 33.1899 61.47 33.7599 59.99C33.9499 59.52 34.1299 59.04 34.3099 58.57C35.0099 56.74 35.7099 54.91 36.4499 53.1C36.5799 52.78 36.9799 52.57 37.2699 52.32C37.4999 52.65 37.8999 52.98 37.9199 53.32C38.1099 55.82 38.3199 58.32 38.3099 60.82C38.3099 65.94 37.9199 71.02 37.1299 76.06C36.8699 77.74 36.5499 79.42 36.1999 81.09C36.0299 81.85 36.0299 82.69 36.1699 83.46C36.3199 84.34 37.1499 84.54 37.6999 83.83C38.1199 83.3 38.4599 82.63 38.5799 81.97C38.8899 80.12 39.1199 78.26 39.3999 76.39C39.5499 75.41 39.6999 74.42 39.8899 73.44C40.2799 71.48 40.9399 69.57 41.5399 67.66C41.6399 67.35 42.1399 66.97 42.4399 66.98C42.6899 66.98 43.0599 67.47 43.1499 67.81C43.8899 70.45 44.5699 73.1 45.2799 75.75C45.8899 78 46.4899 80.25 47.1599 82.48C47.3799 83.2 47.7499 84.03 48.7299 83.81C49.7099 83.59 49.5399 82.69 49.4399 82C49.2599 80.63 49.0599 79.25 48.7299 77.9C46.7399 69.77 45.3999 61.56 45.7499 53.15C45.7699 52.72 46.1399 52.31 46.3499 51.88C46.6699 52.19 47.1199 52.44 47.2999 52.82C48.3999 55.18 49.4099 57.59 50.4999 59.96C50.7199 60.43 51.1599 60.8 51.4899 61.22C51.9099 60.84 52.3599 60.49 52.7299 60.06C52.9299 59.84 53.0099 59.51 53.1299 59.22C53.6099 58.05 54.0899 56.87 54.5699 55.69C54.9699 54.71 55.3799 53.72 55.7899 52.75C55.9399 52.4 56.3799 52.17 56.6799 51.88C56.8999 52.24 57.3099 52.59 57.3099 52.95C57.3499 55.42 57.5399 57.92 57.2399 60.35C56.8199 63.61 56.0199 66.83 55.3499 70.05C55.0999 71.27 55.3899 71.7 56.6099 71.69C58.2499 71.69 58.6599 72.09 58.8499 73.72C59.1699 76.59 59.5799 79.44 59.8499 82.31C59.9299 83.16 60.3299 83.36 61.0199 83.4C62.2499 83.48 62.8299 83.07 63.0099 81.81C63.1099 81.09 63.0499 80.35 63.1099 79.62C63.2799 77.68 63.4299 75.76 63.6499 73.83C63.8399 72.21 64.7099 71.24 66.4099 71.1C67.2199 71.03 67.5299 70.62 67.3099 69.73C66.8499 67.85 66.3599 65.95 66.1199 64.03C65.6499 60.32 65.3199 56.58 65.0099 52.86C64.9699 52.41 65.2999 51.66 65.6499 51.53C66.3799 51.25 66.4699 52.03 66.6499 52.53C67.5999 54.99 68.5199 57.46 69.4999 59.92C70.0099 61.19 70.4499 61.38 71.6699 60.82C73.5199 59.94 75.3399 59 77.1699 58.05C78.2599 57.49 78.6999 57.7 78.7199 58.96C78.8399 65.55 78.2299 72.08 76.6899 78.5C76.3599 79.88 76.0399 81.27 75.8399 82.66C75.7899 83.04 76.1999 83.48 76.3899 83.88C76.7699 83.58 77.1599 83.3 77.4999 82.96C77.6599 82.81 77.6899 82.52 77.7399 82.28C78.0899 80.87 78.4299 79.46 78.7699 78.03C79.3299 75.71 79.8799 73.36 80.4799 71.05C80.5599 70.75 80.9399 70.52 81.1699 70.24C81.4199 70.48 81.6999 70.7 81.8999 70.97C82.0299 71.16 82.0299 71.44 82.0799 71.67C82.7299 75.05 83.3399 78.43 84.0499 81.79C84.1999 82.5 84.6499 83.19 85.1199 83.77C85.6399 84.43 86.1499 84.25 86.2999 83.41C86.3699 83 86.3599 82.56 86.2799 82.17C86.1199 81.4 85.8299 80.63 85.6799 79.86C84.4199 73.3 84.0899 66.69 84.4699 60.03C84.5099 59.3 84.8599 58.59 85.0699 57.85C85.7899 58.32 86.6199 58.68 87.2299 59.27C87.9399 59.96 88.3999 60.9 89.0899 61.63C90.5199 63.16 91.8599 62.91 92.7099 60.98C92.9699 60.37 93.2299 59.76 93.4799 59.15C94.0399 57.77 94.6099 56.39 95.2199 55.03C95.3599 54.72 95.8599 54.57 96.1899 54.34C96.3699 54.67 96.7099 55.02 96.6899 55.35C96.5999 57.82 96.5199 60.29 96.2699 62.74C95.5999 69.53 94.3099 76.2 92.3299 82.74C92.1399 83.36 91.9199 84.03 92.6999 84.36C93.4399 84.68 94.1199 84.37 94.4799 83.69C94.9099 82.86 95.2999 82 95.5399 81.1C96.6099 77.08 97.6099 73.04 98.6799 69.02C98.7699 68.69 99.2099 68.43 99.4999 68.14C99.7199 68.44 99.9599 68.74 100.14 69.06C100.24 69.23 100.24 69.46 100.28 69.67C100.86 73.37 101.39 77.08 102.01 80.78C102.2 81.97 102.53 83.15 102.9 84.31C103 84.64 103.48 85.12 103.74 85.09C104.1 85.05 104.63 84.65 104.7 84.33C104.89 83.5 105.05 82.59 104.88 81.79C103.67 75.6 103.03 69.35 103.12 63.04C103.16 60.43 103.45 57.84 103.67 55.25C103.7 54.96 104.08 54.7 104.29 54.42C104.56 54.65 104.93 54.82 105.09 55.11C105.4 55.73 105.65 56.39 105.84 57.05C106.65 59.78 108.06 62.45 106.76 65.41C106.76 65.44 106.84 65.5 106.97 65.64C107.17 65.35 107.32 65.03 107.57 64.82C108 64.46 108.53 63.89 108.93 63.95C109.53 64.03 110.16 64.51 110.55 65.01C110.85 65.4 110.93 66.07 110.91 66.6C110.81 68.61 110.62 70.62 110.47 72.63C110.17 76.62 109.86 80.6 109.57 84.59C109.55 84.83 109.66 85.07 109.71 85.32C109.83 85.31 109.93 85.31 110.04 85.31C110.16 84.23 110.29 83.15 110.39 82.07C110.67 78.57 110.95 75.07 111.2 71.57C111.34 69.56 111.44 67.55 111.45 65.53C111.46 64.66 111.2 63.58 110.25 63.42C109.22 63.24 109.13 62.66 108.94 61.91C108.2 58.98 107.41 56.06 106.67 53.14C106.29 51.65 105.53 50.61 103.88 50.48C103.67 50.47 103.47 50.4 103.27 50.33C102.16 50 101.61 49.21 101.7 48.35C101.74 47.92 101.95 47.46 102.36 47.03C102.64 46.73 102.97 46.47 103.26 46.16C104.32 45.12 104.49 43.55 103.72 42.13C103.11 40.99 101.62 40.3 100.34 40.56C98.7299 40.91 97.7199 42 97.6099 43.55C97.4899 44.94 97.9399 46.11 99.1099 46.91C99.5899 47.23 99.7799 47.77 99.6999 48.28C99.6299 48.8 99.2799 49.32 98.6499 49.58C98.2999 49.73 97.9199 49.84 97.5399 49.86C96.1999 49.95 95.2199 50.66 94.5599 51.73C94.0099 52.63 93.6099 53.64 93.2199 54.65C92.7399 55.91 92.4199 57.23 91.8899 58.48C91.3799 59.67 90.6099 59.83 89.5699 59.08C88.1699 58.07 86.7899 57 85.3699 55.97C83.7899 54.82 83.1199 54.29 83.1199 53.42C83.1199 52.81 83.4499 52.04 84.0399 50.78C84.7599 49.24 84.1699 47.7 82.6299 47.12C81.3499 46.64 80.1199 47.45 79.5599 49.02C79.1799 50.12 79.6399 50.97 80.1099 51.88C80.3899 52.43 80.5399 52.91 80.5399 53.31C80.5399 53.94 80.1899 54.41 79.4599 54.79C78.4299 55.32 77.4099 55.84 76.3699 56.34C74.9999 57.02 73.6299 57.69 72.2599 58.36C71.5999 58.68 71.1199 58.51 70.8799 57.78C70.4799 56.59 69.9899 55.44 69.6799 54.23C68.6999 50.44 67.1499 47.15 63.1199 45.7C62.7199 45.55 62.5799 45.22 62.6799 44.88C62.7399 44.68 62.8999 44.47 63.1599 44.32C63.9099 43.86 64.7699 43.56 65.6599 43.15C65.5599 41.41 65.2799 39.66 64.1699 38.13C62.6299 36.03 60.0199 35.9 58.5699 38.05C57.8199 39.16 57.3999 40.54 57.0599 41.87C56.6799 43.42 56.7999 43.46 58.3899 43.8C58.6199 43.84 58.8599 43.87 59.0999 43.93C59.7399 44.06 60.0499 44.43 59.9499 44.88C59.9099 45.06 59.7899 45.25 59.6299 45.43C59.2499 45.82 58.7399 46.1 58.2399 46.31C56.6199 46.97 55.3499 48.07 54.6199 49.62C53.8199 51.3 53.2699 53.1 52.5599 54.83C52.3999 55.23 52.0199 55.53 51.7299 55.88C51.4399 55.58 51.0299 55.33 50.8599 54.96C49.7899 52.73 48.7799 50.48 47.7699 48.23C47.2699 47.11 46.5799 46.47 45.2199 46.54C43.8899 46.6 43.0599 45.82 43.0299 44.69C43.0199 44.4 43.0599 44.08 43.1699 43.76C43.3999 43 43.8199 42.3 44.1199 41.56C44.7199 40.15 44.2399 38.49 42.9899 37.58C41.8899 36.77 40.7199 36.82 39.6399 37.7C38.3999 38.71 38.0099 40.32 38.6899 41.73C39.0199 42.42 39.4499 43.07 39.6999 43.78C39.8499 44.18 39.9199 44.58 39.9199 44.93C39.9199 46.02 39.2899 46.84 38.1799 46.9C36.3599 47 35.7399 48.14 35.2399 49.54C34.2599 52.28 33.2499 55.02 32.3399 57.79C32.0199 58.76 31.4899 58.94 30.6099 58.69C30.0499 58.53 29.4999 58.36 28.9699 58.16L28.9599 58.14Z" stroke="black" stroke-miterlimit="10"/>
</svg>
