<svg width="122" height="122" viewBox="0 0 122 122" fill="none" xmlns="http://www.w3.org/2000/svg">
<path d="M61 122C94.6894 122 122 94.6894 122 61C122 27.3106 94.6894 0 61 0C27.3106 0 0 27.3106 0 61C0 94.6894 27.3106 122 61 122Z" fill="#BABABA"/>
<path d="M61.2112 84.8622C47.6613 84.8622 34.1113 84.8622 20.5614 84.8622C19.8892 84.8622 19.8892 84.8622 19.8892 84.19C19.8892 81.6428 19.8892 79.0955 19.8892 76.5483C19.8892 76.1237 19.9953 76.0176 20.4198 76.0176C47.6259 76.0176 74.8673 76.0176 102.073 76.0176C102.498 76.0176 102.604 76.1591 102.604 76.5483C102.604 79.1309 102.569 81.7135 102.604 84.3315C102.604 84.7561 102.498 84.8622 102.038 84.8622C88.4173 84.8622 74.832 84.8622 61.2112 84.8622Z" fill="black"/>
<path d="M47.5552 54.3307C47.5552 49.0593 47.5552 43.7879 47.5552 38.5519C47.5552 37.9858 47.7675 37.7382 48.3689 37.7382C51.6945 37.7382 55.0555 37.7028 58.381 37.7736C60.0438 37.8089 61.6712 38.0212 63.2987 38.4104C65.2445 38.8703 67.0488 39.6132 68.7116 40.71C70.339 41.8067 71.5772 43.2218 72.5324 44.92C73.4877 46.6182 74.0537 48.4225 74.3367 50.3683C74.5844 51.9603 74.7259 53.5524 74.6552 55.1444C74.5136 58.1516 74.0183 61.1234 72.5324 63.8121C72.0371 64.6966 71.4711 65.5103 70.8343 66.2886C69.7022 67.633 68.3224 68.6236 66.7657 69.4019C65.4214 70.0741 63.9709 70.534 62.485 70.8171C60.6807 71.1708 58.841 71.2416 57.0013 71.2416C54.1003 71.2062 51.2346 71.2416 48.3336 71.2416C47.7321 71.2416 47.5552 71.1001 47.4845 70.534C47.4491 70.3925 47.4845 70.2156 47.4845 70.0741C47.5552 64.7673 47.5552 59.5667 47.5552 54.3307ZM56.4706 54.4014C56.4706 57.3732 56.4706 60.345 56.4706 63.3168C56.4706 63.8829 56.6475 64.0244 57.2136 64.0598C58.0626 64.0598 58.8763 63.989 59.7254 63.8121C61.9897 63.3522 63.6878 62.114 64.643 59.9912C65.3152 58.5054 65.5629 56.9133 65.6336 55.3213C65.7044 53.6585 65.6336 52.0311 65.2091 50.4037C64.6784 48.3163 63.6524 46.6536 61.6712 45.6983C60.2207 45.0262 58.6641 44.8493 57.1074 44.8493C56.6829 44.8493 56.4706 45.1323 56.4706 45.5568C56.4706 48.4579 56.4706 51.4297 56.4706 54.4014Z" fill="black"/>
<path d="M78.0513 54.4015C78.0513 49.1301 78.0513 43.8587 78.0513 38.6226C78.0513 37.8443 78.2282 37.6674 79.0065 37.6674C82.8627 37.6674 86.719 37.632 90.6106 37.6674C92.9456 37.7028 95.2806 37.9505 97.5094 38.8349C98.6769 39.2948 99.7029 39.8963 100.658 40.6746C102.427 42.1605 103.382 44.0709 103.771 46.2998C104.231 49.0947 104.054 51.8542 102.71 54.4368C101.755 56.2765 100.34 57.6563 98.5708 58.6822C96.9434 59.6021 95.1745 60.1328 93.3348 60.4158C92.5211 60.5219 91.672 60.6281 90.8229 60.5927C89.8323 60.5927 88.8771 60.5927 87.8865 60.5927C87.0728 60.5927 87.002 60.6281 87.002 61.4418C87.002 64.3428 87.002 67.2438 87.002 70.1449C87.002 70.251 87.002 70.3572 87.002 70.4987C87.002 70.994 86.7544 71.2062 86.2591 71.2062C83.7826 71.2062 81.2707 71.2062 78.7942 71.2062C78.3697 71.2062 78.122 70.994 78.0866 70.534C78.0866 70.3925 78.0866 70.2156 78.0866 70.0741C78.0513 64.8381 78.0513 59.6021 78.0513 54.4015ZM86.9666 49.1301C86.9666 50.4037 86.9666 51.7127 86.9666 52.9863C86.9666 53.2693 87.0374 53.517 87.3558 53.517C88.771 53.4816 90.2215 53.6585 91.6366 53.4109C92.4857 53.2693 93.2994 52.9863 93.9362 52.3495C95.3513 51.0051 95.4929 49.3069 95.1391 47.5026C94.8207 46.0168 93.7239 45.2738 92.3442 44.92C90.7521 44.5309 89.1247 44.6724 87.4973 44.6724C87.1789 44.6724 86.9666 44.8846 86.9666 45.2384C86.9666 46.5828 86.9666 47.8564 86.9666 49.1301Z" fill="black"/>
<path d="M31.4932 71.7723C28.663 71.7369 25.9388 71.2062 23.3208 69.968C21.8349 69.2604 20.4552 68.3759 19.2169 67.2792C18.8985 66.9962 18.9693 66.7485 19.1815 66.4655C19.9952 65.4395 20.8089 64.4489 21.5873 63.4583C22.0118 62.9276 22.4364 62.397 22.8609 61.8309C23.2854 61.3002 23.5685 61.2649 24.1345 61.654C25.6558 62.7861 27.3893 63.4583 29.229 63.8829C30.255 64.0951 31.281 64.1659 32.3423 64.1305C32.9791 64.0951 33.616 63.989 34.2174 63.7413C34.925 63.4583 35.3495 62.8923 35.4556 62.1493C35.5972 61.2649 35.2434 60.5927 34.5004 60.1327C33.5098 59.4959 32.4131 59.1421 31.3164 58.6822C29.2998 57.8331 27.2125 57.0902 25.2666 56.0642C22.7548 54.7198 20.9858 52.7033 20.3136 49.873C19.6415 46.7951 20.2429 43.9648 22.2241 41.5237C23.9223 39.3656 26.2219 38.0919 28.8752 37.4551C30.3965 37.1013 31.9532 36.9245 33.5098 37.0306C36.8708 37.2782 39.9487 38.3396 42.6375 40.3915C43.8757 41.3468 43.4866 41.3821 42.8497 42.2312C41.753 43.6464 40.6209 45.0261 39.4888 46.4413C39.0996 46.9366 38.9581 46.9719 38.3921 46.6182C36.8354 45.6276 35.1726 44.8846 33.3329 44.6723C32.2716 44.5662 31.1748 44.6016 30.1489 45.0969C28.8752 45.6983 28.4507 47.4672 29.9366 48.4932C30.7857 49.0593 31.7409 49.4131 32.6607 49.7668C34.925 50.6867 37.2599 51.4296 39.4534 52.5264C42.036 53.8354 43.7696 55.8166 44.3356 58.7176C44.9371 61.7955 44.4064 64.6966 42.4252 67.1731C40.727 69.3311 38.4274 70.5694 35.8448 71.2062C34.465 71.6307 32.9791 71.8076 31.4932 71.7723Z" fill="black"/>
</svg>
