<svg width="122" height="122" viewBox="0 0 122 122" fill="none" xmlns="http://www.w3.org/2000/svg">
<path d="M61 122C94.6894 122 122 94.6894 122 61C122 27.3106 94.6894 0 61 0C27.3106 0 0 27.3106 0 61C0 94.6894 27.3106 122 61 122Z" fill="#BABABA"/>
<path d="M93.72 65.6499C88.51 66.9299 88.6 57.2399 93.72 58.3499C96.48 58.9499 96.81 64.8799 93.72 65.6499Z" fill="black"/>
<path d="M72.0499 65.59C69.2799 64.99 68.9499 59.06 72.0499 58.29C77.2599 57 77.1699 66.6899 72.0499 65.59Z" fill="black"/>
<path d="M93.82 37.8799C87.61 33.9099 78.2 21.54 59 21.01C50.23 20.77 44 23.47 39.25 27.1V36.04L49.63 37.8799V46.15L39.25 44.3099V97.92C50.89 102.06 66.03 100.25 74.49 98.73C90.48 95.86 95.52 86.08 95.52 86.08C95.52 86.08 108.13 77.24 108.13 62.57C108.13 50.32 97.82 40.4399 93.81 37.8799H93.82ZM95.99 54.18H101.02V65.1399C101.35 65.57 102.12 65.5499 102.91 65.5099V69.91C100.46 69.63 96.58 70.79 96.24 68.41C95.09 69.3499 93.83 70.2299 91.84 70.2999C87.39 70.4199 84.61 66.7 84.54 62.25C84.54 61.8899 84.54 61.5399 84.58 61.1899C85.24 53.9599 91.24 52.2899 95.96 55.5499C96.01 55.57 96 54.18 96 54.18H95.99ZM70.03 75.65H64.75V58.79C64.42 58.36 63.65 58.3899 62.86 58.4199V53.9599C63.25 53.9399 64.58 53.93 65.95 53.9599C67.61 54 69.34 54.2199 69.53 55.5299C70.69 54.5799 71.95 53.7 73.93 53.6399C78.37 53.5099 81.15 57.24 81.23 61.68C81.32 67.6399 75.83 72.4299 69.9 68.5999C70.16 70.7399 69.97 73.31 70.02 75.65H70.03ZM45.09 61.24C45.54 56.76 48.96 54.02 53.77 53.9399C57.07 53.8899 60.49 55.3499 59.69 59.8499H55.29C54.72 59.7899 55.29 58.59 54.78 58.47C51.51 57.51 49.62 61.0099 50.63 63.6199C51.32 65.3799 53.76 66.2399 55.78 65.5099C56.37 65.2999 56.9 64.9599 57.37 64.66C57.82 64.36 58.15 64.1399 58.68 63.8899C59.27 65.0099 59.96 66.0299 60.57 67.16C55.67 73.1899 44.17 70.2299 45.1 61.25L45.09 61.24Z" fill="black"/>
<path d="M30.99 42.85V93.31C29.53 92.1 28.19 90.82 26.96 89.5C19.63 81.65 16.17 72.28 16.11 66.68C16.02 58.25 17.31 53.29 22.94 45.58L14 43.93V35.66L18.27 32.33V40.6L25.75 41.93L26.95 42.14L30.98 42.85H30.99Z" fill="black"/>
<path d="M30.99 23.5V34.58L26.95 33.87V27.37L30.99 23.5Z" fill="black"/>
</svg>
