<svg width="122" height="122" viewBox="0 0 122 122" fill="none" xmlns="http://www.w3.org/2000/svg">
<path d="M61 122C94.6894 122 122 94.6894 122 61C122 27.3106 94.6894 0 61 0C27.3106 0 0 27.3106 0 61C0 94.6894 27.3106 122 61 122Z" fill="#BABABA"/>
<path d="M14 48.54H35.74V53.36H27.64V74.28H22.1V53.36H14V48.54Z" fill="black"/>
<path d="M49.9599 74.82C47.6599 74.82 45.68 74.38 44.04 73.51C42.4 72.63 41.14 71.37 40.26 69.71C39.38 68.05 38.95 66.06 38.95 63.73V48.54H44.49V64.34C44.49 66.16 44.96 67.56 45.91 68.53C46.86 69.5 48.2099 69.99 49.9599 69.99C51.7099 69.99 53.0599 69.5 54.0099 68.53C54.9599 67.56 55.43 66.16 55.43 64.34V48.54H60.97V63.73C60.97 66.06 60.53 68.05 59.66 69.71C58.78 71.37 57.52 72.63 55.88 73.51C54.24 74.39 52.2599 74.82 49.9599 74.82Z" fill="black"/>
<path d="M73.61 74.82C72.19 74.82 70.8 74.66 69.42 74.35C68.04 74.04 66.71 73.55 65.44 72.87V67.9C68.01 69.46 70.73 70.24 73.61 70.24C75.24 70.24 76.48 69.96 77.34 69.41C78.19 68.86 78.62 68.09 78.62 67.11C78.62 66.37 78.41 65.78 77.99 65.36C77.57 64.94 77.01 64.6 76.32 64.35C75.63 64.1 74.84 63.86 73.98 63.65C72.56 63.31 71.32 62.93 70.24 62.5C69.16 62.07 68.25 61.56 67.5 60.97C66.75 60.38 66.19 59.67 65.81 58.85C65.43 58.02 65.23 57.03 65.23 55.88C65.23 54.25 65.64 52.84 66.47 51.67C67.3 50.5 68.47 49.59 69.98 48.95C71.49 48.31 73.29 48 75.38 48C76.75 48 78.1 48.15 79.43 48.45C80.76 48.75 81.94 49.18 82.98 49.73V54.63C81.92 53.98 80.73 53.48 79.4 53.12C78.07 52.76 76.73 52.58 75.39 52.58C73.93 52.58 72.79 52.83 71.99 53.34C71.19 53.84 70.78 54.56 70.78 55.5C70.78 56.17 70.97 56.71 71.36 57.1C71.74 57.5 72.29 57.82 73 58.07C73.71 58.32 74.54 58.57 75.5 58.81C76.72 59.12 77.86 59.46 78.92 59.84C79.98 60.21 80.91 60.69 81.71 61.26C82.51 61.84 83.14 62.57 83.58 63.46C84.02 64.35 84.25 65.44 84.25 66.74C84.25 68.44 83.83 69.9 82.99 71.11C82.15 72.32 80.94 73.25 79.35 73.88C77.76 74.51 75.86 74.83 73.63 74.83L73.61 74.82Z" fill="black"/>
<path d="M100.54 74.82C98.4999 74.82 96.6599 74.51 95.0299 73.9C93.3999 73.29 92.0199 72.41 90.8899 71.25C89.7599 70.1 88.8999 68.69 88.2999 67.02C87.6999 65.35 87.3999 63.47 87.3999 61.39C87.3999 59.31 87.7099 57.51 88.3399 55.86C88.9599 54.22 89.8599 52.81 91.0399 51.63C92.2199 50.45 93.6299 49.55 95.2699 48.93C96.9099 48.31 98.7599 47.99 100.8 47.99C102.22 47.99 103.55 48.14 104.81 48.44C106.07 48.74 107.24 49.18 108.32 49.75V54.86C107.36 54.19 106.3 53.68 105.13 53.33C103.96 52.98 102.75 52.81 101.48 52.81C99.7299 52.81 98.2299 53.15 96.9999 53.82C95.7599 54.49 94.8199 55.46 94.1599 56.74C93.4999 58.01 93.1699 59.56 93.1699 61.38C93.1699 63.2 93.4899 64.76 94.1199 66.04C94.7599 67.32 95.6899 68.3 96.9099 68.97C98.1299 69.64 99.5999 69.98 101.3 69.98C103.94 69.98 106.38 69.27 108.61 67.86V72.86C107.55 73.46 106.33 73.93 104.94 74.28C103.55 74.63 102.08 74.8 100.55 74.8L100.54 74.82Z" fill="black"/>
</svg>
