<svg width="122" height="122" viewBox="0 0 122 122" fill="none" xmlns="http://www.w3.org/2000/svg">
<path d="M61 122C94.6894 122 122 94.6894 122 61C122 27.3106 94.6894 0 61 0C27.3106 0 0 27.3106 0 61C0 94.6894 27.3106 122 61 122Z" fill="#5FB25F"/>
<path d="M84.8397 66.95C86.3297 58.72 82.6299 50.39 77.5199 45.46C71.6899 40.23 62.5797 37.47 54.6497 39.38C52.8497 39.62 51.7599 40.4 50.3199 40.83C44.1599 43.5 39.4698 49.25 37.4698 55.68C35.6298 63.27 38.0799 71.67 42.5599 77.05C46.9599 81.71 51.9398 84.31 58.2098 85.68C63.3198 85.87 69.2499 85.34 73.7899 82.55C79.3299 79.05 83.4597 73.93 84.8497 66.95M48.9698 70.79C48.6098 70.6 48.3399 70.06 48.0799 70.05C45.7399 70.46 42.8698 70.32 41.2198 71.72L40.9498 71.89C40.3198 71.52 39.6998 70.97 39.7098 70.35C37.2698 66.44 39.5699 63.61 39.2699 59.92L41.0599 55.73C41.7099 54.12 43.6099 53.54 45.0599 53.2C45.2899 50.33 46.1398 47.65 47.1698 45.16C47.6298 44.63 48.4499 44.38 48.5599 43.66C48.5599 43.4 48.6497 43.22 48.6497 43.04C51.7297 41.75 55.7298 39.39 59.4698 40.71C61.4498 40.75 62.3197 42.03 64.1197 42.06L66.1197 40.75C66.8297 41.03 67.3597 41.31 67.6297 41.85L67.5997 43.74C67.4097 43.91 67.1299 44 67.0499 44C66.5099 44 65.8798 43.71 65.1698 43.7C64.1698 44.31 62.8199 44.64 62.7999 46.08C62.8799 46.44 63.0499 46.71 63.0399 46.89C62.8599 47.16 62.5898 47.15 62.4998 47.15L59.7498 45.66C59.5598 45.75 59.2997 45.83 59.1197 46.01L57.7298 48.32C57.9898 48.68 58.0699 48.87 58.5199 48.96C58.9699 48.88 59.8797 48.36 60.1397 48.99L57.9298 52.18C57.3898 52.08 57.2999 51.54 57.0499 51.27C56.6999 51.17 56.5198 51.17 56.1598 51.25C55.4398 51.06 55.2797 50.52 55.0997 50.07L50.3397 49.98C50.7097 49.44 51.0797 48.92 51.0997 48.2C51.0197 47.75 50.8398 47.48 50.6598 47.48C49.4898 47.54 48.4997 48.07 48.1197 49.05C48.4697 49.51 48.1197 49.14 48.1197 49.51C47.5697 49.94 46.9599 49.39 46.7599 49.93C46.5699 50.64 46.5597 51.36 46.0997 51.72C46.2697 52.35 45.8998 53.15 46.2498 53.52C46.7798 53.88 47.6699 53.9 48.0299 54.45C48.7099 56.8 50.8299 58.99 49.5199 61.66L49.9298 64.01L49.1798 65.43L50.7198 69.32C50.2598 69.85 49.6198 70.83 48.9898 70.82M66.9698 49.42C66.4198 50.49 65.2399 50.73 64.7799 51.71C63.6999 51.34 62.7999 51.67 61.8099 51.84C61.2599 52.19 61.1898 51.56 61.1898 51.38C62.5598 50.32 64.2097 48.03 66.3597 48.24L66.9698 49.42ZM77.5599 69.36L77.5299 70.8C77.4399 71.34 77.2497 71.34 76.6097 71.95C75.5297 72.56 74.1598 73.79 72.9198 72.77C72.6898 70.52 71.0999 69.06 70.5099 67.34C70.2499 67.16 70.1497 67.06 69.8897 67.06C69.5297 67.14 69.2598 67.32 69.2498 67.68C70.9998 69.96 70.9397 73.45 73.8897 74.22C73.8897 74.58 73.7797 74.76 73.5997 74.86L69.6898 77.57C68.9598 78.36 68.5698 79.79 67.7398 81.12C66.2898 82 65.8098 83.87 64.1898 84.56L61.2098 84.86L59.6898 84.48C59.5298 83.93 59.8898 83.49 59.7198 82.68C59.9598 79.46 58.8497 76.2 59.8897 73.08C59.5497 72.09 58.8497 71.36 58.1297 70.99C57.1497 70.43 55.8098 70.77 55.4598 69.77L54.7899 67.42C54.8899 66.7 55.2598 66.44 55.4498 65.55C56.4598 64.58 57.4699 63.62 58.8099 63.64L61.6197 61.89C61.9597 61.89 62.4297 62.38 62.5897 62V61.99C62.5197 61.95 62.4598 61.92 62.4298 61.92H62.5897L61.6497 60.21L62.5799 58.7C63.0299 58.44 63.8298 58.81 63.9298 58.36L63.7498 57.55L63.6097 56.92H63.4198L63.3299 56.83C63.3299 56.74 63.3298 56.56 63.2498 56.56H63.5299C63.4799 56.54 63.4298 56.53 63.4298 56.47L63.5099 56.43L63.3497 55.75C63.3497 55.22 63.6298 55.13 63.9098 54.87C63.9998 54.78 64.3697 54.79 64.3697 54.79L65.6097 55.27C65.8897 54.91 66.2399 54.92 66.5199 54.83C66.8699 54.92 66.9598 55.02 66.9498 55.2C67.1198 55.83 66.4998 55.82 66.4898 56.27C66.5198 56.32 66.5299 56.37 66.5599 56.42L66.5799 56.17L66.7999 56.71H67.0099C66.9399 56.78 66.8997 56.83 66.8597 56.87L66.8997 56.98V56.9V56.99L66.9398 57.01H67.2699V57.17C67.2999 57.17 67.3197 57.17 67.3597 57.17L68.1898 56.47L68.1698 56.45H68.1898L68.2599 56.4V56.1L68.4398 56.24L68.4698 56.21C68.4698 56.21 68.4398 56.12 68.4398 56.1C68.4798 56.13 68.4898 56.16 68.4998 56.18L70.7198 54.34C71.2498 54.89 72.3197 55.09 72.8597 54.65C73.9797 52.43 75.3799 49.67 74.0799 47.13C73.4599 46.76 72.5698 46.66 72.4898 45.94C72.4098 45.49 72.5899 45.41 73.0299 45.42C73.4899 45.51 74.0198 45.44 74.7398 45.45C78.1998 47.39 80.1197 50.93 81.8597 53.92C84.0997 59.62 84.5998 66 81.9898 71.79C81.7198 71.88 81.5399 71.79 81.5399 71.79L81.1197 70.52C81.0297 70.25 80.7697 70.07 80.5997 69.61C79.9997 68.89 78.4999 68.86 77.5799 69.36L77.7198 69.38H77.5399L77.5599 69.36Z" fill="black"/>
<path d="M85.4092 79.89C84.2392 79.87 83.3492 79.4 82.1892 79.21C81.5592 79.38 81.1893 79.82 80.8193 80.35C82.4093 82.36 85.2492 84.29 85.8992 87.44C87.9892 90.98 91.1893 93.12 95.2993 94.08C92.1593 89.35 91.2892 82.52 85.4092 79.9" fill="black"/>
<path d="M78.5397 82.82C78.2797 82.82 78.1696 82.82 77.9096 82.98C77.8096 83.16 77.8095 83.25 77.6195 83.61C77.5095 84.41 78.2397 84.79 78.7597 85.16C80.2297 88.33 83.4295 90.45 86.8995 91.95L87.0797 91.77V91.59C85.0897 88.23 83.2797 83.62 78.5397 82.82Z" fill="black"/>
<path d="M63.6699 56.51H63.79C63.79 56.51 63.6899 56.48 63.6699 56.51Z" fill="black"/>
<path d="M64.1199 56.42L64.03 56.33H63.6699C63.7799 56.41 63.8399 56.47 63.8799 56.51H64.1199C64.0499 56.51 63.8999 56.57 63.8599 56.66L64.21 56.58V56.52L64.1299 56.42H64.1199Z" fill="black"/>
<path d="M68.1797 56.41H68.2498V56.35L68.1797 56.41Z" fill="black"/>
<path d="M75.4893 69.02L75.5593 69.03V69.02H75.4893Z" fill="black"/>
<path d="M75.2998 69.02H75.4697H75.4897L75.2998 68.99V69.02Z" fill="black"/>
<path d="M85.97 74.34C85.35 74.41 84.99 74.4 84.7 74.76C84.52 74.93 84.43 75.03 84.42 75.38C84.42 75.65 84.41 76.01 84.67 76.29L91.43 79.64L95.2901 79.71C95.6501 79.63 95.82 79.63 95.66 79.09C92.64 77.33 89.91 74.49 85.96 74.34" fill="black"/>
<path d="M96.9597 72.37C94.3897 70 90.5396 69.74 87.1196 70.31C86.8396 70.48 86.4797 70.56 86.4797 70.56C86.4797 70.92 86.0198 71.19 86.0098 71.81C89.2198 73.03 91.5198 74.78 94.2698 76.72C95.3398 77.45 96.6796 77.83 98.0996 78.32L102.42 77.77C101.11 75.23 98.4397 74.28 96.9597 72.37Z" fill="black"/>
<path d="M15.1094 66.04L24.7495 69.18C27.1595 69.4 29.5094 68.9 31.8594 68.31C32.7594 67.97 33.7596 67.27 34.0496 66.38L33.4495 64.67C27.6595 66.98 19.9594 60.66 15.1194 66.04" fill="black"/>
<path d="M98.9693 65.23V64.69C95.2893 64.71 91.4692 63.12 87.8392 65.02C87.5592 65.19 87.4594 66 87.5294 66.45L89.3194 67.02C92.5594 67.08 96.0593 66.6 98.9593 65.22" fill="black"/>
<path d="M63.7495 61.89H63.5195C63.5195 61.89 63.5195 61.91 63.5195 61.92L64.0994 61.9L63.6094 62.05C63.7594 62.2 64.0495 62.34 64.1895 62.53L65.1294 64.26L69.1394 65.76L69.2295 65.67L69.4995 65.5C69.4995 64.99 69.1595 64.72 68.7395 64.49H68.7095V64.48C68.3095 64.27 67.8596 64.11 67.5596 63.84C67.4996 63.84 67.4294 63.86 67.3694 63.87C67.4194 63.92 67.4595 63.99 67.4595 64.03C67.4595 64.03 67.4595 64.04 67.4495 64.05C67.4095 64.08 67.4695 64.06 67.4495 64.05C67.4395 64.04 67.4194 64.03 67.3694 64.03V63.87C66.9994 63.93 66.4795 64.15 66.0195 63.91L65.6995 61.67C65.1695 61.21 64.1895 61.29 63.7295 61.63C63.6595 61.67 63.6196 61.7 63.5696 61.74L63.7295 61.71V61.89H63.7495Z" fill="black"/>
<path d="M33.78 61.35C33.78 61.09 33.78 60.99 33.51 60.9C31.18 60.58 28.5901 60.18 26.0701 60.14C24.1901 60.46 22.02 60.69 20.75 61.74L27.27 63.39C29.52 63.52 32.22 62.67 33.78 61.35Z" fill="black"/>
<path d="M70.8098 63.37C70.6198 63.82 71.0696 64.19 71.4196 64.19L71.6997 64.01C71.5197 63.65 71.2598 63.37 70.8098 63.36" fill="black"/>
<path d="M99.0793 59.04C95.3193 57.89 91.2092 57.64 87.9492 59.11C87.4792 59.73 87.8291 60.81 87.6191 61.71L96.5693 63.48C99.1793 63.26 102.589 62.88 104.169 60.48C102.649 59.91 100.669 60.05 99.0793 59.04Z" fill="black"/>
<path d="M26.2394 50.54C23.6894 48.06 19.6394 48.18 16.4894 48.83C16.4794 49.37 16.1294 48.83 16.4794 49.37C21.1894 51.88 24.3495 56.06 30.0695 57.43L30.3295 57.34L34.2094 56.61C34.4794 56.25 34.5894 55.63 34.4994 55.17C31.2794 54.3 28.7194 52.65 26.2294 50.54" fill="black"/>
<path d="M69.2093 56.88C69.0693 57.1 68.9193 57.33 68.6693 57.5C68.4793 57.76 68.7392 58.22 69.1092 58.13L70.7294 57.53L70.5795 56.27C70.5795 56.27 70.2994 56.17 70.0394 55.99C69.6194 56.14 69.4294 56.48 69.2294 56.82L69.2994 56.88H69.1993H69.2093Z" fill="black"/>
<path d="M86.5098 54.23L86.7498 55.94C86.7498 55.94 86.9296 55.94 87.1096 56.12C90.6196 55.83 93.2498 54.08 95.8098 51.8L96.7498 49.66C94.4098 49.98 92.2897 52.54 89.2397 52.3C88.0697 52.99 87.0698 53.07 86.5098 54.23Z" fill="black"/>
<path d="M25.4299 46.03C24.5199 46.19 23.7199 46.08 23.1699 46.8C25.6499 48.73 28.12 51.02 31.96 52.35L35.8301 51.79C35.9101 51.71 36.0999 51.53 36.0999 51.16C33.0899 48.87 29.9999 45.85 25.4299 46.03Z" fill="black"/>
<path d="M99.4493 43.97C99.5493 43.61 99.7294 43.34 99.8194 43.08C96.5794 43.82 92.9893 44.21 89.4593 45.05C87.2793 46 85.1994 47.21 84.2694 49.08C84.2494 50.06 84.5993 50.97 85.4793 51.62H85.7493C91.3393 50.2 96.4693 49.3 99.4393 43.97" fill="black"/>
<path d="M37.6196 47.06L38.8896 46.72C39.1596 46.28 39.6196 46.02 39.6296 45.3C35.7096 43.43 34.5398 38.83 32.0698 35.91C30.3898 34.63 28.1696 33.24 25.3896 32.92C27.4996 35.48 28.7798 38.73 30.0698 41.81C31.9098 44.63 34.7696 45.84 37.6096 47.06" fill="black"/>
<path d="M90.9795 35.55C88.3495 37.39 86.0594 40.13 82.8794 41.69C81.8794 42.66 81.0595 43.18 80.7695 44.25L81.9895 46.07H82.1694C84.6094 45.31 86.6995 43.37 88.5295 41.7L90.9695 35.55H90.9795Z" fill="black"/>
<path d="M38.3499 41.77L41.3 42.91C41.75 42.91 41.84 42.91 42.2 42.83C42.37 42.83 42.4701 42.66 42.5601 42.29C40.9301 38.32 38.1099 35.66 33.3699 34.14H32.9199L36.3 40.21L38.3499 41.77Z" fill="black"/>
<path d="M78.5496 42.6L79.0095 42.52C82.5695 38.72 88.4094 38.65 90.6594 33.4C90.9494 32.24 90.9694 31.25 91.3494 30.36C91.3494 30.27 91.2596 30.27 90.8096 30.26C87.1596 33.52 80.4394 32.95 78.0994 38.02C77.9994 39.27 77.1694 40.07 77.1494 41.24C77.3194 41.96 78.0296 42.24 78.5596 42.61" fill="black"/>
<path d="M46.4697 39.41L47.9998 38.9C48.0898 38.81 48.2798 38.54 48.2798 38.28C45.7598 33.39 46.0698 26.84 40.8298 23.33C40.0398 22.86 39.6798 22.41 39.0498 22.31C40.7898 25.57 40.4296 30.41 41.8796 34.57C42.8396 36.57 44.5097 38.39 46.4597 39.42" fill="black"/>
<path d="M72.1699 38.08C72.2399 38.53 72.6001 38.9 73.3201 39C73.5901 39 74.13 38.93 74.22 38.75C76.15 36.54 77.4799 32.34 76.3799 29L72 37.45C72 37.63 71.9999 37.9 72.1699 38.08Z" fill="black"/>
<path d="M51.4399 37.52L51.6199 37.34L51.8899 37.26C52.8199 35.47 51.7 33.03 50.76 31.13C49.43 29.49 47.8501 27.3 46.0801 26.38C46.4901 28.45 47.2599 30.52 47.6699 32.96C48.6199 34.68 49.2999 36.67 51.4399 37.52Z" fill="black"/>
<path d="M68.8689 37.03L69.1389 36.86C71.3689 33.04 75.6489 29.97 75.6489 24.68C75.2289 23.49 75.8789 22.07 75.0889 21.25C73.4189 23.92 70.309 26.83 67.929 29.65C66.729 31.69 66.3291 34.11 66.2891 36.26L68.689 37.2L68.8789 37.03H68.8689Z" fill="black"/>
<path d="M56.0493 35.99C56.1393 35.99 56.3192 35.99 56.4092 36.08L58.1192 35.57C57.4692 31.97 59.2492 28.15 59.9392 24.39C59.3592 22.13 59.0392 19.69 57.6292 18.06C55.9192 23.14 52.7692 28.38 54.9092 34.17L56.0393 35.99H56.0493Z" fill="black"/>
<path d="M61.5293 35.82H61.7092C61.7992 35.82 62.1594 35.83 62.3294 35.65C62.6994 35.03 62.8093 34.04 63.2693 33.25C64.0593 29.85 63.3992 26.07 61.6592 23.61C61.3192 27.19 59.2593 31.55 60.9993 35.18C61.1693 35.54 61.1693 35.63 61.5293 35.82Z" fill="black"/>
<path d="M62.3994 61.96H62.5596V61.95L62.3994 61.96Z" fill="black"/>
<path d="M68.25 56.35L68.4399 56.19L68.26 56.06L68.25 56.35Z" fill="black"/>
<path d="M63.4797 56.77H63.2998L63.3896 56.86L63.5798 56.87L63.5598 56.78L63.4797 56.77Z" fill="black"/>
<path d="M63.5693 56.69V56.72L63.6892 56.69H63.5693Z" fill="black"/>
<path d="M63.6892 56.69L63.5693 56.72V56.78H63.8391V56.7L63.6892 56.69Z" fill="black"/>
<path d="M66.8789 56.94L66.929 56.95L66.8789 56.93V56.94Z" fill="black"/>
<path d="M63.5 56.51L63.53 56.66L63.5898 56.51H63.5Z" fill="black"/>
<path d="M63.2998 56.77H63.4797L63.4998 56.73L63.2998 56.77Z" fill="black"/>
<path d="M63.5 56.72H63.55L63.53 56.66L63.5 56.72Z" fill="black"/>
<path d="M63.5891 56.51L63.5293 56.66L63.5493 56.72H63.5693V56.69H63.6892L63.8491 56.66V56.6L63.6592 56.59L63.6692 56.51H63.5891Z" fill="black"/>
<path d="M63.4995 56.72L63.4795 56.77L63.5596 56.78L63.5496 56.72H63.4995Z" fill="black"/>
<path d="M63.5498 56.72L63.5598 56.78L63.5698 56.77V56.71L63.5498 56.72Z" fill="black"/>
<path d="M63.6895 56.69L63.8394 56.7L63.8494 56.66L63.6895 56.69Z" fill="black"/>
<path d="M68.1592 56.41L68.1692 56.42L68.1792 56.41H68.1592Z" fill="black"/>
<path d="M68.1799 56.41L68.1699 56.42L68.25 56.48V56.41H68.1799Z" fill="black"/>
<path d="M74.9199 68.65L74.9399 68.67V68.65H74.9199Z" fill="black"/>
<path d="M75.25 68.93H75.1099C75.1099 68.93 75.08 68.87 75.02 68.84C74.9 68.75 74.6699 68.65 74.6699 68.65C74.6699 68.75 74.75 68.75 74.75 68.92L75.29 68.99C75.29 68.93 75.27 68.93 75.25 68.93Z" fill="black"/>
<path d="M75.3 68.93H75.25C75.25 68.93 75.29 68.93 75.29 68.99V68.93H75.3Z" fill="black"/>
<path d="M75.4697 69.02C75.4697 69.2 75.5598 69.02 75.5598 69.2H75.6497C75.6497 69.03 75.5598 69.2 75.5598 69.02H75.4897H75.4697Z" fill="black"/>
<path d="M75.9094 69.39H76.0894V69.48H76.8096V69.4C76.7296 69.31 76.2694 69.48 76.1794 69.39V69.3H75.8594C75.8794 69.3 75.9194 69.3 75.9194 69.39" fill="black"/>
<path d="M75.0195 68.84H75.1995C75.1995 68.94 75.2195 68.93 75.2495 68.93H75.2996V69L75.4995 69.03H75.5696L76.0994 69.11L74.9395 68.67C74.9395 68.82 75.0295 68.67 75.0195 68.84Z" fill="black"/>
<path d="M74.9099 68.65L74.6699 68.57C74.6699 68.65 74.8099 68.65 74.9099 68.65Z" fill="black"/>
<path d="M75.8599 69.29C75.8599 69.29 75.8301 69.29 75.8301 69.21V69.29H75.8599Z" fill="black"/>
<path d="M67.0498 63.39C67.1398 63.39 67.1396 63.42 67.1396 63.44V63.39H67.0498Z" fill="black"/>
<path d="M66.9595 63.12C66.6095 62.57 66.6995 62.75 66.9595 63.21H67.0596V63.12H66.9595Z" fill="black"/>
<path d="M67.3696 63.84C67.3696 63.84 67.3298 63.8 67.2998 63.79C67.2998 63.81 67.2996 63.84 67.3696 63.84Z" fill="black"/>
<path d="M67.1289 63.44V63.58H67.219V63.49C67.129 63.49 67.1289 63.47 67.1289 63.44Z" fill="black"/>
<path d="M67.3894 63.84H67.3594C67.3594 63.84 67.3794 63.86 67.3894 63.87V63.84Z" fill="black"/>
<path d="M67.2197 63.76C67.2197 63.76 67.2698 63.76 67.2998 63.79C67.2998 63.77 67.2997 63.76 67.2197 63.76Z" fill="black"/>
<path d="M67.4697 64.05C67.4697 64.05 67.4697 64.04 67.4797 64.03C67.4797 63.99 67.4396 63.93 67.3896 63.87V64.02C67.3896 64.02 67.4597 64.02 67.4697 64.04" fill="black"/>
<path d="M69.1697 64.51L69.2598 64.42C69.2598 64.33 69.2596 64.24 69.3496 64.24H68.7197V64.48C68.7297 64.48 68.7498 64.49 68.7498 64.49H69.1697V64.51Z" fill="black"/>
<path d="M68.7595 64.5C68.7595 64.5 68.7395 64.49 68.7295 64.49L68.7595 64.5Z" fill="black"/>
</svg>
