<svg width="122" height="122" viewBox="0 0 122 122" fill="none" xmlns="http://www.w3.org/2000/svg">
<path d="M60.9999 122C94.6893 122 122 94.6894 122 61C122 27.3106 94.6893 0 60.9999 0C27.3106 0 -6.10352e-05 27.3106 -6.10352e-05 61C-6.10352e-05 94.6894 27.3106 122 60.9999 122Z" fill="#13E594"/>
<path d="M102.75 61C102.75 61 102.75 60.8 102.75 60.79C102.73 60.36 102.66 59.93 102.55 59.5C102.54 59.45 102.52 59.39 102.51 59.34C102.46 59.16 102.43 58.99 102.37 58.81C101.62 56.66 99.87 54.75 97.86 53.14C97.82 53.11 97.78 53.07 97.7299 53.04C97.16 52.59 96.5699 52.17 95.9799 51.77C95.7999 51.65 95.6199 51.53 95.4299 51.41C94.8099 51.01 94.1999 50.64 93.5999 50.31C93.3999 50.2 93.1899 50.08 92.9899 49.97C92.1599 49.52 91.3799 49.13 90.7099 48.82C90.6699 48.8 90.6399 48.78 90.5999 48.77C90.7499 48.37 90.8599 47.99 90.9899 47.59C91.1299 47.16 91.2799 46.73 91.4099 46.31C91.5799 45.75 91.7099 45.21 91.8499 44.67C91.9499 44.29 92.0499 43.91 92.1299 43.54C92.2599 42.96 92.3499 42.4 92.4299 41.84C92.4799 41.55 92.5299 41.25 92.5699 40.97C92.6499 40.33 92.6899 39.72 92.7099 39.12C92.7099 38.95 92.7399 38.78 92.7399 38.61C92.7499 37.89 92.7099 37.2 92.6399 36.55C92.6399 36.52 92.6399 36.49 92.6399 36.46C92.3899 34.41 91.7199 32.75 90.6199 31.6C90.5899 31.57 90.58 31.53 90.55 31.5C90.54 31.49 90.3999 31.36 90.3899 31.34C90.0799 31.05 89.7199 30.8 89.3399 30.56C89.2899 30.53 89.2399 30.5 89.1899 30.48C89.0299 30.39 88.8799 30.29 88.7099 30.21C86.6699 29.23 84.1099 29.11 81.5799 29.39C81.4899 29.39 81.39 29.41 81.3 29.42C80.62 29.5 79.9499 29.61 79.2899 29.74C79.0199 29.79 78.7399 29.85 78.4599 29.91C77.7899 30.06 77.1399 30.22 76.5299 30.39C76.2899 30.46 76.0499 30.52 75.8099 30.6C74.8899 30.87 74.0599 31.15 73.3499 31.41C73.3199 31.41 73.2999 31.42 73.2799 31.43C73.2799 31.41 73.2599 31.39 73.2499 31.38C72.9099 30.66 72.4999 29.83 72.0199 28.95C71.9399 28.8 71.8499 28.65 71.7699 28.5C71.3999 27.83 70.9899 27.15 70.5399 26.46C70.4599 26.34 70.3799 26.22 70.2999 26.1C69.8799 25.47 69.4299 24.85 68.9599 24.25C68.9399 24.22 68.9199 24.2 68.8999 24.17C67.9699 23.01 66.9299 21.94 65.7999 21.1C65.7999 21.1 65.7999 21.1 65.7899 21.1C65.2999 20.74 64.7999 20.42 64.2799 20.15C64.1899 20.1 64.0899 20.06 63.9999 20.02C63.6399 19.85 63.2799 19.71 62.9099 19.6C62.7499 19.55 62.5899 19.5 62.4399 19.46C62.0199 19.36 61.5999 19.29 61.1699 19.27C61.1699 19.27 61.0399 19.27 61.0299 19.27L60.6199 19.29C60.6199 19.29 60.5399 19.29 60.4899 19.29C60.4499 19.29 60.3999 19.29 60.3899 19.29C60.0899 19.32 59.7899 19.39 59.4899 19.46C59.4699 19.46 59.4499 19.46 59.4399 19.47C56.3299 20.25 53.6899 23.16 51.6899 26.17C51.6299 26.26 51.5699 26.35 51.5099 26.45C51.0699 27.13 50.6599 27.81 50.2899 28.48C50.2099 28.62 50.1299 28.76 50.0499 28.9C49.5599 29.79 49.1499 30.63 48.7999 31.36C48.7899 31.38 48.7799 31.4 48.7699 31.42H48.7499C47.9499 31.13 47.0199 30.81 45.9899 30.51C45.9299 30.49 45.8799 30.48 45.8199 30.46C41.2799 29.15 35.1099 28.19 31.8299 31.21C31.7799 31.24 31.6599 31.35 31.6099 31.4C31.6099 31.4 31.5499 31.46 31.5199 31.49L31.4999 31.51L31.2799 31.75C31.2799 31.75 31.2399 31.79 31.2099 31.82C31.1699 31.87 31.1299 31.92 31.0899 31.97C30.8899 32.21 30.7299 32.47 30.5699 32.74C30.5699 32.74 30.5599 32.75 30.5499 32.76C28.8999 35.51 29.0799 39.44 29.8099 42.98C29.8299 43.08 29.8499 43.19 29.8699 43.3C30.0399 44.09 30.2299 44.84 30.4299 45.57C30.4799 45.75 30.5299 45.93 30.5899 46.12C30.8599 47.04 31.1499 47.89 31.4099 48.62C31.4299 48.67 31.4399 48.72 31.4599 48.77C31.4299 48.78 31.4099 48.8 31.3799 48.81C30.6699 49.14 29.8599 49.54 28.9899 50.02C28.8099 50.12 28.6299 50.22 28.4599 50.32C27.8499 50.66 27.2299 51.03 26.6099 51.43C26.4799 51.51 26.3499 51.6 26.2199 51.68C23.2299 53.66 20.3199 56.3 19.5099 59.4V59.42C19.3899 59.86 19.3399 60.32 19.3199 60.86C19.3199 60.92 19.2999 60.97 19.2999 61.03C19.2999 61.06 19.2999 61.08 19.3099 61.11C19.3099 61.15 19.3099 61.19 19.3099 61.23C19.3099 61.26 19.3099 61.29 19.3099 61.32C19.3099 61.53 19.3899 61.74 19.4199 61.95C19.4599 62.22 19.4899 62.49 19.5699 62.77C19.6399 63.03 19.7699 63.29 19.8699 63.55C19.9799 63.83 20.0899 64.1 20.2299 64.38C20.3599 64.63 20.5399 64.88 20.6999 65.13C20.8899 65.42 21.0699 65.71 21.2999 66C21.4799 66.23 21.6999 66.47 21.9099 66.7C22.1799 67 22.4399 67.3 22.7499 67.6C22.9799 67.83 23.2399 68.05 23.4999 68.27C23.8399 68.57 24.1799 68.87 24.5599 69.16C24.8499 69.38 25.1599 69.6 25.4699 69.82C25.8699 70.1 26.2599 70.39 26.6999 70.67C27.0499 70.9 27.4299 71.11 27.7999 71.33C28.2399 71.59 28.6799 71.85 29.1599 72.11C29.5699 72.33 30.0099 72.54 30.4399 72.76C30.7899 72.93 31.0999 73.11 31.4599 73.28C31.4399 73.32 31.4299 73.37 31.4199 73.41C31.1599 74.13 30.8799 74.97 30.5999 75.9C30.5399 76.1 30.4799 76.31 30.4299 76.51C30.2399 77.18 30.0699 77.88 29.9099 78.6C29.8799 78.75 29.8399 78.9 29.8099 79.04C29.0999 82.56 28.8999 86.49 30.5299 89.26C30.5299 89.26 30.5299 89.26 30.5299 89.28C30.7699 89.7 31.0799 90.08 31.4499 90.47C31.4699 90.49 31.4899 90.53 31.5099 90.55C31.5099 90.55 31.5299 90.57 31.5399 90.58C31.5599 90.6 31.5699 90.62 31.5899 90.63C31.6099 90.65 31.6399 90.67 31.6599 90.69C31.6699 90.7 31.6899 90.72 31.6999 90.73C31.8799 90.89 32.0999 91.01 32.3099 91.16C32.4999 91.3 32.6699 91.45 32.8799 91.56C33.1499 91.71 33.4499 91.82 33.7499 91.95C33.9799 92.04 34.1899 92.16 34.4299 92.23C34.7299 92.33 35.0799 92.38 35.4099 92.45C35.6899 92.51 35.9599 92.59 36.2599 92.63C36.5699 92.67 36.9099 92.67 37.2299 92.7C38.3199 92.78 39.4899 92.77 40.7699 92.62C40.9999 92.59 41.2399 92.54 41.4699 92.51C42.0999 92.42 42.7399 92.32 43.4099 92.18C43.7399 92.11 44.0899 92.01 44.4299 91.93C45.0299 91.78 45.6199 91.64 46.2399 91.45C46.6299 91.33 47.0399 91.19 47.4399 91.06C47.8799 90.91 48.3099 90.79 48.7599 90.63C48.7799 90.67 48.7999 90.7 48.8199 90.74C49.1499 91.44 49.5399 92.23 50.0099 93.09C50.1099 93.28 50.2099 93.46 50.3199 93.64C50.6599 94.24 51.0299 94.86 51.4299 95.48C51.5099 95.61 51.5999 95.74 51.6799 95.87C53.6499 98.85 56.2799 101.75 59.3599 102.57C59.4399 102.62 59.5299 102.65 59.6699 102.65C60.0199 102.73 60.3699 102.77 60.5999 102.77C60.6899 102.79 60.7599 102.79 60.8299 102.79H61.0099C61.0099 102.79 61.0099 102.79 61.0199 102.79C61.0299 102.79 61.0199 102.79 61.0299 102.79H61.1599C61.1599 102.79 61.3599 102.79 61.3799 102.79C61.5599 102.79 61.7299 102.76 61.7499 102.75C61.7999 102.75 61.8399 102.75 61.8899 102.75C61.8899 102.75 61.9099 102.75 61.9199 102.75C61.9599 102.75 61.9999 102.75 62.0399 102.73C62.1899 102.7 62.3399 102.65 62.4899 102.62C62.5599 102.6 62.6199 102.59 62.6899 102.57C65.7599 101.76 68.3799 98.89 70.3599 95.91C70.4299 95.8 70.5099 95.68 70.5799 95.57C70.9899 94.93 71.3799 94.29 71.7299 93.66C71.8299 93.49 71.9199 93.32 72.0199 93.14C72.4799 92.29 72.8699 91.5 73.1999 90.8C73.2299 90.74 73.2599 90.7 73.2799 90.64C73.3099 90.65 73.3299 90.66 73.3599 90.67C74.0999 90.94 74.9799 91.23 75.9399 91.51C76.1699 91.58 76.3899 91.63 76.6199 91.7C77.2699 91.88 77.9399 92.05 78.6399 92.2C78.7799 92.23 78.91 92.26 79.05 92.29C79.79 92.44 80.5499 92.56 81.3199 92.65C81.3899 92.65 81.4599 92.67 81.5199 92.67C82.2899 92.76 83.0499 92.82 83.8099 92.82C85.1799 92.82 86.4999 92.64 87.6999 92.24C87.6999 92.24 87.7199 92.24 87.7299 92.24C88.2599 92.06 88.7599 91.85 89.2299 91.58C89.2499 91.57 89.28 91.56 89.3 91.54C89.33 91.52 89.3699 91.51 89.3999 91.49C89.4299 91.47 89.45 91.46 89.4799 91.44C89.78 91.25 90.06 91.03 90.42 90.71C90.42 90.71 90.4799 90.65 90.5299 90.6C90.5299 90.6 90.54 90.6 90.55 90.59C90.56 90.58 90.5499 90.58 90.5599 90.57C90.5999 90.53 90.6499 90.48 90.6499 90.48C90.6699 90.46 90.7899 90.33 90.8099 90.31C90.9199 90.19 91.02 90.06 91.0399 90.02C91.0799 89.98 91.1199 89.94 91.1499 89.89C91.1599 89.87 91.1699 89.86 91.1799 89.84C91.2799 89.71 91.3499 89.56 91.4299 89.43C91.4699 89.36 91.51 89.3 91.55 89.23C93.14 86.48 92.9699 82.61 92.2599 79.11C92.2299 78.98 92.2099 78.85 92.1799 78.71C92.0199 77.96 91.8399 77.23 91.6399 76.54C91.5899 76.35 91.5399 76.17 91.4799 75.98C91.21 75.05 90.9199 74.21 90.6599 73.47C90.6399 73.42 90.63 73.36 90.61 73.31C90.98 73.14 91.3199 72.95 91.6799 72.77C92.0999 72.56 92.5299 72.35 92.9299 72.14C93.4299 71.87 93.89 71.59 94.36 71.32C94.71 71.11 95.0699 70.91 95.3899 70.7C95.8899 70.38 96.34 70.05 96.7899 69.73C97.0299 69.55 97.2899 69.38 97.5099 69.21C98.0299 68.81 98.4899 68.4 98.9399 67.98C99.0499 67.87 99.19 67.77 99.3 67.66C101.53 65.49 102.77 63.23 102.77 61.07L102.75 61ZM100.5 62.33C100.37 62.77 100.16 63.21 99.8999 63.66C99.8099 63.82 99.6699 63.98 99.5699 64.14C99.3799 64.43 99.1899 64.72 98.9499 65.01C98.7799 65.21 98.5799 65.41 98.3899 65.61C98.1499 65.87 97.9199 66.12 97.6499 66.38C97.4299 66.59 97.17 66.79 96.92 67C96.63 67.25 96.3399 67.5 96.0099 67.74C95.7399 67.94 95.4399 68.14 95.1499 68.34C94.7899 68.59 94.4399 68.83 94.0599 69.07C93.7599 69.26 93.4299 69.45 93.0999 69.64C92.6799 69.88 92.2599 70.13 91.8199 70.37C91.4799 70.55 91.1199 70.72 90.7699 70.9C90.4699 71.05 90.1499 71.2 89.8399 71.35C89.8099 71.27 89.7699 71.2 89.7399 71.12C89.3799 70.27 89.01 69.44 88.61 68.62C88.54 68.48 88.4699 68.34 88.3999 68.2C87.9799 67.35 87.5399 66.52 87.0799 65.72C87.0799 65.72 87.0799 65.72 87.0799 65.71C86.6199 64.91 86.1499 64.16 85.6599 63.44C85.5799 63.32 85.5 63.19 85.42 63.07C84.96 62.4 84.4999 61.77 84.0299 61.19C83.9899 61.14 83.9399 61.07 83.8999 61.01C83.9399 60.96 83.9899 60.89 84.0299 60.84C84.4999 60.26 84.96 59.63 85.42 58.96C85.5 58.84 85.59 58.71 85.67 58.58C86.15 57.86 86.6199 57.11 87.0799 56.32C87.0799 56.31 87.0899 56.3 87.0999 56.29C87.5499 55.5 87.9899 54.68 88.4099 53.84C88.4799 53.69 88.5599 53.55 88.6299 53.4C89.0299 52.59 89.3999 51.76 89.7499 50.92C89.7799 50.84 89.82 50.76 89.86 50.68C90.21 50.84 90.5599 51.01 90.8999 51.18C91.1699 51.32 91.4499 51.45 91.7199 51.59C92.3099 51.9 92.8699 52.22 93.4099 52.54C93.8099 52.78 94.18 53.02 94.55 53.26C94.89 53.49 95.2399 53.71 95.5599 53.94C95.8599 54.16 96.1299 54.37 96.4099 54.59C96.6699 54.79 96.9299 55 97.1599 55.21C97.3999 55.42 97.64 55.63 97.86 55.85C98.11 56.09 98.33 56.32 98.55 56.56C98.72 56.74 98.8899 56.92 99.0299 57.1C99.3299 57.47 99.5999 57.84 99.8199 58.21C99.8499 58.26 99.89 58.31 99.92 58.35C100.17 58.77 100.35 59.19 100.49 59.61C100.56 59.84 100.58 60.05 100.62 60.27C100.67 60.52 100.74 60.78 100.74 61.02C100.74 61.41 100.66 61.8 100.55 62.2C100.54 62.25 100.55 62.3 100.53 62.34L100.5 62.33ZM89.7299 77.32C89.85 77.76 89.9799 78.21 90.0699 78.63C90.0999 78.76 90.1199 78.88 90.1399 79.01C90.5399 80.87 90.7199 82.58 90.6899 84.07C90.6899 84.24 90.6899 84.42 90.6899 84.59C90.6699 84.94 90.6199 85.25 90.5799 85.57C90.5399 85.81 90.5099 86.05 90.4599 86.28C90.4099 86.53 90.3299 86.76 90.2599 86.99C90.1799 87.24 90.0899 87.49 89.9899 87.71C89.9099 87.89 89.8199 88.06 89.7199 88.22C89.5299 88.53 89.3399 88.84 89.0999 89.08C88.8299 89.35 88.4899 89.58 88.1299 89.78C87.9899 89.86 87.8399 89.92 87.6899 89.99C87.4199 90.11 87.1399 90.23 86.8299 90.32C86.6599 90.37 86.4799 90.41 86.3099 90.45C85.9699 90.53 85.6199 90.58 85.2499 90.63C85.0599 90.65 84.8799 90.67 84.6799 90.69C84.2599 90.72 83.82 90.72 83.36 90.71C83.18 90.71 82.9999 90.71 82.8199 90.7C82.2499 90.67 81.6499 90.61 81.0399 90.52C80.9399 90.51 80.8599 90.5 80.7599 90.49C80.0299 90.38 79.2599 90.23 78.4699 90.04C78.3199 90 78.1599 89.96 78.0099 89.92C77.3799 89.76 76.7399 89.59 76.0799 89.38C75.7899 89.29 75.4899 89.18 75.1899 89.08C74.8399 88.96 74.4699 88.83 74.1099 88.7C74.3099 88.22 74.4799 87.73 74.6599 87.24C74.8299 86.79 75.0099 86.34 75.1699 85.89C75.3699 85.31 75.5299 84.73 75.7099 84.15C75.9899 83.22 76.2399 82.31 76.4499 81.41C76.5899 80.83 76.7299 80.25 76.8299 79.7C76.9099 79.29 76.9499 78.9 77.0099 78.5C77.0799 78.06 77.1599 77.6 77.2099 77.18C77.6699 77.13 78.18 77.04 78.67 76.96C79 76.91 79.3099 76.88 79.6399 76.81C80.6199 76.63 81.6199 76.41 82.6499 76.13C82.6899 76.12 82.7299 76.11 82.7699 76.1C83.8499 75.81 84.9399 75.47 86.0299 75.09C86.3699 74.97 86.6999 74.84 87.0299 74.71C87.5899 74.5 88.1599 74.3 88.7199 74.07C88.8299 74.38 88.94 74.69 89.05 75C89.18 75.38 89.3099 75.77 89.4299 76.14C89.5499 76.54 89.6499 76.92 89.7499 77.3L89.7299 77.32ZM70.3699 91.81C70.1799 92.16 69.9899 92.49 69.7999 92.83C69.5599 93.24 69.3299 93.66 69.0899 94.05C69.0199 94.16 68.9499 94.26 68.8799 94.37C67.8099 96.03 66.6899 97.4 65.5699 98.44C65.4799 98.52 65.3999 98.62 65.3099 98.69C65.0399 98.93 64.7699 99.13 64.4999 99.33C64.3199 99.46 64.1299 99.61 63.9499 99.72C63.7299 99.86 63.5099 99.97 63.2999 100.08C63.0699 100.2 62.8399 100.31 62.6099 100.39C62.4199 100.46 62.2399 100.51 62.0499 100.55C61.7099 100.63 61.3599 100.71 61.0299 100.71C60.6499 100.71 60.2499 100.63 59.8499 100.52C59.6999 100.48 59.5499 100.41 59.3999 100.36C59.1199 100.26 58.8399 100.14 58.5599 99.98C58.3999 99.9 58.2499 99.8 58.0899 99.7C57.7999 99.52 57.5099 99.31 57.2199 99.08C57.0699 98.96 56.9099 98.84 56.7599 98.7C56.4599 98.43 56.1499 98.13 55.8499 97.82C55.7099 97.68 55.5699 97.54 55.4399 97.39C55.0799 96.99 54.7299 96.55 54.3699 96.09C54.2899 95.98 54.2099 95.89 54.1299 95.78C53.6999 95.19 53.2699 94.55 52.8399 93.87C52.7499 93.72 52.6599 93.55 52.5699 93.4C52.2499 92.86 51.9199 92.3 51.6099 91.7C51.4699 91.44 51.3399 91.17 51.2099 90.91C51.0399 90.56 50.8699 90.2 50.6999 89.84C50.7799 89.81 50.8499 89.77 50.9299 89.74C51.7699 89.39 52.5999 89.01 53.4099 88.62C53.5599 88.55 53.7099 88.47 53.8599 88.39C54.6899 87.98 55.4999 87.55 56.2799 87.1C56.2999 87.09 56.3199 87.08 56.3399 87.06C57.1299 86.61 57.8699 86.14 58.5799 85.66C58.7099 85.57 58.8399 85.49 58.9699 85.4C59.6399 84.94 60.2599 84.48 60.8399 84.02C60.8999 83.97 60.9699 83.93 61.0199 83.88C61.0699 83.92 61.1399 83.97 61.1999 84.01C61.7799 84.48 62.4099 84.94 63.0799 85.4C63.1999 85.48 63.3199 85.56 63.4399 85.64C64.1599 86.12 64.9099 86.6 65.7099 87.06C65.7099 87.06 65.7299 87.06 65.7299 87.07C66.5199 87.52 67.3399 87.96 68.1799 88.38C68.3299 88.46 68.4799 88.53 68.6399 88.61C69.4399 89 70.2699 89.37 71.0999 89.72C71.1899 89.76 71.2699 89.8 71.3499 89.83C71.2099 90.13 71.0699 90.43 70.9199 90.72C70.7399 91.08 70.5599 91.45 70.3699 91.8V91.81ZM46.9599 89.04C46.5999 89.16 46.2299 89.29 45.8799 89.4C45.3999 89.55 44.9299 89.67 44.4699 89.79C44.1099 89.88 43.7399 89.99 43.3899 90.07C43.0299 90.15 42.6799 90.21 42.3299 90.28C41.8999 90.36 41.4499 90.45 41.0399 90.51C40.9499 90.52 40.8699 90.52 40.7799 90.54C37.6699 90.93 35.1599 90.59 33.5399 89.52C33.3399 89.38 33.1099 89.25 32.9399 89.08C32.6599 88.8 32.4199 88.45 32.2099 88.07C32.1499 87.96 32.0999 87.83 32.0499 87.71C31.9199 87.42 31.7899 87.11 31.6899 86.77C31.6399 86.61 31.6099 86.44 31.5699 86.27C31.4999 85.94 31.4399 85.59 31.3999 85.22C31.3799 85.02 31.3599 84.81 31.3499 84.6C31.3299 84.22 31.3199 83.82 31.3299 83.41C31.3299 83.18 31.3299 82.96 31.3499 82.73C31.3799 82.27 31.4299 81.78 31.4899 81.29C31.5199 81.08 31.5299 80.88 31.5599 80.66C31.6699 79.95 31.8099 79.22 31.9899 78.46C32.0399 78.27 32.0999 78.06 32.1499 77.86C32.2999 77.28 32.4599 76.69 32.6499 76.08C32.7499 75.77 32.8599 75.45 32.9699 75.13C33.0799 74.79 33.2099 74.44 33.3299 74.1C33.8699 74.32 34.4299 74.52 34.9799 74.72C35.3299 74.85 35.6799 74.99 36.0299 75.12C37.1199 75.5 38.2099 75.84 39.2799 76.13C39.3299 76.14 39.3699 76.15 39.4199 76.16C40.4399 76.43 41.4399 76.65 42.4099 76.83C42.7399 76.89 43.0499 76.92 43.3799 76.97C43.8699 77.05 44.3799 77.14 44.8399 77.19C44.8899 77.67 44.9799 78.18 45.0599 78.68C45.1099 79 45.1399 79.3 45.1999 79.63C45.3799 80.59 45.5899 81.58 45.8599 82.59C45.8699 82.65 45.8799 82.7 45.8999 82.76C46.1899 83.82 46.5299 84.9 46.8999 85.99C47.0299 86.36 47.1799 86.72 47.3199 87.09C47.5199 87.63 47.7099 88.17 47.9299 88.71C47.5999 88.83 47.2799 88.95 46.9599 89.05V89.04ZM30.2099 70.36C29.7699 70.12 29.3499 69.88 28.9399 69.64C28.6199 69.45 28.2799 69.26 27.9799 69.07C27.5899 68.83 27.2399 68.58 26.8799 68.33C26.5999 68.14 26.3099 67.94 26.0399 67.75C25.6699 67.48 25.3499 67.2 25.0199 66.92C24.8199 66.75 24.5999 66.58 24.4099 66.41C23.9699 66.01 23.5799 65.6 23.2299 65.2C23.1899 65.16 23.1399 65.11 23.1099 65.07C22.3399 64.15 21.7999 63.24 21.5199 62.35C21.4899 62.25 21.4899 62.16 21.4599 62.06C21.3699 61.7 21.2899 61.34 21.2899 60.99C21.2899 60.59 21.3599 60.18 21.4799 59.76C21.5199 59.62 21.5899 59.49 21.6399 59.35C21.7499 59.06 21.8699 58.77 22.0299 58.48C22.1199 58.32 22.2199 58.17 22.3199 58.01C22.4999 57.73 22.6999 57.45 22.9199 57.17C23.0499 57 23.1899 56.84 23.3399 56.67C23.5899 56.39 23.8599 56.11 24.1499 55.84C24.3199 55.68 24.4799 55.51 24.6599 55.35C24.9999 55.05 25.3799 54.75 25.7699 54.45C25.9399 54.32 26.0899 54.18 26.2699 54.05C26.8499 53.63 27.4699 53.21 28.1399 52.79C28.2799 52.7 28.4499 52.62 28.5899 52.53C29.1399 52.2 29.6999 51.88 30.3099 51.56C30.5599 51.43 30.8299 51.3 31.0899 51.17C31.4399 51 31.7999 50.82 32.1699 50.65C32.2099 50.74 32.2499 50.82 32.2899 50.91C32.6399 51.74 33.0099 52.56 33.3999 53.36C33.4699 53.51 33.5499 53.66 33.6299 53.81C34.0499 54.65 34.4799 55.48 34.9399 56.26C34.9399 56.26 34.9399 56.28 34.9499 56.29C35.4099 57.09 35.8799 57.83 36.3599 58.55C36.4399 58.67 36.5199 58.8 36.6099 58.92C37.0699 59.59 37.5399 60.22 37.9999 60.8C38.0399 60.85 38.0899 60.92 38.1299 60.97C38.0899 61.02 38.0399 61.09 37.9999 61.15C37.5299 61.73 37.0699 62.36 36.6099 63.03C36.5299 63.15 36.4499 63.28 36.3599 63.4C35.8799 64.12 35.3999 64.87 34.9499 65.67C34.9499 65.67 34.9499 65.69 34.9399 65.69C34.4899 66.48 34.0499 67.31 33.6299 68.15C33.5599 68.3 33.4799 68.44 33.4099 68.59C33.0199 69.4 32.6399 70.23 32.2899 71.06C32.2599 71.14 32.2099 71.22 32.1799 71.3C31.8599 71.15 31.5499 71 31.2399 70.85C30.8899 70.68 30.5399 70.5 30.1999 70.33L30.2099 70.36ZM32.2899 44.65C32.1699 44.2 32.0399 43.74 31.9399 43.3C31.8899 43.1 31.8699 42.91 31.8299 42.72C31.1299 39.3 31.1699 36.41 31.9899 34.44C32.0199 34.38 32.0399 34.31 32.0599 34.25C32.1799 34 32.3299 33.79 32.4699 33.57C32.6199 33.35 32.7599 33.11 32.9399 32.92C33.1499 32.71 33.4299 32.54 33.6999 32.37C33.8299 32.29 33.9299 32.19 34.0699 32.12C34.3799 31.96 34.7499 31.84 35.1199 31.72C35.2699 31.67 35.3999 31.62 35.5599 31.58C36.0199 31.47 36.5099 31.38 37.0399 31.33C37.3399 31.3 37.6899 31.31 38.0099 31.31C38.3099 31.31 38.5899 31.28 38.9099 31.3C39.2599 31.31 39.6499 31.36 40.0199 31.4C40.3499 31.43 40.6699 31.45 41.0099 31.5C41.3799 31.55 41.7799 31.63 42.1699 31.71C42.5499 31.78 42.9299 31.85 43.3299 31.94C43.7099 32.03 44.0999 32.14 44.4899 32.24C44.9299 32.36 45.3699 32.47 45.8199 32.61C46.1999 32.73 46.5899 32.86 46.9799 32.99C47.2899 33.09 47.6099 33.21 47.9199 33.32C47.6999 33.86 47.5099 34.4 47.3099 34.94C47.1699 35.3 47.0299 35.66 46.8999 36.02C46.5199 37.11 46.1799 38.19 45.8899 39.26C45.8699 39.32 45.8599 39.38 45.8499 39.45C45.5799 40.46 45.3599 41.44 45.1899 42.4C45.1299 42.74 45.0899 43.06 45.0399 43.39C44.9699 43.88 44.8699 44.38 44.8199 44.84C44.3599 44.89 43.8599 44.98 43.3699 45.06C43.0399 45.11 42.7199 45.14 42.3799 45.21C41.4199 45.39 40.4399 45.61 39.4299 45.87C39.3699 45.89 39.3099 45.89 39.2499 45.91C38.1799 46.2 37.0899 46.54 35.9999 46.92C35.6599 47.04 35.3199 47.18 34.9799 47.31C34.4199 47.52 33.8599 47.71 33.3099 47.94C33.1999 47.63 33.0899 47.32 32.9799 47.02C32.8499 46.63 32.7099 46.23 32.5899 45.85C32.4699 45.45 32.3699 45.07 32.2699 44.68L32.2899 44.65ZM51.6699 30.17C51.8699 29.8 52.0699 29.45 52.2699 29.1C52.4999 28.7 52.7299 28.3 52.9599 27.93C53.0999 27.71 53.2499 27.51 53.3899 27.29C54.7799 25.21 56.2299 23.62 57.6499 22.6C57.8299 22.47 58.0199 22.32 58.1999 22.21C58.4099 22.08 58.6099 22 58.8099 21.9C59.0599 21.78 59.2999 21.65 59.5499 21.57C59.7199 21.51 59.8899 21.48 60.0499 21.45C60.3799 21.37 60.6999 21.3 61.0199 21.3C61.3399 21.3 61.6299 21.38 61.9399 21.45C62.0899 21.48 62.2399 21.49 62.3899 21.54C62.7099 21.64 63.0399 21.81 63.3599 21.98C63.5599 22.08 63.7499 22.19 63.9499 22.31C64.3099 22.54 64.6699 22.78 65.0399 23.09C65.2899 23.3 65.5399 23.56 65.7999 23.81C65.9999 24 66.1999 24.17 66.3899 24.39C66.6399 24.66 66.8899 24.98 67.1399 25.28C67.3399 25.52 67.5399 25.75 67.7399 26.01C67.9699 26.32 68.2099 26.67 68.4399 27.01C68.6499 27.32 68.8699 27.62 69.0799 27.96C69.2899 28.29 69.4899 28.65 69.6999 29C69.9299 29.39 70.1599 29.79 70.3799 30.21C70.5599 30.55 70.7399 30.91 70.9099 31.26C71.0599 31.56 71.2099 31.88 71.3599 32.19C71.2899 32.22 71.2199 32.25 71.1499 32.28C70.2999 32.64 69.4599 33.02 68.6299 33.42C68.4899 33.49 68.3499 33.56 68.2099 33.63C67.3599 34.05 66.5299 34.49 65.7399 34.94C65.7399 34.94 65.7199 34.95 65.7099 34.96C64.9099 35.42 64.1599 35.9 63.4399 36.38C63.3199 36.46 63.1999 36.54 63.0799 36.62C62.3999 37.08 61.7699 37.55 61.1799 38.02C61.1299 38.06 61.0699 38.1 61.0199 38.14C60.9699 38.1 60.9099 38.06 60.8599 38.02C60.2799 37.55 59.6399 37.08 58.9699 36.62C58.8399 36.53 58.7199 36.45 58.5899 36.37C57.8799 35.9 57.1399 35.43 56.3499 34.97C56.3199 34.95 56.2799 34.93 56.2499 34.91C55.4899 34.47 54.6899 34.05 53.8799 33.65C53.7199 33.57 53.5599 33.49 53.3999 33.41C52.5899 33.02 51.7699 32.64 50.9299 32.29C50.8499 32.26 50.7799 32.22 50.6999 32.19C50.8399 31.89 50.9799 31.59 51.1199 31.31C51.3099 30.94 51.4899 30.56 51.6799 30.2L51.6699 30.17ZM75.2699 32.89C75.5199 32.81 75.7799 32.71 76.0299 32.64C76.7999 32.4 77.5599 32.19 78.2899 32.01C78.5399 31.95 78.7699 31.91 79.0099 31.86C79.5099 31.75 80 31.65 80.4799 31.57C80.7999 31.52 81.1099 31.48 81.4099 31.45C81.7899 31.4 82.1599 31.36 82.5099 31.34C82.7999 31.32 83.09 31.31 83.36 31.3C83.73 31.3 84.0899 31.3 84.4399 31.32C84.6599 31.33 84.8899 31.34 85.0999 31.36C85.5899 31.41 86.0599 31.48 86.4899 31.59C86.5299 31.6 86.5799 31.6 86.6299 31.62C87.1199 31.75 87.5699 31.92 87.9699 32.13C88.0099 32.15 88.0399 32.17 88.0799 32.19C88.4699 32.4 88.8099 32.65 89.0999 32.93C89.3599 33.19 89.5699 33.5 89.7599 33.84C89.7999 33.91 89.8499 33.95 89.8899 34.02C90.0999 34.42 90.2699 34.88 90.4099 35.37C90.4599 35.58 90.4899 35.82 90.5299 36.04C90.5899 36.35 90.6599 36.66 90.6899 37C90.7199 37.28 90.7099 37.6 90.7199 37.9C90.7199 38.22 90.7499 38.54 90.7299 38.88C90.7199 39.21 90.6799 39.57 90.6399 39.91C90.6099 40.27 90.5799 40.62 90.5299 40.99C90.4799 41.35 90.3999 41.73 90.3299 42.11C90.2599 42.5 90.1899 42.9 90.0999 43.3C90.0099 43.68 89.9 44.08 89.8 44.48C89.69 44.91 89.5699 45.35 89.4299 45.79C89.3099 46.19 89.1699 46.6 89.0299 47.01C88.9299 47.31 88.8199 47.61 88.7099 47.91C88.1599 47.68 87.5899 47.49 87.0299 47.28C86.6899 47.15 86.3499 47.02 86.0099 46.9C84.9199 46.52 83.8299 46.18 82.7599 45.89C82.6899 45.87 82.6299 45.86 82.5699 45.85C81.5699 45.59 80.5899 45.37 79.6399 45.19C79.2899 45.13 78.9799 45.09 78.6399 45.04C78.1599 44.97 77.6599 44.87 77.1999 44.82C77.1499 44.36 77.06 43.85 76.9799 43.36C76.93 43.03 76.8999 42.72 76.8299 42.38C76.6499 41.43 76.4299 40.44 76.1699 39.43C76.1499 39.36 76.1399 39.3 76.1299 39.24C75.8399 38.17 75.4999 37.09 75.1199 36C74.9899 35.64 74.8499 35.28 74.7099 34.92C74.5099 34.38 74.3199 33.83 74.0999 33.29C74.4899 33.15 74.8799 33.01 75.2699 32.88V32.89ZM86.8399 52.4C86.7799 52.52 86.7199 52.64 86.6599 52.76C86.2999 53.49 85.9199 54.21 85.5299 54.9C85.4899 54.98 85.4499 55.05 85.3999 55.13C84.9899 55.85 84.5599 56.54 84.1299 57.2C84.0499 57.33 83.9599 57.45 83.8799 57.58C83.4499 58.22 83.0099 58.82 82.5799 59.38C82.5599 59.41 82.5399 59.43 82.5199 59.46L82.4799 59.42C82.4799 59.42 82.4799 59.41 82.4699 59.4C81.9699 58.9 81.4399 58.46 80.8799 58.05C80.7799 57.98 80.6799 57.9 80.5799 57.83C80.0399 57.45 79.4799 57.12 78.8999 56.83C78.7799 56.77 78.67 56.72 78.55 56.67C77.94 56.39 77.3099 56.14 76.6599 55.94C76.6299 55.94 76.6099 55.93 76.5799 55.92C75.9399 55.74 75.2799 55.61 74.5999 55.52C74.5199 55.51 74.4499 55.48 74.3799 55.48C74.4299 55.42 74.4599 55.35 74.4999 55.29C74.9099 54.75 75.2899 54.19 75.6099 53.61C75.6499 53.53 75.6899 53.45 75.7299 53.37C76.0199 52.83 76.2599 52.27 76.4699 51.7C76.5099 51.59 76.5599 51.48 76.5999 51.36C76.8099 50.74 76.9699 50.1 77.0799 49.45C77.0999 49.31 77.1199 49.17 77.1399 49.03C77.2399 48.35 77.3099 47.67 77.3099 46.97V46.93C77.6999 46.97 78.0799 47.01 78.4899 47.08C78.7899 47.13 79.0899 47.17 79.4099 47.23C80.1899 47.38 80.99 47.56 81.8 47.77C81.99 47.82 82.17 47.85 82.36 47.9C83.37 48.17 84.3999 48.5 85.4299 48.86C85.7199 48.96 85.9999 49.08 86.2799 49.18C86.8499 49.39 87.42 49.62 87.9799 49.85C87.95 49.92 87.9199 50 87.8899 50.07C87.5599 50.86 87.2099 51.64 86.8399 52.4ZM83.8699 64.41C83.9599 64.54 84.0499 64.68 84.1399 64.81C84.5699 65.46 84.9899 66.14 85.3999 66.86C85.4499 66.94 85.4899 67.02 85.5299 67.1C85.9199 67.79 86.2999 68.51 86.6599 69.25C86.7199 69.36 86.7699 69.47 86.8299 69.58C87.2099 70.36 87.5599 71.15 87.8999 71.96C87.9299 72.02 87.95 72.08 87.9799 72.14C87.39 72.38 86.8099 72.62 86.2199 72.84C85.9599 72.94 85.6999 73.05 85.4399 73.14C84.4099 73.5 83.3799 73.82 82.3699 74.1C82.1599 74.16 81.9599 74.19 81.7499 74.25C80.9599 74.45 80.18 74.63 79.42 74.78C79.09 74.84 78.7699 74.88 78.4499 74.94C78.0599 75 77.6899 75.04 77.3099 75.08V75.03C77.3099 74.33 77.2399 73.64 77.1399 72.97C77.1199 72.83 77.0999 72.69 77.0799 72.55C76.9599 71.9 76.7999 71.26 76.5999 70.64C76.5599 70.53 76.5099 70.42 76.4699 70.31C76.2599 69.74 76.0099 69.18 75.7299 68.64C75.6899 68.56 75.6499 68.48 75.6099 68.4C75.2899 67.82 74.9099 67.27 74.4999 66.73C74.4499 66.67 74.4199 66.6 74.3799 66.54C74.4499 66.54 74.5199 66.51 74.5899 66.5C75.2799 66.41 75.9599 66.28 76.6099 66.09C76.6199 66.09 76.6399 66.09 76.6599 66.08C77.3199 65.89 77.9499 65.63 78.5699 65.35C78.6799 65.3 78.7899 65.25 78.8999 65.2C79.4899 64.91 80.0599 64.57 80.5999 64.19C80.6999 64.12 80.7899 64.05 80.8899 63.98C81.4499 63.57 81.9899 63.13 82.4899 62.62C82.5099 62.6 82.5199 62.58 82.5399 62.57C82.5599 62.6 82.58 62.62 82.61 62.65C83.04 63.2 83.4799 63.8 83.8999 64.43L83.8699 64.41ZM74.7899 79.4C74.6499 80.16 74.4699 80.94 74.2599 81.74C74.2099 81.94 74.1699 82.14 74.1199 82.34C73.8399 83.35 73.5199 84.39 73.1599 85.42C73.0699 85.67 72.9699 85.92 72.8699 86.18C72.6499 86.78 72.4099 87.37 72.1599 87.96C72.0999 87.93 72.0299 87.91 71.9699 87.88C71.1699 87.54 70.3699 87.19 69.5999 86.81C69.4899 86.76 69.3799 86.7 69.2699 86.65C68.5299 86.28 67.8099 85.91 67.1199 85.52C67.0399 85.47 66.9499 85.43 66.8699 85.39C66.1499 84.98 65.4699 84.56 64.8199 84.13C64.6899 84.04 64.5499 83.95 64.4199 83.87C63.7799 83.44 63.1799 83.01 62.6299 82.57C62.5999 82.55 62.5799 82.53 62.5599 82.51C62.5799 82.49 62.5999 82.47 62.6199 82.45C63.1199 81.95 63.5599 81.42 63.9699 80.86C64.0499 80.76 64.1199 80.66 64.1999 80.55C64.5799 80.01 64.9099 79.45 65.1999 78.86C65.2599 78.75 65.3099 78.63 65.3599 78.52C65.6399 77.91 65.8999 77.28 66.0899 76.63C66.0899 76.61 66.0999 76.58 66.1099 76.56C66.2899 75.92 66.4199 75.26 66.5099 74.59C66.5199 74.51 66.5499 74.44 66.5599 74.36C66.6099 74.4 66.6699 74.43 66.7199 74.47C67.2799 74.9 67.8499 75.28 68.4499 75.62C68.4999 75.65 68.5499 75.67 68.6099 75.7C69.2299 76.03 69.8699 76.31 70.5199 76.54C70.5499 76.55 70.5799 76.56 70.6099 76.58C71.2999 76.82 72.0099 76.99 72.7399 77.11C72.7899 77.11 72.8399 77.12 72.8899 77.13C73.5999 77.24 74.3199 77.31 75.0599 77.31C75.0699 77.31 75.0899 77.31 75.0999 77.31C75.0599 77.69 75.0199 78.06 74.9599 78.45C74.9099 78.77 74.8699 79.08 74.8099 79.41L74.7899 79.4ZM57.5999 83.86C57.4699 83.95 57.3399 84.03 57.2099 84.12C56.5499 84.55 55.8699 84.98 55.1399 85.39C55.0699 85.43 54.9899 85.47 54.9199 85.51C54.2199 85.9 53.4899 86.29 52.7499 86.65C52.6399 86.71 52.5299 86.76 52.4199 86.82C51.6499 87.19 50.8599 87.55 50.0699 87.88C49.9999 87.91 49.9299 87.94 49.8599 87.97C49.6199 87.39 49.3799 86.81 49.1699 86.22C49.0699 85.95 48.9599 85.69 48.8699 85.42C48.5099 84.39 48.1899 83.37 47.9199 82.36C47.8599 82.14 47.8199 81.93 47.7599 81.71C47.5599 80.93 47.3799 80.16 47.2399 79.42C47.1799 79.08 47.1299 78.77 47.0799 78.44C47.0199 78.05 46.9799 77.68 46.9399 77.3C46.9499 77.3 46.9699 77.3 46.9799 77.3C47.6899 77.3 48.3799 77.23 49.0599 77.13C49.1299 77.12 49.1999 77.11 49.2799 77.1C50.7599 76.85 52.1699 76.38 53.4899 75.66C53.5099 75.66 53.5199 75.64 53.5399 75.63C54.1499 75.29 54.7399 74.9 55.3099 74.47C55.3599 74.43 55.4199 74.4 55.4799 74.36C55.4799 74.44 55.5199 74.51 55.5299 74.59C55.6199 75.27 55.7499 75.93 55.9299 76.57C55.9299 76.59 55.9299 76.61 55.9499 76.64C56.1399 77.3 56.3899 77.92 56.6799 78.54C56.7299 78.65 56.7799 78.77 56.8399 78.88C57.1299 79.47 57.4699 80.03 57.8499 80.57C57.9199 80.67 57.9999 80.77 58.0699 80.87C58.4799 81.42 58.9199 81.96 59.4199 82.46C59.4399 82.48 59.4599 82.5 59.4699 82.51C59.4399 82.53 59.4199 82.56 59.3899 82.58C58.8399 83.01 58.2399 83.45 57.5999 83.88V83.86ZM42.6199 74.78C41.8999 74.64 41.1499 74.47 40.3999 74.28C40.1599 74.22 39.9299 74.17 39.6799 74.11C38.6799 73.84 37.6599 73.52 36.6399 73.17C36.3499 73.07 36.0699 72.95 35.7899 72.85C35.2099 72.64 34.6299 72.41 34.0599 72.17C34.0899 72.09 34.1299 72 34.1599 71.92C34.4899 71.14 34.8299 70.37 35.1999 69.61C35.2599 69.49 35.3199 69.38 35.3699 69.27C35.7399 68.52 36.1199 67.8 36.5199 67.09C36.5599 67.02 36.5899 66.95 36.6299 66.89C37.0399 66.16 37.4699 65.48 37.8999 64.82C37.9799 64.69 38.0699 64.56 38.1499 64.44C38.5799 63.8 39.0099 63.2 39.4499 62.65C39.4699 62.62 39.4899 62.6 39.5199 62.57C39.5399 62.59 39.5599 62.61 39.5699 62.62C40.0699 63.12 40.6099 63.56 41.1599 63.97C41.2599 64.04 41.3499 64.12 41.4499 64.18C41.9899 64.56 42.5599 64.9 43.1499 65.19C43.2599 65.24 43.3699 65.29 43.4799 65.35C44.0899 65.64 44.7199 65.89 45.3799 66.08C45.3999 66.08 45.4299 66.09 45.4499 66.1C46.0899 66.28 46.7499 66.41 47.4199 66.5C47.4999 66.51 47.5799 66.54 47.6599 66.55C47.6199 66.61 47.5899 66.67 47.5399 66.73C47.1299 67.27 46.7499 67.83 46.4199 68.41C46.3799 68.49 46.3399 68.57 46.2999 68.64C46.0099 69.19 45.7599 69.75 45.5499 70.32C45.5099 70.43 45.4599 70.54 45.4299 70.65C45.2199 71.27 45.0599 71.91 44.9399 72.56C44.9199 72.7 44.8999 72.84 44.8799 72.97C44.7799 73.65 44.7099 74.33 44.7099 75.04V75.09C44.3399 75.05 43.9799 75.01 43.5899 74.95C43.2599 74.9 42.9399 74.86 42.6099 74.79L42.6199 74.78ZM38.1599 57.59C38.0699 57.46 37.9899 57.34 37.9099 57.21C37.4799 56.56 37.0599 55.87 36.6499 55.15C36.5999 55.07 36.5599 54.98 36.5099 54.89C36.1199 54.19 35.7399 53.47 35.3799 52.74C35.3299 52.64 35.2699 52.53 35.2199 52.43C34.8399 51.66 34.4899 50.86 34.1599 50.06C34.1299 49.99 34.0999 49.92 34.0699 49.85C34.6399 49.61 35.2199 49.38 35.7999 49.16C36.0699 49.06 36.3499 48.94 36.6199 48.85C37.6499 48.49 38.6799 48.17 39.6899 47.89C39.8999 47.83 40.0999 47.8 40.2999 47.74C41.0899 47.54 41.8799 47.36 42.6299 47.21C42.9599 47.15 43.2699 47.11 43.5899 47.06C43.9899 47 44.3599 46.96 44.7399 46.92V46.96C44.7399 47.66 44.8099 48.35 44.9099 49.03C44.9299 49.17 44.9499 49.31 44.9699 49.44C45.0899 50.09 45.2499 50.73 45.4599 51.35C45.4999 51.46 45.5399 51.57 45.5799 51.68C45.7899 52.26 46.0399 52.82 46.3299 53.37C46.3699 53.44 46.3999 53.52 46.4399 53.59C46.7699 54.17 47.1399 54.74 47.5599 55.28C47.5999 55.34 47.6299 55.4 47.6799 55.46C47.5999 55.46 47.5399 55.49 47.4599 55.5C46.7799 55.59 46.1199 55.72 45.4799 55.9C45.4499 55.9 45.4299 55.91 45.3999 55.92C44.7499 56.11 44.1199 56.36 43.5099 56.65C43.3899 56.7 43.2799 56.76 43.1599 56.81C42.5799 57.1 42.0199 57.44 41.4799 57.81C41.3799 57.88 41.2799 57.96 41.1799 58.04C40.6299 58.45 40.0899 58.89 39.5999 59.39C39.5799 59.41 39.5599 59.43 39.5399 59.45C39.5199 59.42 39.4999 59.4 39.4799 59.38C39.0399 58.83 38.6099 58.22 38.1799 57.58L38.1599 57.59ZM47.2399 42.61C47.3799 41.85 47.5599 41.07 47.7699 40.27C47.8199 40.06 47.8599 39.87 47.9199 39.66C48.1899 38.65 48.5199 37.62 48.8799 36.59C48.9699 36.32 49.0899 36.06 49.1799 35.79C49.3999 35.2 49.6299 34.62 49.8699 34.04C49.9399 34.07 49.9999 34.09 50.0699 34.12C50.8699 34.46 51.6599 34.81 52.4299 35.18C52.5399 35.23 52.6399 35.29 52.7499 35.34C53.4999 35.71 54.2199 36.09 54.9299 36.49C54.9999 36.53 55.0799 36.57 55.1499 36.61C55.8699 37.02 56.5499 37.45 57.2099 37.87C57.3399 37.96 57.4799 38.05 57.6099 38.13C58.2399 38.56 58.8399 38.99 59.3899 39.42C59.4199 39.44 59.4499 39.47 59.4799 39.49C59.4599 39.51 59.4399 39.53 59.4299 39.54C58.9299 40.04 58.4899 40.58 58.0799 41.13C58.0099 41.23 57.9299 41.33 57.8599 41.43C57.4799 41.97 57.1499 42.54 56.8499 43.12C56.7899 43.23 56.7399 43.35 56.6899 43.46C56.4099 44.07 56.1499 44.7 55.9599 45.36C55.9599 45.38 55.9499 45.41 55.9399 45.43C55.7599 46.07 55.6299 46.73 55.5399 47.41C55.5299 47.49 55.4999 47.56 55.4899 47.64C55.4299 47.6 55.3699 47.57 55.3099 47.52C54.7699 47.11 54.2099 46.73 53.6299 46.4C53.5499 46.36 53.4799 46.33 53.3999 46.28C52.8499 45.99 52.2899 45.74 51.7099 45.53C51.5999 45.49 51.4899 45.44 51.3799 45.41C50.7599 45.2 50.1199 45.04 49.4699 44.92C49.3299 44.9 49.1899 44.88 49.0599 44.86C48.3799 44.76 47.6999 44.69 46.9999 44.69H46.9599C46.9999 44.31 47.0399 43.93 47.1099 43.52C47.1599 43.21 47.1999 42.91 47.2599 42.59L47.2399 42.61ZM64.4299 38.14C64.5599 38.05 64.6899 37.96 64.8299 37.88C65.4799 37.45 66.1599 37.03 66.8799 36.62C66.9599 36.57 67.0399 36.53 67.1199 36.49C67.8099 36.1 68.5299 35.72 69.2599 35.36C69.3799 35.3 69.4899 35.24 69.6099 35.19C70.3799 34.82 71.1699 34.47 71.9599 34.13C72.0299 34.1 72.0999 34.07 72.1699 34.05C72.4099 34.64 72.6499 35.22 72.8699 35.81C72.9699 36.07 73.0699 36.33 73.1699 36.59C73.5299 37.62 73.8499 38.65 74.1299 39.66C74.1899 39.87 74.2299 40.07 74.2799 40.28C74.4799 41.07 74.6599 41.85 74.7999 42.6C74.8599 42.93 74.8999 43.25 74.9599 43.57C75.0199 43.96 75.0599 44.33 75.0999 44.71C75.0899 44.71 75.0699 44.71 75.0599 44.71C74.3899 44.71 73.7299 44.77 73.0799 44.87C72.9199 44.89 72.7599 44.91 72.5999 44.94C71.9599 45.05 71.3299 45.21 70.7099 45.41C70.5899 45.45 70.4799 45.5 70.3599 45.54C69.7899 45.75 69.2299 46 68.6799 46.28C68.5999 46.32 68.5099 46.36 68.4299 46.41C67.8399 46.74 67.2699 47.12 66.7299 47.54C66.6799 47.58 66.6099 47.61 66.5599 47.65C66.5599 47.57 66.5199 47.5 66.5099 47.42C66.4199 46.75 66.2899 46.08 66.1099 45.45C66.1099 45.43 66.0999 45.4 66.0899 45.38C65.8999 44.72 65.6399 44.09 65.3599 43.48C65.3099 43.37 65.2599 43.26 65.1999 43.15C64.9099 42.56 64.5699 42 64.1899 41.45C64.1199 41.35 64.0499 41.26 63.9699 41.16C63.5599 40.6 63.1199 40.07 62.6199 39.57C62.5999 39.55 62.5799 39.53 62.5699 39.52C62.5999 39.5 62.6199 39.48 62.6399 39.46C63.1899 39.02 63.7999 38.59 64.4299 38.16V38.14ZM75.1799 48.43C75.1599 48.6 75.1199 48.75 75.0899 48.91C75.0399 49.21 74.9999 49.5 74.9299 49.78C74.8899 49.96 74.8299 50.13 74.7699 50.31C74.6999 50.55 74.6299 50.79 74.5499 51.02C74.4799 51.2 74.4099 51.36 74.3299 51.53C74.2399 51.74 74.1599 51.94 74.0599 52.14C73.9799 52.31 73.8899 52.46 73.7999 52.62C73.6999 52.8 73.5999 52.98 73.4899 53.15C73.3999 53.3 73.2999 53.44 73.1999 53.58C73.0899 53.74 72.9799 53.9 72.8699 54.04C72.7699 54.17 72.6599 54.3 72.5599 54.43C72.4499 54.57 72.3299 54.7 72.2199 54.83C72.1199 54.95 72.0099 55.06 71.9099 55.16C71.8399 55.23 71.7699 55.3 71.7099 55.37C71.3799 55.39 71.0599 55.42 70.7399 55.45C70.7099 55.45 70.6799 55.45 70.6499 55.45C69.6699 55.56 68.6899 55.77 67.7199 56.05C67.6199 56.08 67.5199 56.12 67.4199 56.15C67.0399 56.27 66.6699 56.39 66.2999 56.52C66.1399 56.58 65.9999 56.65 65.8399 56.71C65.5299 56.84 65.2199 56.96 64.9199 57.1C64.9099 57.1 64.8999 57.1 64.8799 57.12C64.8999 57.07 64.9199 57.01 64.9499 56.96C65.0899 56.65 65.2099 56.34 65.3399 56.03C65.4199 55.84 65.4999 55.65 65.5699 55.46C65.6899 55.14 65.7799 54.81 65.8799 54.48C65.9399 54.29 65.9999 54.1 66.0499 53.9C66.1399 53.55 66.2099 53.19 66.2899 52.84C66.3299 52.67 66.3699 52.49 66.3999 52.32C66.4899 51.79 66.5599 51.26 66.5999 50.74C66.6099 50.59 66.6199 50.44 66.6299 50.29C66.7299 50.19 66.8199 50.1 66.9299 50C67.0099 49.92 67.0899 49.84 67.1799 49.77C68.7799 48.35 71.1399 46.98 74.4199 46.77C74.4299 46.77 74.4499 46.77 74.4599 46.77C74.7199 46.75 74.9999 46.77 75.2599 46.77C75.2599 46.83 75.2599 46.9 75.2599 46.96C75.2599 47.47 75.2299 47.96 75.1699 48.43H75.1799ZM81.0199 60.83C81.0199 60.83 81.12 60.94 81.17 60.99C81.12 61.04 81.0699 61.1 81.0199 61.15C78.7699 63.4 75.8299 64.59 72.5399 64.59H72.1899C71.7399 64.58 71.2799 64.54 70.8199 64.49C70.6599 64.47 70.4899 64.44 70.3299 64.41C70.0299 64.36 69.7399 64.32 69.4399 64.26C69.2499 64.22 69.0599 64.17 68.8699 64.12C68.5999 64.05 68.3299 63.99 68.0699 63.91C67.8799 63.85 67.6899 63.79 67.4899 63.72C67.2299 63.63 66.9799 63.54 66.7299 63.44C66.5399 63.37 66.3599 63.29 66.1699 63.21C65.9199 63.1 65.6799 62.99 65.4299 62.87C65.2499 62.78 65.0799 62.69 64.9099 62.6C64.6699 62.47 64.4299 62.33 64.1999 62.19C64.0399 62.09 63.8899 62 63.7299 61.9C63.4899 61.74 63.2699 61.58 63.0499 61.41C62.9199 61.31 62.7799 61.21 62.6499 61.11C62.6099 61.08 62.5699 61.04 62.5299 61C62.5399 60.99 62.5499 60.98 62.5699 60.97C63.0599 60.57 63.5999 60.2 64.1599 59.85C64.2599 59.79 64.3599 59.72 64.4599 59.66C65.0199 59.33 65.6099 59.04 66.2199 58.77C66.3399 58.72 66.4599 58.67 66.5799 58.62C67.1999 58.37 67.8399 58.14 68.4899 57.97C68.5899 57.94 68.6899 57.92 68.7899 57.9C69.4699 57.73 70.1499 57.59 70.8399 57.51C70.8499 57.51 70.8699 57.51 70.8799 57.51C71.3099 57.46 71.7499 57.43 72.1799 57.42H72.5299C75.8299 57.42 78.7599 58.61 81.0099 60.86L81.0199 60.83ZM72.5699 67.55C72.6699 67.68 72.7799 67.81 72.8799 67.94C72.9899 68.09 73.0999 68.24 73.2099 68.4C73.3099 68.54 73.4099 68.68 73.4999 68.84C73.6099 69.01 73.7099 69.19 73.8099 69.37C73.8999 69.53 73.9899 69.68 74.0699 69.85C74.1699 70.04 74.2499 70.25 74.3399 70.46C74.4099 70.63 74.4899 70.8 74.5599 70.97C74.6399 71.2 74.7099 71.44 74.7799 71.68C74.8299 71.85 74.8899 72.02 74.9399 72.2C75.0099 72.48 75.0499 72.78 75.0999 73.07C75.1299 73.23 75.1699 73.38 75.1899 73.55C75.2499 74.02 75.2799 74.51 75.2799 75.02C75.2799 75.09 75.2799 75.17 75.2799 75.24C75.2499 75.24 75.2299 75.24 75.1999 75.24C75.0599 75.24 74.9299 75.23 74.7899 75.23C72.8399 75.19 71.1799 74.7 69.8099 74C69.7699 73.98 69.7399 73.96 69.6999 73.94C69.3999 73.78 69.1199 73.62 68.8399 73.45C68.7499 73.39 68.6599 73.33 68.5699 73.27C68.3599 73.13 68.1599 72.99 67.9699 72.85C67.8499 72.76 67.7399 72.67 67.6299 72.58C67.4799 72.46 67.3299 72.33 67.1899 72.21C67.0699 72.11 66.9599 72 66.8499 71.9C66.7799 71.83 66.7099 71.76 66.6399 71.7C66.6399 71.55 66.6199 71.4 66.6099 71.25C66.5699 70.72 66.4999 70.19 66.4099 69.66C66.3799 69.48 66.3299 69.31 66.2999 69.13C66.2299 68.78 66.1599 68.43 66.0599 68.08C66.0099 67.88 65.9399 67.68 65.8799 67.48C65.7799 67.16 65.6899 66.84 65.5799 66.53C65.5099 66.32 65.4199 66.12 65.3399 65.92C65.2199 65.62 65.0999 65.33 64.9699 65.04C64.9399 64.98 64.9199 64.92 64.8999 64.86C65.0199 64.92 65.1499 64.96 65.2799 65.02C65.5699 65.15 65.8499 65.27 66.1499 65.38C66.3999 65.48 66.6399 65.57 66.8999 65.65C67.1999 65.75 67.4999 65.84 67.7999 65.93C68.0499 66 68.2999 66.07 68.5599 66.13C68.8699 66.2 69.1799 66.27 69.4999 66.32C69.7499 66.37 69.9999 66.41 70.2499 66.45C70.5799 66.5 70.8999 66.52 71.2199 66.55C71.3899 66.56 71.5699 66.6 71.7399 66.6C71.8099 66.67 71.8699 66.74 71.9399 66.81C72.0399 66.92 72.1499 67.03 72.2499 67.15C72.3599 67.28 72.4699 67.41 72.5899 67.55H72.5699ZM61.1799 80.99C61.1299 81.04 61.0699 81.09 61.0199 81.14C60.9699 81.09 60.9099 81.04 60.8599 80.99C58.6099 78.74 57.4199 75.81 57.4199 72.51V72.15C57.4399 71.69 57.4699 71.23 57.5299 70.77C57.5499 70.62 57.5799 70.47 57.5999 70.32C57.6499 70.01 57.6999 69.7 57.7599 69.39C57.7999 69.21 57.8499 69.04 57.8899 68.87C57.9599 68.59 58.0299 68.3 58.1199 68.03C58.1799 67.85 58.2399 67.67 58.2999 67.48C58.3899 67.21 58.4799 66.95 58.5899 66.69C58.6599 66.51 58.7399 66.33 58.8199 66.15C58.9299 65.9 59.0499 65.65 59.1699 65.4C59.2599 65.23 59.3399 65.05 59.4399 64.88C59.5699 64.64 59.7099 64.41 59.8499 64.18C59.9499 64.02 60.0399 63.86 60.1499 63.71C60.2999 63.48 60.4699 63.26 60.6299 63.04C60.7299 62.9 60.8299 62.76 60.9399 62.63C60.9699 62.59 61.0099 62.55 61.0399 62.51C61.0499 62.52 61.0599 62.53 61.0699 62.55C61.4999 63.08 61.8999 63.66 62.2699 64.27C62.3299 64.37 62.3899 64.46 62.4399 64.56C62.7899 65.17 63.0999 65.81 63.3699 66.48C63.4199 66.59 63.4599 66.71 63.5099 66.83C63.7699 67.51 63.9999 68.2 64.1699 68.9C64.1899 68.99 64.2099 69.09 64.2299 69.18C64.3999 69.92 64.5299 70.67 64.5899 71.4C64.6099 71.65 64.6199 71.9 64.6299 72.15C64.6299 72.15 64.6299 72.15 64.6299 72.16V72.51C64.6299 75.8 63.4399 78.74 61.1899 80.99H61.1799ZM54.8499 72.21C54.6199 72.41 54.3899 72.6 54.1299 72.8C54.0999 72.82 54.0699 72.85 54.0399 72.87C52.3299 74.14 49.9199 75.19 46.7699 75.21C46.7699 75.15 46.7699 75.08 46.7699 75.02C46.7699 74.51 46.7999 74.02 46.8599 73.55C46.8799 73.39 46.9199 73.24 46.9399 73.08C46.9899 72.78 47.0399 72.48 47.1099 72.2C47.1499 72.02 47.2099 71.86 47.2599 71.69C47.3299 71.44 47.3999 71.2 47.4899 70.96C47.5499 70.79 47.6299 70.63 47.6999 70.46C47.7899 70.25 47.8799 70.04 47.9799 69.84C48.0599 69.68 48.1499 69.53 48.2399 69.37C48.3399 69.19 48.4399 69 48.5499 68.83C48.6399 68.68 48.7399 68.54 48.8399 68.4C48.9499 68.24 49.0599 68.08 49.1699 67.93C49.2699 67.8 49.3799 67.67 49.4799 67.54C49.5899 67.4 49.7099 67.27 49.8199 67.14C49.9199 67.02 50.0299 66.91 50.1299 66.8C50.1999 66.73 50.2699 66.66 50.3299 66.59C50.5099 66.59 50.6899 66.55 50.8699 66.53C51.1799 66.5 51.4899 66.48 51.8099 66.43C52.0699 66.39 52.3399 66.34 52.5999 66.29C52.8999 66.23 53.1999 66.18 53.4899 66.1C53.7499 66.04 54.0199 65.96 54.2799 65.89C54.5799 65.81 54.8699 65.72 55.1599 65.62C55.4099 65.53 55.6599 65.44 55.9099 65.35C56.1999 65.24 56.4899 65.12 56.7799 64.99C56.8999 64.93 57.0399 64.89 57.1599 64.83C57.0999 64.95 57.0599 65.09 56.9999 65.21C56.8699 65.5 56.7499 65.79 56.6399 66.08C56.5499 66.33 56.4499 66.57 56.3699 66.82C56.2699 67.12 56.1799 67.42 56.0899 67.72C56.0199 67.98 55.9499 68.23 55.8799 68.49C55.8099 68.79 55.7499 69.1 55.6899 69.4C55.6399 69.66 55.5899 69.92 55.5499 70.18C55.5099 70.49 55.4799 70.8 55.4499 71.11C55.4299 71.29 55.3999 71.48 55.3899 71.66C55.2999 71.75 55.1999 71.85 55.0999 71.94C55.0099 72.02 54.9299 72.1 54.8399 72.18L54.8499 72.21ZM40.8699 60.99C40.9199 60.94 40.9699 60.88 41.0199 60.83C43.2699 58.58 46.1999 57.39 49.4999 57.39H49.8499C50.2999 57.4 50.7599 57.44 51.2199 57.49C51.3799 57.51 51.5299 57.54 51.6899 57.57C51.9899 57.62 52.2999 57.66 52.5999 57.73C52.7799 57.77 52.9599 57.82 53.1399 57.86C53.4199 57.93 53.6899 58 53.9599 58.08C54.1499 58.14 54.3399 58.2 54.5199 58.27C54.7799 58.36 55.0399 58.45 55.2899 58.55C55.4799 58.62 55.6599 58.7 55.8499 58.78C56.0999 58.89 56.3399 59 56.5799 59.12C56.7599 59.21 56.9399 59.3 57.1099 59.4C57.3399 59.53 57.5699 59.66 57.7899 59.8C57.9599 59.9 58.1299 60 58.2899 60.11C58.5099 60.25 58.7099 60.41 58.9199 60.56C59.0699 60.67 59.2299 60.78 59.3699 60.9C59.4099 60.93 59.4399 60.96 59.4699 60.99C59.4299 61.02 59.3999 61.05 59.3699 61.08C59.2299 61.2 59.0799 61.3 58.9299 61.42C58.7199 61.58 58.5099 61.73 58.2899 61.88C58.1299 61.99 57.9599 62.09 57.7899 62.2C57.5699 62.33 57.3499 62.46 57.1199 62.59C56.9399 62.69 56.7499 62.78 56.5699 62.88C56.3399 62.99 56.1099 63.1 55.8699 63.2C55.6699 63.29 55.4799 63.37 55.2799 63.45C55.0399 63.54 54.7999 63.63 54.5599 63.71C54.3499 63.78 54.1499 63.85 53.9399 63.91C53.6899 63.98 53.4399 64.05 53.1899 64.11C52.9899 64.16 52.7799 64.22 52.5799 64.26C52.3099 64.32 52.0299 64.36 51.7499 64.4C51.5699 64.43 51.3799 64.47 51.1999 64.49C50.7699 64.54 50.3499 64.57 49.9299 64.59C49.8999 64.59 49.8599 64.59 49.8299 64.59H49.4799C46.1899 64.59 43.2499 63.4 40.9999 61.15C40.9499 61.1 40.8999 61.04 40.8499 60.99H40.8699ZM49.4699 54.43C49.3699 54.3 49.2599 54.18 49.1599 54.04C49.0499 53.89 48.9399 53.74 48.8299 53.58C48.7299 53.44 48.6299 53.3 48.5399 53.14C48.4299 52.97 48.3299 52.79 48.2299 52.61C48.1399 52.45 48.0499 52.3 47.9699 52.13C47.8699 51.93 47.7899 51.72 47.6999 51.52C47.6299 51.35 47.5499 51.19 47.4899 51.01C47.3999 50.78 47.3399 50.53 47.2599 50.29C47.2099 50.12 47.1499 49.95 47.1099 49.77C47.0399 49.49 46.9899 49.19 46.9499 48.89C46.9199 48.73 46.8899 48.58 46.8699 48.42C46.8099 47.95 46.7799 47.46 46.7799 46.95C46.7799 46.89 46.7799 46.82 46.7799 46.76C46.9999 46.76 47.2299 46.75 47.4499 46.76C47.5299 46.76 47.6099 46.76 47.6899 46.77C50.4099 46.96 52.5099 47.95 54.0599 49.11C54.0599 49.11 54.0699 49.12 54.0799 49.13C54.3599 49.34 54.6199 49.55 54.8599 49.77C54.9499 49.85 55.0299 49.92 55.1099 50C55.2099 50.1 55.3099 50.2 55.4099 50.29C55.4099 50.46 55.4499 50.64 55.4699 50.81C55.4999 51.13 55.5299 51.45 55.5699 51.77C55.6099 52.02 55.6499 52.27 55.6999 52.52C55.7599 52.83 55.8199 53.15 55.8999 53.46C55.9599 53.71 56.0299 53.96 56.0999 54.21C56.1899 54.52 56.2799 54.83 56.3799 55.13C56.4599 55.38 56.5499 55.62 56.6499 55.86C56.7599 56.16 56.8899 56.45 57.0099 56.74C57.0699 56.87 57.1099 57 57.1699 57.12C57.0499 57.06 56.9199 57.02 56.7899 56.96C56.4999 56.83 56.2099 56.71 55.9199 56.6C55.6699 56.51 55.4299 56.41 55.1799 56.33C54.8799 56.23 54.5799 56.14 54.2699 56.05C54.0199 55.98 53.7699 55.91 53.5099 55.85C53.1999 55.78 52.8899 55.72 52.5799 55.66C52.3299 55.61 52.0699 55.56 51.8199 55.53C51.5099 55.49 51.1899 55.46 50.8799 55.43C50.6999 55.41 50.5199 55.38 50.3299 55.37C50.2599 55.3 50.1999 55.23 50.1299 55.16C50.0299 55.05 49.9199 54.94 49.8199 54.82C49.7099 54.69 49.5899 54.56 49.4799 54.42L49.4699 54.43ZM60.8599 40.99C60.8599 40.99 60.9699 40.89 61.0199 40.84C61.0699 40.89 61.1299 40.94 61.1799 40.99C63.4299 43.24 64.6199 46.17 64.6199 49.47V49.82C64.6199 50.07 64.5999 50.33 64.5799 50.58C64.5199 51.31 64.3899 52.06 64.2199 52.79C64.1999 52.89 64.1799 52.99 64.1599 53.08C63.9899 53.77 63.7599 54.46 63.5099 55.12C63.4599 55.25 63.4099 55.38 63.3599 55.5C63.0899 56.15 62.7799 56.78 62.4399 57.38C62.3799 57.49 62.3099 57.6 62.2399 57.71C61.8799 58.31 61.4899 58.89 61.0599 59.4C61.0499 59.42 61.0299 59.43 61.0199 59.45C60.9899 59.41 60.9599 59.38 60.9299 59.35C60.8099 59.2 60.6999 59.05 60.5799 58.89C60.4299 58.69 60.2799 58.48 60.1399 58.27C60.0299 58.1 59.9199 57.93 59.8199 57.76C59.6899 57.54 59.5599 57.32 59.4399 57.1C59.3399 56.92 59.2499 56.73 59.1499 56.54C59.0399 56.31 58.9299 56.08 58.8199 55.84C58.7399 55.65 58.6499 55.46 58.5799 55.26C58.4799 55.01 58.3899 54.76 58.3099 54.51C58.2399 54.32 58.1799 54.13 58.1199 53.93C58.0399 53.66 57.9699 53.39 57.8999 53.12C57.8499 52.94 57.7999 52.75 57.7699 52.57C57.7099 52.26 57.6599 51.96 57.6099 51.65C57.5899 51.5 57.5599 51.34 57.5399 51.19C57.4799 50.73 57.4499 50.27 57.4399 49.81V49.45C57.4399 46.15 58.6299 43.22 60.8799 40.97L60.8599 40.99Z" fill="black"/>
</svg>
