<svg width="122" height="122" viewBox="0 0 122 122" fill="none" xmlns="http://www.w3.org/2000/svg">
<path d="M61 122C94.6894 122 122 94.6893 122 61C122 27.3106 94.6894 0 61 0C27.3106 0 0 27.3106 0 61C0 94.6893 27.3106 122 61 122Z" fill="#529ACC"/>
<path d="M67.6899 17.62C68.5099 20.44 69.3999 23.24 70.1199 26.09C70.4599 27.46 71.3299 27.89 72.4399 28.6C76.8099 31.38 80.73 30.66 84.49 27.64C86.87 25.73 88.6099 26.27 90.4299 28.52C92.0999 30.59 95.1499 32.16 95.6499 34.38C96.1499 36.62 93.67 39.12 92.23 41.33C91 43.22 91.7399 44.63 92.1899 46.48C93.2299 50.75 95.9899 52.15 99.9199 53.14C105.56 54.55 104.43 53.2 104.45 58.96C104.45 61.4 105.58 64.46 103.91 66.14C102.41 67.64 99.5099 67.79 97.2 68.4C95.36 68.89 94.2999 69.71 93.1899 71.57C90.5099 76.04 91.9 79.59 94.48 83.18C96 85.29 96.1699 86.91 93.8599 88.7C91.6299 90.44 89.9199 93.89 87.6299 94.23C85.3599 94.56 82.6299 92 80.1799 90.57C78.8899 89.82 77.87 90.07 76.48 90.4C71.6 91.56 69.22 94.61 68.78 99.41C68.5 102.54 66.8798 103.6 63.8198 103.16C61.9898 102.9 60.07 102.96 58.22 103.16C56.18 103.38 55.25 102.55 55 100.64C54.94 100.2 54.7999 99.77 54.6799 99.34C53.3866 94.8133 50.5533 91.7267 46.1799 90.08C45.3299 89.76 44.6799 89.82 43.9299 90.26C42.6299 91.04 41.29 91.74 39.96 92.47C37.14 94.0233 34.5566 93.6267 32.21 91.28C27.26 86.32 27.17 86.27 30.76 80.12C32.04 77.93 31.9099 76.24 31.1299 73.81C29.9299 70.05 27.7799 68.36 24.1299 67.81C22.3899 67.55 20.71 66.85 19 66.35C19 62.25 19 58.14 19 54.04C20.4 54.28 21.5699 53.44 22.8699 53.24C27.1599 52.59 30.36 50.89 31.45 46.11C31.85 44.37 32.26 43.11 31.25 41.48C29.86 39.22 27.6798 36.72 27.8198 34.45C27.9698 32.12 31.37 30.72 32.96 28.6C34.84 26.11 36.7099 25.81 39.1199 27.77C42.7299 30.72 46.5499 31.48 50.6499 28.69C51.4199 28.17 52.7 28.4 52.98 27.18C53.72 23.99 55.1399 20.97 55.3799 17.65C59.4799 17.65 63.5899 17.65 67.6899 17.65V17.62ZM85.9399 58.29C86.3799 58.21 86.8299 58.12 86.8599 57.56C86.8899 56.84 86.3498 56.75 85.8098 56.68C85.6798 56.36 85.4899 56.04 85.4199 55.7C83.0999 44.5 74.08 36.72 62.78 36.2C51.76 35.69 42.0099 42.53 38.6399 53.12C35.3599 63.42 39.4699 74.74 48.6199 80.66C57.6999 86.53 69.7698 85.6 77.8198 78.35C83.7698 72.99 86.1799 66.16 85.9399 58.28V58.29Z" fill="white"/>
<path d="M61.7706 42.25C71.6606 42.2 79.8705 50.37 79.8505 60.24C79.8305 70.16 71.6805 78.45 61.9305 78.48C52.0005 78.51 43.6704 70.42 43.5904 60.67C43.5104 50.38 51.4706 42.31 61.7706 42.26V42.25Z" fill="white"/>
</svg>
