<svg width="122" height="122" viewBox="0 0 122 122" fill="none" xmlns="http://www.w3.org/2000/svg">
<path d="M61 122C94.6894 122 122 94.6894 122 61C122 27.3106 94.6894 0 61 0C27.3106 0 0 27.3106 0 61C0 94.6894 27.3106 122 61 122Z" fill="#00B8FD"/>
<path d="M103.21 60.08C100.22 54.8 95.2604 52.54 89.4704 52.07C83.1504 51.56 76.8104 51.96 70.4804 51.87C69.9904 51.87 69.3203 52.12 69.0703 51.66C68.8103 51.19 69.3904 50.77 69.6604 50.36C75.2204 42.2 81.8303 34.96 89.1003 28.3C90.5703 26.95 90.9404 25.65 90.1504 24.59C89.3904 23.55 88.4204 23.65 86.4904 24.88C80.8904 28.48 75.6704 32.58 70.7304 37.03C69.0904 35.32 67.4004 33.7 64.9304 33.24C64.3004 33.12 64.1703 32.64 64.3603 32.06C64.6703 31.1 64.2404 30.36 63.6704 29.64C62.7204 28.44 61.5102 27.59 60.0302 27.24C55.8302 26.22 52.0104 24.5 48.7204 21.64C47.8704 20.9 46.9503 20.92 46.0803 21.64C45.2603 22.31 44.4703 23.02 43.6403 23.69C40.2603 26.42 36.8003 28.91 32.0803 28.52C30.6003 28.4 29.7702 29.32 29.5302 30.9C29.0802 33.91 28.0702 36.69 26.5102 39.31C25.8102 40.49 24.8404 41.53 24.4104 42.88C20.6704 42.57 19.3903 44.54 18.3703 46.86C18.1703 47.32 18.1004 47.84 17.9404 48.32C17.6004 49.38 17.7402 49.9 19.0402 49.52C21.0802 48.91 23.0203 49.11 24.5803 50.69C30.0903 56.27 35.3903 62.05 40.0803 68.36C44.0403 73.7 45.9903 79.65 45.8403 86.32C45.7503 90.57 45.8403 94.83 45.8003 99.08C45.7903 100.06 45.9803 100.47 47.0803 100.44C50.1303 100.36 53.1804 100.37 56.2304 100.43C57.3104 100.45 57.6403 100.13 57.6403 99.03C57.6203 94.18 57.6604 89.33 57.7404 84.47C57.8704 75.94 60.0502 67.97 63.7902 60.38C64.6902 58.57 65.4904 56.67 66.9904 54.78C66.9904 55.94 66.9904 56.72 66.9904 57.5C66.9904 71.32 67.0004 85.15 66.9604 98.97C66.9604 100.13 67.3004 100.48 68.4304 100.45C71.0204 100.38 73.6104 100.39 76.2004 100.45C77.3104 100.48 77.7404 100.16 77.7204 98.97C77.6504 95.32 77.6904 91.67 77.6904 88.01C77.6904 85.91 77.6902 85.94 79.7702 85.91C84.6102 85.85 89.4604 86.17 94.1804 84.58C106.25 80.54 107.46 67.63 103.19 60.09L103.21 60.08ZM32.7802 29.91C35.7502 29.45 38.5102 28.5 41.0202 26.84C42.5602 25.82 44.0802 24.77 45.5402 23.64C46.7802 22.67 47.8903 22.6 49.1403 23.62C52.0503 25.99 55.4202 27.47 59.0102 28.49C60.0602 28.79 60.9702 29.27 61.7502 30.04C62.4302 30.71 62.8003 31.53 62.5603 32.43C61.7303 35.67 60.1103 38.45 57.3903 40.65C57.9203 38.22 57.0704 36.31 55.6904 34.44C53.8204 31.91 51.0402 31.22 48.2902 30.48C44.2502 29.39 40.6304 30.58 37.2404 32.73C36.2004 33.39 35.6003 34.47 35.1103 35.58C34.7903 36.33 34.3802 36.44 33.7502 35.9C32.6902 34.99 31.6804 34.06 31.2104 32.68C30.6404 31.02 31.0502 30.17 32.7802 29.9V29.91ZM35.3503 42.74C36.7403 45.37 38.8203 46.99 41.8803 47.15C42.0603 47.15 42.2504 47.18 42.4204 47.23C42.4904 47.25 42.5303 47.35 42.5803 47.42C38.1603 48.66 33.4903 45.5 32.0703 42.69C31.1703 40.92 31.7303 38.66 33.3503 37.51C33.5603 37.36 33.7403 37.05 34.0503 37.21C34.3403 37.36 34.2702 37.7 34.2502 37.96C34.1502 39.67 34.5603 41.25 35.3503 42.75V42.74ZM44.9904 43.48C45.6904 43.89 46.4003 43.85 47.0703 43.37C47.3603 43.17 47.6502 42.98 48.2702 42.56C47.2402 44.55 45.9402 45.25 44.5202 44.85C43.1402 44.46 41.9003 42.59 42.0903 41.05C42.2803 39.52 42.8803 38.21 44.3403 37.46C45.3303 36.95 46.3303 36.87 47.1403 37.71C47.9903 38.59 48.3903 39.64 47.8203 40.86C47.5503 41.44 47.1502 41.91 46.5102 41.95C45.9502 41.98 45.6503 41.49 45.3803 41.05C45.1603 40.7 45.1604 40.02 44.4904 40.25C43.9104 40.45 43.9204 41.01 43.9004 41.53C43.8703 42.41 44.2602 43.04 45.0002 43.47L44.9904 43.48ZM48.6003 37.81C46.9503 35.59 46.0603 35.54 42.5903 37.47C42.3203 35.88 43.2904 33.68 44.7304 32.93C46.1004 32.22 47.4203 32.62 48.6203 33.48C52.9703 36.6 52.4604 42.98 47.6704 45.34C47.5204 45.41 47.3403 45.41 46.8703 45.5C49.9903 42.54 50.4303 40.28 48.6003 37.81ZM40.9304 37.29C39.9504 41.4 40.9704 43.76 44.6604 46.35C41.6204 47.24 38.5303 46.18 37.1103 43.43C36.0003 41.28 34.5403 39.07 35.6403 36.4C35.7303 36.19 35.8004 35.97 35.9104 35.76C37.3504 32.89 44.1804 30.17 47.1704 31.27C47.4204 31.36 47.6504 31.5 47.9104 31.72C43.9704 31.61 41.7804 33.68 40.9304 37.27V37.29ZM43.0402 49.65C43.6502 49.21 44.3203 48.97 45.1003 48.98C47.0303 49.01 48.8604 49.53 50.9404 49.96C49.9704 50.95 48.9504 51.12 47.9304 51.34C46.2904 51.69 44.7304 51.37 43.1804 50.89C42.8904 50.8 42.4704 50.73 42.4504 50.35C42.4304 50.01 42.7802 49.83 43.0402 49.65ZM48.0503 48.57C46.2803 48.11 44.5304 47.9 42.7404 48.64C43.8204 47.46 45.2604 46.88 46.7304 46.65C50.0604 46.11 51.5704 43.82 52.4704 40.97C53.3704 38.1 52.3503 35.73 50.1103 33.82C50.0203 33.74 49.9704 33.61 49.9004 33.5C52.0004 32.76 55.5303 35.19 55.8903 37.26C56.3003 39.59 56.3702 41.98 56.0202 44.29C55.4802 47.77 51.9003 49.6 48.0503 48.59V48.57ZM26.6003 41.88C27.5903 40.31 28.3004 38.6 29.1704 36.97C29.4404 36.46 29.6003 35.83 30.3603 35.65C30.7003 36.37 30.6102 37.12 30.5102 37.82C29.9902 41.48 31.1802 44.44 34.0202 46.77C34.3902 47.07 34.8003 47.37 34.8503 47.86C32.2503 45.51 29.3204 43.74 25.9404 42.8C26.2604 42.58 26.4003 42.19 26.6003 41.87V41.88ZM53.3803 55.56C52.5403 56.64 51.6304 57.67 50.9604 58.87C49.8271 60.57 48.4837 60.8433 46.9304 59.69C46.4904 59.44 46.2503 59.04 46.0903 58.58C46.0303 58.48 45.9503 58.39 45.8503 58.32C45.4803 58.17 45.0803 58.06 44.8503 57.68C42.5003 55.25 40.1004 52.88 37.6904 50.52C37.6204 50.46 37.5504 50.4 37.4804 50.34C37.2404 49.61 36.6902 48.96 36.7802 48.09C37.5002 48.17 37.7904 48.76 38.2404 49.11C44.9504 54.35 52.5204 53.12 57.1704 46.01C57.4004 45.65 57.5003 44.97 58.0603 45.14C58.5603 45.29 58.3904 45.93 58.4404 46.38C58.5604 47.38 58.3504 48.35 58.1904 49.33C58.1104 49.41 58.0304 49.48 57.9504 49.56C56.5704 51.66 54.6804 53.38 53.4004 55.56H53.3803ZM59.2204 48.25C59.3704 46.45 59.2503 44.71 58.1003 43.17C57.7103 42.64 57.6704 42.05 58.2204 41.56C59.2704 40.64 60.0904 39.54 60.9104 38.43C61.1004 38.18 61.2704 37.84 61.6704 38C61.9804 38.13 61.9104 38.46 61.9604 38.72C62.5004 41.4 62.1103 43.96 61.0503 46.42C60.9703 46.5 60.8702 46.57 60.7702 46.63C60.1802 47.1 59.7404 47.72 59.2104 48.24L59.2204 48.25ZM62.5703 44.56C62.4903 44.19 62.7703 43.83 62.8403 43.48C63.3103 40.96 63.1104 38.45 62.6904 35.96C62.5404 35.05 62.7503 34.8 63.6303 34.86C65.6003 34.98 67.3304 35.53 68.4304 37.31C68.6304 37.63 68.8003 37.95 68.8403 38.3C68.7103 38.44 68.5904 38.59 68.4904 38.76C66.3904 40.56 64.5303 42.61 62.5803 44.57L62.5703 44.56ZM87.5102 76.24C84.6002 76.37 81.6902 76.28 78.7802 76.34C77.8902 76.36 77.6904 75.98 77.7004 75.18C77.7404 73.1 77.7104 71.02 77.7104 68.94C77.7104 66.86 77.7404 64.78 77.7004 62.7C77.6804 61.89 77.9102 61.52 78.7902 61.55C81.7902 61.64 84.8003 61.45 87.8003 61.73C92.0103 62.13 94.6403 64.92 94.6203 69C94.6003 72.93 91.6102 76.06 87.5202 76.23L87.5102 76.24Z" fill="black"/>
</svg>
